<svg width="736" height="309" viewBox="0 0 736 309" fill="none" xmlns="http://www.w3.org/2000/svg">
<rect x="2.13494" y="3.00738" width="731.005" height="303.162" fill="white" stroke="black" stroke-width="4.26989"/>
<path d="M34.4877 44.4259C38.2042 40.8187 43.0502 39.0151 49.0258 39.0151C50.884 39.0151 52.7605 39.2519 54.6552 39.7256C56.5499 40.1628 57.6248 40.3814 57.8798 40.3814C58.3535 40.3814 58.8636 40.1628 59.4102 39.7256C59.9567 39.2519 60.485 39.0151 60.9951 39.0151C62.1975 39.0151 62.8716 39.8713 63.0174 41.5838L63.9465 50.4925C63.9465 50.6018 63.9465 50.7111 63.9465 50.8205C63.9465 51.4399 63.7643 51.9318 63.3999 52.2961C63.0356 52.6605 62.5801 52.8427 62.0336 52.8427C61.4142 52.8427 60.8858 52.6241 60.4486 52.1868C60.0114 51.7496 59.5377 51.0391 59.0276 50.0553C57.8616 47.9784 56.6957 46.4845 55.5297 45.5736C53.8901 44.189 51.9043 43.4967 49.5723 43.4967C46.2931 43.4967 43.6879 44.6263 41.7567 46.8853C39.862 49.1079 38.9147 52.0775 38.9147 55.794C38.9147 60.2393 40.1718 63.8647 42.6859 66.6703C45.2 69.4759 48.5157 70.8787 52.633 70.8787C55.5479 70.8787 58.226 69.9131 60.6672 67.982C61.651 67.2533 62.4708 66.8889 63.1267 66.8889C64.2926 66.8889 64.8756 67.4901 64.8756 68.6925C64.8756 69.4212 64.5477 70.2593 63.8918 71.2066C62.3615 73.1742 60.2846 74.7227 57.6612 75.8523C55.0378 76.9818 52.05 77.5465 48.6979 77.5465C42.7223 77.5465 37.9127 75.834 34.2691 72.409C30.6619 68.9476 28.8583 64.3748 28.8583 58.6907C28.8583 52.8245 30.7347 48.0695 34.4877 44.4259ZM72.6152 53.3346C75.5301 50.6383 79.3195 49.2901 83.9834 49.2901C88.4286 49.2901 92.054 50.5472 94.8596 53.0613C97.6652 55.539 99.068 58.8 99.068 62.8445C99.068 67.2533 97.5924 70.8058 94.641 73.5021C91.7261 76.1984 87.9185 77.5465 83.2182 77.5465C78.8094 77.5465 75.2022 76.3077 72.3966 73.83C69.591 71.3159 68.1882 68.0367 68.1882 63.9922C68.1882 59.5834 69.6639 56.0309 72.6152 53.3346ZM79.5017 70.0589C80.8134 72.2451 82.4166 73.3381 84.3113 73.3381C85.9145 73.3381 87.208 72.6459 88.1918 71.2613C89.212 69.8767 89.7221 67.8727 89.7221 65.2493C89.7221 61.7149 89.0662 58.8729 87.7545 56.7232C86.4428 54.5734 84.8214 53.4985 82.8903 53.4985C81.2871 53.4985 79.9936 54.1908 79.0098 55.5754C78.026 56.96 77.5341 58.9276 77.5341 61.4781C77.5341 65.0124 78.19 67.8727 79.5017 70.0589ZM104.372 50.7658L110.165 49.5087C110.639 49.363 111.076 49.2901 111.477 49.2901C112.862 49.2901 113.554 50.0006 113.554 51.4217V54.1544H113.663C114.611 52.6241 115.922 51.4399 117.598 50.6018C119.311 49.7274 121.115 49.2901 123.009 49.2901C126.835 49.2901 129.623 50.9298 131.371 54.209H131.535C133.722 50.9298 136.91 49.2901 141.1 49.2901C144.051 49.2901 146.401 50.1646 148.15 51.9136C149.899 53.6625 150.774 56.2313 150.774 59.6198V68.5285C150.774 70.4961 151.12 71.826 151.812 72.5183L152.523 73.2288C153.142 73.8483 153.452 74.4495 153.452 75.0324C153.452 76.3441 152.687 77 151.156 77H141.647C140.116 77 139.351 76.3441 139.351 75.0324C139.351 74.3766 139.624 73.7754 140.171 73.2288L140.717 72.6276C141.41 71.826 141.756 70.5143 141.756 68.6925V59.9478C141.756 56.2313 140.371 54.373 137.602 54.373C136.217 54.373 134.997 54.8467 133.94 55.794C132.92 56.7049 132.41 57.6887 132.41 58.7454V68.6925C132.41 70.5143 132.756 71.826 133.448 72.6276L133.995 73.2288C134.505 73.7389 134.76 74.3401 134.76 75.0324C134.76 76.3441 133.995 77 132.465 77H123.283C121.752 77 120.987 76.3441 120.987 75.0324C120.987 74.4495 121.242 73.8483 121.752 73.2288L122.299 72.6276C122.991 71.8989 123.337 70.5872 123.337 68.6925V59.9478C123.337 56.2313 121.971 54.373 119.238 54.373C117.817 54.373 116.578 54.8467 115.522 55.794C114.501 56.7049 113.991 57.6887 113.991 58.7454V68.6925C113.991 70.5143 114.337 71.826 115.03 72.6276L115.576 73.2288C116.086 73.6661 116.341 74.2673 116.341 75.0324C116.341 76.3441 115.594 77 114.101 77H104.591C103.898 77 103.352 76.836 102.951 76.5081C102.55 76.1802 102.35 75.7247 102.35 75.1417C102.35 74.4859 102.66 73.8483 103.279 73.2288L103.935 72.5183C104.627 71.7167 104.973 70.3868 104.973 68.5285V59.2373C104.973 57.4883 104.627 56.213 103.935 55.4114L103.224 54.6463C102.641 53.954 102.35 53.3346 102.35 52.788C102.35 51.7314 103.024 51.0573 104.372 50.7658ZM157.292 73.2288L157.948 72.5183C158.64 71.7896 158.986 70.4597 158.986 68.5285V59.128C158.986 57.3426 158.64 56.0491 157.948 55.2475L157.237 54.4823C156.654 53.8629 156.363 53.2435 156.363 52.6241C156.363 51.531 157.037 50.8569 158.385 50.6018L164.342 49.4541C164.816 49.3448 165.362 49.2901 165.982 49.2901C167.33 49.2901 168.004 49.9824 168.004 51.367V68.5285C168.004 70.4232 168.368 71.7532 169.097 72.5183L169.698 73.2288C170.318 73.8847 170.628 74.4859 170.628 75.0324C170.628 76.3441 169.862 77 168.332 77H158.604C157.11 77 156.363 76.3624 156.363 75.0871C156.363 74.4677 156.672 73.8483 157.292 73.2288ZM157.729 41.4745C157.729 40.0535 158.221 38.9422 159.205 38.1406C160.188 37.339 161.464 36.9382 163.031 36.9382C164.561 36.9382 165.8 37.339 166.747 38.1406C167.731 38.9422 168.223 40.0535 168.223 41.4745C168.223 42.8955 167.731 44.0251 166.747 44.8631C165.8 45.6647 164.561 46.0655 163.031 46.0655C161.464 46.0655 160.188 45.6647 159.205 44.8631C158.221 44.0615 157.729 42.932 157.729 41.4745ZM173.764 75.1417C173.764 74.4859 174.073 73.8483 174.693 73.2288L175.349 72.5183C176.041 71.7167 176.387 70.3868 176.387 68.5285V59.2373C176.387 57.4883 176.041 56.213 175.349 55.4114L174.638 54.6463C174.055 54.0269 173.764 53.4257 173.764 52.8427C173.764 51.7496 174.438 51.0573 175.786 50.7658L181.579 49.5087C182.017 49.363 182.436 49.2901 182.836 49.2901C183.492 49.2901 184.002 49.4905 184.367 49.8913C184.768 50.2557 184.968 50.7658 184.968 51.4217V54.1544H185.077C185.952 52.6969 187.209 51.531 188.848 50.6565C190.488 49.7456 192.328 49.2901 194.369 49.2901C197.575 49.2901 199.998 50.201 201.638 52.0229C203.314 53.8082 204.152 56.4863 204.152 60.0571V68.5285C204.152 70.4961 204.498 71.826 205.19 72.5183L205.901 73.2288C206.484 73.8118 206.775 74.413 206.775 75.0324C206.775 76.3441 206.028 77 204.534 77H195.024C193.494 77 192.729 76.3259 192.729 74.9778C192.729 74.3219 192.984 73.7389 193.494 73.2288L194.041 72.6276C194.733 71.8989 195.079 70.5872 195.079 68.6925V60.3304C195.079 56.3588 193.64 54.373 190.761 54.373C189.304 54.373 188.047 54.8649 186.99 55.8487C185.934 56.796 185.405 57.8162 185.405 58.9093V68.6925C185.405 70.5143 185.751 71.826 186.444 72.6276L186.99 73.2288C187.5 73.7389 187.755 74.3401 187.755 75.0324C187.755 76.3441 187.008 77 185.514 77H176.005C175.312 77 174.766 76.836 174.365 76.5081C173.964 76.1802 173.764 75.7247 173.764 75.1417ZM209.19 80.6619C209.882 79.9696 210.738 79.6234 211.759 79.6234C212.341 79.6234 212.833 79.7509 213.234 80.006C213.671 80.2975 214.145 80.7165 214.655 81.2631C215.202 81.8096 215.657 82.2104 216.022 82.4655C217.734 83.6314 220.157 84.2144 223.291 84.2144C225.513 84.2144 227.317 83.8318 228.701 83.0667C230.086 82.3379 230.778 81.3359 230.778 80.0607C230.778 78.3117 229.284 77.4372 226.297 77.4372C225.495 77.4372 224.11 77.5283 222.143 77.7105C220.175 77.8927 218.773 77.9838 217.934 77.9838C215.566 77.9838 213.726 77.5465 212.414 76.6721C211.103 75.7612 210.447 74.5405 210.447 73.0102C210.447 71.7349 210.92 70.4961 211.868 69.2937C212.815 68.0913 214.036 67.1075 215.53 66.3424C213.744 65.5772 212.341 64.5388 211.321 63.227C210.337 61.8789 209.846 60.3668 209.846 58.6907C209.846 55.9216 211.066 53.6625 213.507 51.9136C215.985 50.1646 219.119 49.2901 222.908 49.2901C226.114 49.2901 228.793 49.9095 230.942 51.1484C232.545 51.0391 234.058 50.5107 235.479 49.5634C236.936 48.5796 237.865 48.0877 238.266 48.0877C238.776 48.0877 239.232 48.3428 239.632 48.8529C240.033 49.3266 240.234 49.9278 240.234 50.6565C240.234 51.6038 239.869 52.369 239.14 52.952C238.412 53.4985 237.464 53.7718 236.298 53.7718C235.679 53.7718 234.859 53.6989 233.839 53.5532C234.896 54.9013 235.424 56.4134 235.424 58.0895C235.424 60.8951 234.222 63.1906 231.817 64.976C229.412 66.7614 226.297 67.6541 222.471 67.6541C221.159 67.6541 219.957 67.5448 218.864 67.3261C217.989 68.0184 217.552 68.7836 217.552 69.6216C217.552 70.7876 218.39 71.3706 220.066 71.3706C220.758 71.3706 222.27 71.2066 224.602 70.8787C226.934 70.5143 228.774 70.3321 230.122 70.3321C233.001 70.3321 235.242 70.9516 236.845 72.1904C238.485 73.3928 239.304 75.0871 239.304 77.2733C239.304 80.6254 237.555 83.3217 234.058 85.3622C230.56 87.4026 225.95 88.4228 220.23 88.4228C216.513 88.4228 213.562 87.9674 211.376 87.0564C209.19 86.1455 208.097 84.852 208.097 83.176C208.097 82.1557 208.461 81.3177 209.19 80.6619ZM218.044 58.0349C218.044 59.8931 218.481 61.387 219.355 62.5165C220.266 63.6096 221.451 64.1562 222.908 64.1562C224.22 64.1562 225.276 63.7189 226.078 62.8445C226.88 61.9336 227.28 60.7129 227.28 59.1826C227.28 57.3244 226.807 55.8305 225.859 54.7009C224.948 53.5714 223.783 53.0066 222.361 53.0066C221.086 53.0066 220.048 53.4621 219.246 54.373C218.445 55.2839 218.044 56.5045 218.044 58.0349ZM254.864 64.8667C255.228 64.3566 255.738 64.1015 256.394 64.1015C257.05 64.1015 257.578 64.3201 257.979 64.7574C258.416 65.1946 258.927 65.9051 259.51 66.8889C260.42 68.4557 261.295 69.6399 262.133 70.4415C263.918 72.2268 266.177 73.1195 268.91 73.1195C270.805 73.1195 272.28 72.7187 273.337 71.9171C274.43 71.1155 274.977 70.0589 274.977 68.7472C274.977 67.5448 274.485 66.5428 273.501 65.7412C272.517 64.9031 270.695 63.9558 268.036 62.8991C266.833 62.4254 265.959 62.0793 265.412 61.8607C264.866 61.6421 264.046 61.2777 262.953 60.7676C261.86 60.221 261.022 59.7656 260.439 59.4012C259.892 59.0004 259.218 58.4721 258.416 57.8162C257.615 57.124 257.014 56.4499 256.613 55.794C256.212 55.1017 255.866 54.3001 255.574 53.3892C255.283 52.4419 255.137 51.4399 255.137 50.3832C255.137 47.0311 256.431 44.2983 259.018 42.185C261.605 40.0717 264.957 39.0151 269.074 39.0151C270.677 39.0151 272.299 39.2155 273.938 39.6163C275.614 39.9806 276.544 40.1628 276.726 40.1628C277.127 40.1628 277.637 39.9806 278.256 39.6163C278.912 39.2155 279.477 39.0151 279.95 39.0151C280.606 39.0151 281.098 39.3066 281.426 39.8895C281.754 40.4725 281.936 41.0373 281.973 41.5838L282.738 48.6889C282.738 48.7982 282.738 48.9258 282.738 49.0715C282.738 49.5816 282.592 50.0371 282.3 50.4379C282.009 50.8387 281.535 51.0391 280.879 51.0391C279.896 51.0391 278.912 50.2921 277.928 48.7982C276.981 47.4865 276.015 46.4117 275.031 45.5736C273.173 44.1526 271.315 43.4421 269.457 43.4421C267.89 43.4421 266.615 43.8065 265.631 44.5352C264.647 45.2275 264.155 46.193 264.155 47.4319C264.155 47.7962 264.192 48.1424 264.264 48.4703C264.374 48.7618 264.483 49.0533 264.592 49.3448C264.738 49.5998 264.957 49.8731 265.248 50.1646C265.54 50.4197 265.777 50.6383 265.959 50.8205C266.177 51.0026 266.505 51.2213 266.943 51.4763C267.38 51.7314 267.708 51.9318 267.926 52.0775C268.181 52.2233 268.582 52.4237 269.129 52.6787C269.712 52.8973 270.131 53.0613 270.386 53.1706C270.641 53.2799 271.078 53.4621 271.697 53.7172C272.353 53.9722 272.809 54.1544 273.064 54.2637C274.594 54.8831 275.705 55.3568 276.398 55.6847C277.127 56.0126 278.074 56.541 279.24 57.2697C280.442 57.962 281.317 58.6543 281.863 59.3466C282.446 60.0024 282.956 60.8587 283.394 61.9153C283.867 62.972 284.104 64.1562 284.104 65.4679C284.104 68.9658 282.719 71.8625 279.95 74.158C277.218 76.417 273.647 77.5465 269.238 77.5465C267.161 77.5465 265.194 77.2733 263.335 76.7267C261.514 76.1437 260.53 75.8523 260.384 75.8523C259.947 75.8523 259.4 76.0891 258.744 76.5628C258.088 77.0364 257.506 77.2733 256.995 77.2733C255.647 77.2733 254.919 76.5081 254.809 74.9778L254.372 66.7249C254.372 66.6156 254.372 66.5063 254.372 66.397C254.372 65.814 254.536 65.3039 254.864 64.8667ZM292.141 53.3346C295.056 50.6383 298.845 49.2901 303.509 49.2901C307.954 49.2901 311.58 50.5472 314.385 53.0613C317.191 55.539 318.594 58.8 318.594 62.8445C318.594 67.2533 317.118 70.8058 314.167 73.5021C311.252 76.1984 307.444 77.5465 302.744 77.5465C298.335 77.5465 294.728 76.3077 291.922 73.83C289.117 71.3159 287.714 68.0367 287.714 63.9922C287.714 59.5834 289.19 56.0309 292.141 53.3346ZM299.027 70.0589C300.339 72.2451 301.942 73.3381 303.837 73.3381C305.44 73.3381 306.734 72.6459 307.717 71.2613C308.738 69.8767 309.248 67.8727 309.248 65.2493C309.248 61.7149 308.592 58.8729 307.28 56.7232C305.968 54.5734 304.347 53.4985 302.416 53.4985C300.813 53.4985 299.519 54.1908 298.535 55.5754C297.552 56.96 297.06 58.9276 297.06 61.4781C297.06 65.0124 297.716 67.8727 299.027 70.0589ZM326.193 53.3346C329.108 50.6383 332.898 49.2901 337.561 49.2901C342.007 49.2901 345.632 50.5472 348.438 53.0613C351.243 55.539 352.646 58.8 352.646 62.8445C352.646 67.2533 351.17 70.8058 348.219 73.5021C345.304 76.1984 341.496 77.5465 336.796 77.5465C332.387 77.5465 328.78 76.3077 325.975 73.83C323.169 71.3159 321.766 68.0367 321.766 63.9922C321.766 59.5834 323.242 56.0309 326.193 53.3346ZM333.08 70.0589C334.391 72.2451 335.995 73.3381 337.889 73.3381C339.492 73.3381 340.786 72.6459 341.77 71.2613C342.79 69.8767 343.3 67.8727 343.3 65.2493C343.3 61.7149 342.644 58.8729 341.333 56.7232C340.021 54.5734 338.399 53.4985 336.468 53.4985C334.865 53.4985 333.572 54.1908 332.588 55.5754C331.604 56.96 331.112 58.9276 331.112 61.4781C331.112 65.0124 331.768 67.8727 333.08 70.0589ZM355.928 75.1417C355.928 74.4859 356.238 73.8483 356.857 73.2288L357.513 72.5183C358.205 71.7167 358.551 70.3868 358.551 68.5285V59.2373C358.551 57.4883 358.205 56.213 357.513 55.4114L356.802 54.6463C356.219 54.0269 355.928 53.4257 355.928 52.8427C355.928 51.7496 356.602 51.0573 357.95 50.7658L363.743 49.5087C364.181 49.363 364.6 49.2901 365.001 49.2901C365.656 49.2901 366.166 49.4905 366.531 49.8913C366.932 50.2557 367.132 50.7658 367.132 51.4217V54.1544H367.241C368.116 52.6969 369.373 51.531 371.013 50.6565C372.652 49.7456 374.492 49.2901 376.533 49.2901C379.739 49.2901 382.162 50.201 383.802 52.0229C385.478 53.8082 386.316 56.4863 386.316 60.0571V68.5285C386.316 70.4961 386.662 71.826 387.354 72.5183L388.065 73.2288C388.648 73.8118 388.939 74.413 388.939 75.0324C388.939 76.3441 388.192 77 386.698 77H377.189C375.658 77 374.893 76.3259 374.893 74.9778C374.893 74.3219 375.148 73.7389 375.658 73.2288L376.205 72.6276C376.897 71.8989 377.243 70.5872 377.243 68.6925V60.3304C377.243 56.3588 375.804 54.373 372.925 54.373C371.468 54.373 370.211 54.8649 369.154 55.8487C368.098 56.796 367.569 57.8162 367.569 58.9093V68.6925C367.569 70.5143 367.915 71.826 368.608 72.6276L369.154 73.2288C369.664 73.7389 369.919 74.3401 369.919 75.0324C369.919 76.3441 369.172 77 367.679 77H358.169C357.476 77 356.93 76.836 356.529 76.5081C356.128 76.1802 355.928 75.7247 355.928 75.1417Z" fill="black"/>
<path d="M1 237C51.6031 237 54.9185 135 103.079 135C163.279 135 155.427 237 209.52 237C263.613 237 260.995 135 315.088 135C369.181 135 367.436 237 419.784 237C472.132 237 474.75 135 525.353 135C575.956 135 575.956 237 629.176 237C682.397 237 681.524 135 733 135" stroke="black" stroke-width="8.53978"/>
<rect x="2.13494" y="3.00738" width="731.005" height="303.162" fill="white" stroke="black" stroke-width="4.26989"/>
<path d="M192.857 44.4259C196.574 40.8187 201.42 39.0151 207.395 39.0151C209.254 39.0151 211.13 39.2519 213.025 39.7256C214.92 40.1628 215.994 40.3814 216.249 40.3814C216.723 40.3814 217.233 40.1628 217.78 39.7256C218.326 39.2519 218.855 39.0151 219.365 39.0151C220.567 39.0151 221.241 39.8713 221.387 41.5838L222.316 50.4925C222.316 50.6018 222.316 50.7111 222.316 50.8205C222.316 51.4399 222.134 51.9318 221.77 52.2961C221.405 52.6605 220.95 52.8427 220.403 52.8427C219.784 52.8427 219.255 52.6241 218.818 52.1868C218.381 51.7496 217.907 51.0391 217.397 50.0553C216.231 47.9784 215.065 46.4845 213.899 45.5736C212.26 44.189 210.274 43.4967 207.942 43.4967C204.663 43.4967 202.057 44.6263 200.126 46.8853C198.232 49.1079 197.284 52.0775 197.284 55.794C197.284 60.2393 198.541 63.8647 201.055 66.6703C203.57 69.4759 206.885 70.8787 211.003 70.8787C213.918 70.8787 216.596 69.9131 219.037 67.982C220.021 67.2533 220.84 66.8889 221.496 66.8889C222.662 66.8889 223.245 67.4901 223.245 68.6925C223.245 69.4212 222.917 70.2593 222.261 71.2066C220.731 73.1742 218.654 74.7227 216.031 75.8523C213.407 76.9818 210.42 77.5465 207.067 77.5465C201.092 77.5465 196.282 75.834 192.639 72.409C189.031 68.9476 187.228 64.3748 187.228 58.6907C187.228 52.8245 189.104 48.0695 192.857 44.4259ZM230.985 53.3346C233.9 50.6383 237.689 49.2901 242.353 49.2901C246.798 49.2901 250.424 50.5472 253.229 53.0613C256.035 55.539 257.438 58.8 257.438 62.8445C257.438 67.2533 255.962 70.8058 253.011 73.5021C250.096 76.1984 246.288 77.5465 241.588 77.5465C237.179 77.5465 233.572 76.3077 230.766 73.83C227.961 71.3159 226.558 68.0367 226.558 63.9922C226.558 59.5834 228.033 56.0309 230.985 53.3346ZM237.871 70.0589C239.183 72.2451 240.786 73.3381 242.681 73.3381C244.284 73.3381 245.578 72.6459 246.561 71.2613C247.582 69.8767 248.092 67.8727 248.092 65.2493C248.092 61.7149 247.436 58.8729 246.124 56.7232C244.812 54.5734 243.191 53.4985 241.26 53.4985C239.657 53.4985 238.363 54.1908 237.379 55.5754C236.396 56.96 235.904 58.9276 235.904 61.4781C235.904 65.0124 236.56 67.8727 237.871 70.0589ZM262.742 50.7658L268.535 49.5087C269.009 49.363 269.446 49.2901 269.847 49.2901C271.231 49.2901 271.924 50.0006 271.924 51.4217V54.1544H272.033C272.98 52.6241 274.292 51.4399 275.968 50.6018C277.681 49.7274 279.484 49.2901 281.379 49.2901C285.205 49.2901 287.992 50.9298 289.741 54.209H289.905C292.091 50.9298 295.279 49.2901 299.47 49.2901C302.421 49.2901 304.771 50.1646 306.52 51.9136C308.269 53.6625 309.143 56.2313 309.143 59.6198V68.5285C309.143 70.4961 309.49 71.826 310.182 72.5183L310.892 73.2288C311.512 73.8483 311.822 74.4495 311.822 75.0324C311.822 76.3441 311.056 77 309.526 77H300.016C298.486 77 297.721 76.3441 297.721 75.0324C297.721 74.3766 297.994 73.7754 298.54 73.2288L299.087 72.6276C299.779 71.826 300.125 70.5143 300.125 68.6925V59.9478C300.125 56.2313 298.741 54.373 295.972 54.373C294.587 54.373 293.366 54.8467 292.31 55.794C291.29 56.7049 290.78 57.6887 290.78 58.7454V68.6925C290.78 70.5143 291.126 71.826 291.818 72.6276L292.364 73.2288C292.875 73.7389 293.13 74.3401 293.13 75.0324C293.13 76.3441 292.364 77 290.834 77H281.652C280.122 77 279.357 76.3441 279.357 75.0324C279.357 74.4495 279.612 73.8483 280.122 73.2288L280.668 72.6276C281.361 71.8989 281.707 70.5872 281.707 68.6925V59.9478C281.707 56.2313 280.34 54.373 277.608 54.373C276.187 54.373 274.948 54.8467 273.891 55.794C272.871 56.7049 272.361 57.6887 272.361 58.7454V68.6925C272.361 70.5143 272.707 71.826 273.399 72.6276L273.946 73.2288C274.456 73.6661 274.711 74.2673 274.711 75.0324C274.711 76.3441 273.964 77 272.47 77H262.96C262.268 77 261.721 76.836 261.321 76.5081C260.92 76.1802 260.719 75.7247 260.719 75.1417C260.719 74.4859 261.029 73.8483 261.649 73.2288L262.304 72.5183C262.997 71.7167 263.343 70.3868 263.343 68.5285V59.2373C263.343 57.4883 262.997 56.213 262.304 55.4114L261.594 54.6463C261.011 53.954 260.719 53.3346 260.719 52.788C260.719 51.7314 261.394 51.0573 262.742 50.7658ZM315.661 73.2288L316.317 72.5183C317.01 71.7896 317.356 70.4597 317.356 68.5285V59.128C317.356 57.3426 317.01 56.0491 316.317 55.2475L315.607 54.4823C315.024 53.8629 314.732 53.2435 314.732 52.6241C314.732 51.531 315.406 50.8569 316.755 50.6018L322.712 49.4541C323.186 49.3448 323.732 49.2901 324.351 49.2901C325.7 49.2901 326.374 49.9824 326.374 51.367V68.5285C326.374 70.4232 326.738 71.7532 327.467 72.5183L328.068 73.2288C328.687 73.8847 328.997 74.4859 328.997 75.0324C328.997 76.3441 328.232 77 326.702 77H316.973C315.479 77 314.732 76.3624 314.732 75.0871C314.732 74.4677 315.042 73.8483 315.661 73.2288ZM316.099 41.4745C316.099 40.0535 316.591 38.9422 317.574 38.1406C318.558 37.339 319.833 36.9382 321.4 36.9382C322.93 36.9382 324.169 37.339 325.117 38.1406C326.1 38.9422 326.592 40.0535 326.592 41.4745C326.592 42.8955 326.1 44.0251 325.117 44.8631C324.169 45.6647 322.93 46.0655 321.4 46.0655C319.833 46.0655 318.558 45.6647 317.574 44.8631C316.591 44.0615 316.099 42.932 316.099 41.4745ZM332.133 75.1417C332.133 74.4859 332.443 73.8483 333.063 73.2288L333.718 72.5183C334.411 71.7167 334.757 70.3868 334.757 68.5285V59.2373C334.757 57.4883 334.411 56.213 333.718 55.4114L333.008 54.6463C332.425 54.0269 332.133 53.4257 332.133 52.8427C332.133 51.7496 332.807 51.0573 334.156 50.7658L339.949 49.5087C340.386 49.363 340.805 49.2901 341.206 49.2901C341.862 49.2901 342.372 49.4905 342.736 49.8913C343.137 50.2557 343.338 50.7658 343.338 51.4217V54.1544H343.447C344.321 52.6969 345.578 51.531 347.218 50.6565C348.858 49.7456 350.698 49.2901 352.738 49.2901C355.945 49.2901 358.368 50.201 360.007 52.0229C361.683 53.8082 362.521 56.4863 362.521 60.0571V68.5285C362.521 70.4961 362.867 71.826 363.56 72.5183L364.27 73.2288C364.853 73.8118 365.145 74.413 365.145 75.0324C365.145 76.3441 364.398 77 362.904 77H353.394C351.864 77 351.099 76.3259 351.099 74.9778C351.099 74.3219 351.354 73.7389 351.864 73.2288L352.41 72.6276C353.103 71.8989 353.449 70.5872 353.449 68.6925V60.3304C353.449 56.3588 352.009 54.373 349.131 54.373C347.673 54.373 346.416 54.8649 345.36 55.8487C344.303 56.796 343.775 57.8162 343.775 58.9093V68.6925C343.775 70.5143 344.121 71.826 344.813 72.6276L345.36 73.2288C345.87 73.7389 346.125 74.3401 346.125 75.0324C346.125 76.3441 345.378 77 343.884 77H334.374C333.682 77 333.135 76.836 332.735 76.5081C332.334 76.1802 332.133 75.7247 332.133 75.1417ZM367.559 80.6619C368.252 79.9696 369.108 79.6234 370.128 79.6234C370.711 79.6234 371.203 79.7509 371.604 80.006C372.041 80.2975 372.515 80.7165 373.025 81.2631C373.571 81.8096 374.027 82.2104 374.391 82.4655C376.104 83.6314 378.527 84.2144 381.66 84.2144C383.883 84.2144 385.686 83.8318 387.071 83.0667C388.456 82.3379 389.148 81.3359 389.148 80.0607C389.148 78.3117 387.654 77.4372 384.666 77.4372C383.865 77.4372 382.48 77.5283 380.512 77.7105C378.545 77.8927 377.142 77.9838 376.304 77.9838C373.936 77.9838 372.096 77.5465 370.784 76.6721C369.472 75.7612 368.816 74.5405 368.816 73.0102C368.816 71.7349 369.29 70.4961 370.237 69.2937C371.185 68.0913 372.405 67.1075 373.899 66.3424C372.114 65.5772 370.711 64.5388 369.691 63.227C368.707 61.8789 368.215 60.3668 368.215 58.6907C368.215 55.9216 369.436 53.6625 371.877 51.9136C374.355 50.1646 377.488 49.2901 381.278 49.2901C384.484 49.2901 387.162 49.9095 389.312 51.1484C390.915 51.0391 392.427 50.5107 393.848 49.5634C395.306 48.5796 396.235 48.0877 396.636 48.0877C397.146 48.0877 397.601 48.3428 398.002 48.8529C398.403 49.3266 398.603 49.9278 398.603 50.6565C398.603 51.6038 398.239 52.369 397.51 52.952C396.781 53.4985 395.834 53.7718 394.668 53.7718C394.049 53.7718 393.229 53.6989 392.209 53.5532C393.265 54.9013 393.794 56.4134 393.794 58.0895C393.794 60.8951 392.591 63.1906 390.186 64.976C387.782 66.7614 384.666 67.6541 380.84 67.6541C379.529 67.6541 378.326 67.5448 377.233 67.3261C376.359 68.0184 375.921 68.7836 375.921 69.6216C375.921 70.7876 376.76 71.3706 378.436 71.3706C379.128 71.3706 380.64 71.2066 382.972 70.8787C385.304 70.5143 387.144 70.3321 388.492 70.3321C391.371 70.3321 393.611 70.9516 395.215 72.1904C396.854 73.3928 397.674 75.0871 397.674 77.2733C397.674 80.6254 395.925 83.3217 392.427 85.3622C388.929 87.4026 384.32 88.4228 378.6 88.4228C374.883 88.4228 371.932 87.9674 369.746 87.0564C367.559 86.1455 366.466 84.852 366.466 83.176C366.466 82.1557 366.831 81.3177 367.559 80.6619ZM376.413 58.0349C376.413 59.8931 376.851 61.387 377.725 62.5165C378.636 63.6096 379.82 64.1562 381.278 64.1562C382.589 64.1562 383.646 63.7189 384.448 62.8445C385.249 61.9336 385.65 60.7129 385.65 59.1826C385.65 57.3244 385.176 55.8305 384.229 54.7009C383.318 53.5714 382.152 53.0066 380.731 53.0066C379.456 53.0066 378.417 53.4621 377.616 54.373C376.814 55.2839 376.413 56.5045 376.413 58.0349ZM413.233 64.8667C413.598 64.3566 414.108 64.1015 414.764 64.1015C415.42 64.1015 415.948 64.3201 416.349 64.7574C416.786 65.1946 417.296 65.9051 417.879 66.8889C418.79 68.4557 419.665 69.6399 420.503 70.4415C422.288 72.2268 424.547 73.1195 427.28 73.1195C429.174 73.1195 430.65 72.7187 431.707 71.9171C432.8 71.1155 433.346 70.0589 433.346 68.7472C433.346 67.5448 432.854 66.5428 431.871 65.7412C430.887 64.9031 429.065 63.9558 426.405 62.8991C425.203 62.4254 424.328 62.0793 423.782 61.8607C423.235 61.6421 422.415 61.2777 421.322 60.7676C420.229 60.221 419.391 59.7656 418.808 59.4012C418.262 59.0004 417.588 58.4721 416.786 57.8162C415.984 57.124 415.383 56.4499 414.982 55.794C414.582 55.1017 414.235 54.3001 413.944 53.3892C413.653 52.4419 413.507 51.4399 413.507 50.3832C413.507 47.0311 414.8 44.2983 417.387 42.185C419.974 40.0717 423.326 39.0151 427.444 39.0151C429.047 39.0151 430.668 39.2155 432.308 39.6163C433.984 39.9806 434.913 40.1628 435.095 40.1628C435.496 40.1628 436.006 39.9806 436.626 39.6163C437.282 39.2155 437.846 39.0151 438.32 39.0151C438.976 39.0151 439.468 39.3066 439.796 39.8895C440.124 40.4725 440.306 41.0373 440.342 41.5838L441.107 48.6889C441.107 48.7982 441.107 48.9258 441.107 49.0715C441.107 49.5816 440.962 50.0371 440.67 50.4379C440.379 50.8387 439.905 51.0391 439.249 51.0391C438.265 51.0391 437.282 50.2921 436.298 48.7982C435.35 47.4865 434.385 46.4117 433.401 45.5736C431.543 44.1526 429.685 43.4421 427.826 43.4421C426.259 43.4421 424.984 43.8065 424 44.5352C423.017 45.2275 422.525 46.193 422.525 47.4319C422.525 47.7962 422.561 48.1424 422.634 48.4703C422.743 48.7618 422.853 49.0533 422.962 49.3448C423.108 49.5998 423.326 49.8731 423.618 50.1646C423.909 50.4197 424.146 50.6383 424.328 50.8205C424.547 51.0026 424.875 51.2213 425.312 51.4763C425.749 51.7314 426.077 51.9318 426.296 52.0775C426.551 52.2233 426.952 52.4237 427.498 52.6787C428.081 52.8973 428.5 53.0613 428.755 53.1706C429.01 53.2799 429.448 53.4621 430.067 53.7172C430.723 53.9722 431.178 54.1544 431.433 54.2637C432.964 54.8831 434.075 55.3568 434.767 55.6847C435.496 56.0126 436.443 56.541 437.609 57.2697C438.812 57.962 439.686 58.6543 440.233 59.3466C440.816 60.0024 441.326 60.8587 441.763 61.9153C442.237 62.972 442.474 64.1562 442.474 65.4679C442.474 68.9658 441.089 71.8625 438.32 74.158C435.587 76.417 432.016 77.5465 427.608 77.5465C425.531 77.5465 423.563 77.2733 421.705 76.7267C419.883 76.1437 418.899 75.8523 418.754 75.8523C418.316 75.8523 417.77 76.0891 417.114 76.5628C416.458 77.0364 415.875 77.2733 415.365 77.2733C414.017 77.2733 413.288 76.5081 413.179 74.9778L412.742 66.7249C412.742 66.6156 412.742 66.5063 412.742 66.397C412.742 65.814 412.906 65.3039 413.233 64.8667ZM450.51 53.3346C453.425 50.6383 457.215 49.2901 461.879 49.2901C466.324 49.2901 469.949 50.5472 472.755 53.0613C475.56 55.539 476.963 58.8 476.963 62.8445C476.963 67.2533 475.488 70.8058 472.536 73.5021C469.621 76.1984 465.814 77.5465 461.113 77.5465C456.705 77.5465 453.097 76.3077 450.292 73.83C447.486 71.3159 446.083 68.0367 446.083 63.9922C446.083 59.5834 447.559 56.0309 450.51 53.3346ZM457.397 70.0589C458.709 72.2451 460.312 73.3381 462.207 73.3381C463.81 73.3381 465.103 72.6459 466.087 71.2613C467.107 69.8767 467.617 67.8727 467.617 65.2493C467.617 61.7149 466.962 58.8729 465.65 56.7232C464.338 54.5734 462.717 53.4985 460.786 53.4985C459.182 53.4985 457.889 54.1908 456.905 55.5754C455.921 56.96 455.429 58.9276 455.429 61.4781C455.429 65.0124 456.085 67.8727 457.397 70.0589ZM484.563 53.3346C487.478 50.6383 491.267 49.2901 495.931 49.2901C500.376 49.2901 504.002 50.5472 506.807 53.0613C509.613 55.539 511.016 58.8 511.016 62.8445C511.016 67.2533 509.54 70.8058 506.589 73.5021C503.674 76.1984 499.866 77.5465 495.166 77.5465C490.757 77.5465 487.15 76.3077 484.344 73.83C481.539 71.3159 480.136 68.0367 480.136 63.9922C480.136 59.5834 481.611 56.0309 484.563 53.3346ZM491.449 70.0589C492.761 72.2451 494.364 73.3381 496.259 73.3381C497.862 73.3381 499.156 72.6459 500.139 71.2613C501.16 69.8767 501.67 67.8727 501.67 65.2493C501.67 61.7149 501.014 58.8729 499.702 56.7232C498.39 54.5734 496.769 53.4985 494.838 53.4985C493.235 53.4985 491.941 54.1908 490.957 55.5754C489.974 56.96 489.482 58.9276 489.482 61.4781C489.482 65.0124 490.138 67.8727 491.449 70.0589ZM514.298 75.1417C514.298 74.4859 514.607 73.8483 515.227 73.2288L515.882 72.5183C516.575 71.7167 516.921 70.3868 516.921 68.5285V59.2373C516.921 57.4883 516.575 56.213 515.882 55.4114L515.172 54.6463C514.589 54.0269 514.298 53.4257 514.298 52.8427C514.298 51.7496 514.972 51.0573 516.32 50.7658L522.113 49.5087C522.55 49.363 522.969 49.2901 523.37 49.2901C524.026 49.2901 524.536 49.4905 524.9 49.8913C525.301 50.2557 525.502 50.7658 525.502 51.4217V54.1544H525.611C526.485 52.6969 527.743 51.531 529.382 50.6565C531.022 49.7456 532.862 49.2901 534.902 49.2901C538.109 49.2901 540.532 50.201 542.171 52.0229C543.847 53.8082 544.685 56.4863 544.685 60.0571V68.5285C544.685 70.4961 545.032 71.826 545.724 72.5183L546.434 73.2288C547.017 73.8118 547.309 74.413 547.309 75.0324C547.309 76.3441 546.562 77 545.068 77H535.558C534.028 77 533.263 76.3259 533.263 74.9778C533.263 74.3219 533.518 73.7389 534.028 73.2288L534.574 72.6276C535.267 71.8989 535.613 70.5872 535.613 68.6925V60.3304C535.613 56.3588 534.174 54.373 531.295 54.373C529.838 54.373 528.581 54.8649 527.524 55.8487C526.467 56.796 525.939 57.8162 525.939 58.9093V68.6925C525.939 70.5143 526.285 71.826 526.977 72.6276L527.524 73.2288C528.034 73.7389 528.289 74.3401 528.289 75.0324C528.289 76.3441 527.542 77 526.048 77H516.538C515.846 77 515.3 76.836 514.899 76.5081C514.498 76.1802 514.298 75.7247 514.298 75.1417Z" fill="black"/>
<path d="M1 237C51.6031 237 54.9185 135 103.079 135C163.279 135 155.427 237 209.52 237C263.613 237 260.995 135 315.088 135C369.181 135 367.436 237 419.784 237C472.132 237 474.75 135 525.353 135C575.956 135 575.956 237 629.176 237C682.397 237 681.524 135 733 135" stroke="black" stroke-width="8.53978"/>
</svg>
