<svg width="193" height="165" viewBox="0 0 193 165" fill="none" xmlns="http://www.w3.org/2000/svg">
<g filter="url(#filter0_d)">
<path d="M5.53364 22H20.3456V18.472H9.78964V13.656H17.7696V10.184H9.78964V5.928H20.3456V2.4H5.53364V22ZM29.03 22H33.286V14.02L40.258 2.4H35.47L33.426 6.152C32.138 8.476 32.026 9.652 31.97 12.06H30.458C30.43 10.296 30.402 9.4 29.982 8.196C29.786 7.58 29.478 6.908 29.058 6.208L26.846 2.4H21.918L29.03 14.02V22ZM42.9399 22H57.7519V18.472H47.1959V13.656H55.1759V10.184H47.1959V5.928H57.7519V2.4H42.9399V22ZM59.8563 16.4C60.6403 19.788 63.5803 22.448 68.8163 22.448C74.3883 22.448 77.0763 19.704 77.0763 16.26C77.0763 12.788 74.4723 10.772 70.2163 10.184L67.7803 9.848C66.1843 9.624 65.2603 8.896 65.2603 7.748C65.2603 6.404 66.2683 5.34 68.5923 5.34C70.9443 5.34 72.3163 6.572 72.9603 8.56L76.8803 7.188C75.9843 4.304 73.4083 1.952 68.5923 1.952C63.6363 1.952 60.8363 4.668 60.8363 7.916C60.8363 11.416 63.0763 13.236 67.0243 13.796L69.4603 14.132C71.7283 14.468 72.6523 15.28 72.6523 16.54C72.6523 18.08 71.4203 19.06 68.8163 19.06C65.8483 19.06 64.3083 17.1 63.8603 15.056L59.8563 16.4ZM85.8101 16.708C85.8101 20.292 88.4141 22.448 93.2861 22.448C95.4421 22.448 97.3181 21.86 98.8581 20.656C100.51 21.524 102.05 22.084 103.422 22.392L104.57 19.284C103.506 18.976 102.386 18.528 101.182 17.968C101.938 16.736 102.582 15.252 103.114 13.488L99.6421 12.172C99.3061 13.684 98.7741 15.028 98.0181 16.176C97.4301 15.784 96.8421 15.308 96.1981 14.776C94.4061 13.292 93.5941 12.676 92.7821 12.592V11.248C97.2901 11.36 99.4741 8.896 99.4741 6.208C99.4741 4.024 97.4861 1.952 94.1541 1.952C90.8221 1.952 88.5541 3.968 88.5541 7.16C88.5541 8.448 88.8621 9.82 89.4781 11.276C87.0141 12.76 85.8101 14.328 85.8101 16.708ZM92.4461 9.68C92.1381 8.784 91.9981 7.944 91.9981 7.16C91.9981 5.872 92.9221 4.892 94.1541 4.892C95.2461 4.892 95.8901 5.592 95.8901 6.488C95.8901 7.496 95.4141 8.252 93.2021 9.316L92.4461 9.68ZM96.3381 18.752C95.4701 19.116 94.5181 19.256 93.3141 19.256C90.9621 19.256 89.7021 17.912 89.7021 16.232C89.7021 15.42 90.0381 14.692 90.9341 13.992C91.3541 14.58 91.8581 15.168 92.3901 15.756C93.5941 17.1 94.5181 17.408 96.3381 17.52V18.752ZM112.475 22H127.287V18.472H116.731V13.656H124.711V10.184H116.731V5.928H127.287V2.4H112.475V22ZM144.455 22H149.159L141.739 2.4H136.223L128.747 22H133.311L134.935 17.408H142.887L144.455 22ZM136.167 13.88L137.651 9.652C137.847 9.036 137.987 8.392 138.043 7.72C138.127 7.02 138.155 6.04 138.183 4.78H139.695C139.723 7.216 139.807 8.42 140.227 9.624L141.683 13.88H136.167ZM151.686 22H155.942V14.552H159.498C161.962 14.552 162.942 15.392 163.278 17.66L163.866 22H168.402L167.59 17.296C167.002 14.3 165.49 13.712 162.018 13.6V12.144C164.23 12.032 165.882 11.808 167.114 10.464C167.758 9.792 168.066 8.812 168.066 7.552C168.066 4.444 165.546 2.4 161.374 2.4H151.686V22ZM155.942 11.108V5.928H160.562C162.438 5.928 163.642 6.824 163.642 8.504C163.642 10.212 162.438 11.108 160.562 11.108H155.942ZM170.434 16.4C171.218 19.788 174.158 22.448 179.394 22.448C184.966 22.448 187.654 19.704 187.654 16.26C187.654 12.788 185.05 10.772 180.794 10.184L178.358 9.848C176.762 9.624 175.838 8.896 175.838 7.748C175.838 6.404 176.846 5.34 179.17 5.34C181.522 5.34 182.894 6.572 183.538 8.56L187.458 7.188C186.562 4.304 183.986 1.952 179.17 1.952C174.214 1.952 171.414 4.668 171.414 7.916C171.414 11.416 173.654 13.236 177.602 13.796L180.038 14.132C182.306 14.468 183.23 15.28 183.23 16.54C183.23 18.08 181.998 19.06 179.394 19.06C176.426 19.06 174.886 17.1 174.438 15.056L170.434 16.4ZM93.5768 155.168C92.6168 153.312 91.3368 151.424 89.7368 149.504C88.2008 147.52 86.5048 145.632 84.6488 143.84C82.7928 142.048 80.7768 140.416 78.6008 138.944C76.4888 137.408 74.3768 136.16 72.2648 135.2L75.1448 130.592C76.8088 131.424 78.4728 132.448 80.1368 133.664C81.8008 134.88 83.4008 136.192 84.9368 137.6C86.4728 139.008 87.8808 140.48 89.1608 142.016C90.4408 143.488 91.5288 144.896 92.4248 146.24V81.92H97.8968V146.624C98.7928 145.28 99.8488 143.84 101.065 142.304C102.345 140.768 103.753 139.296 105.289 137.888C106.825 136.416 108.425 135.04 110.089 133.76C111.817 132.48 113.545 131.424 115.273 130.592L118.249 135.2C116.137 136.16 113.993 137.408 111.817 138.944C109.705 140.416 107.721 142.048 105.865 143.84C104.009 145.632 102.281 147.52 100.681 149.504C99.1448 151.424 97.8968 153.312 96.9368 155.168H93.5768Z" fill="black"/>
<path d="M5.53364 22H4.53364V23H5.53364V22ZM20.3456 22V23H21.3456V22H20.3456ZM20.3456 18.472H21.3456V17.472H20.3456V18.472ZM9.78964 18.472H8.78964V19.472H9.78964V18.472ZM9.78964 13.656V12.656H8.78964V13.656H9.78964ZM17.7696 13.656V14.656H18.7696V13.656H17.7696ZM17.7696 10.184H18.7696V9.184H17.7696V10.184ZM9.78964 10.184H8.78964V11.184H9.78964V10.184ZM9.78964 5.928V4.928H8.78964V5.928H9.78964ZM20.3456 5.928V6.928H21.3456V5.928H20.3456ZM20.3456 2.4H21.3456V1.4H20.3456V2.4ZM5.53364 2.4V1.4H4.53364V2.4H5.53364ZM5.53364 23H20.3456V21H5.53364V23ZM21.3456 22V18.472H19.3456V22H21.3456ZM20.3456 17.472H9.78964V19.472H20.3456V17.472ZM10.7896 18.472V13.656H8.78964V18.472H10.7896ZM9.78964 14.656H17.7696V12.656H9.78964V14.656ZM18.7696 13.656V10.184H16.7696V13.656H18.7696ZM17.7696 9.184H9.78964V11.184H17.7696V9.184ZM10.7896 10.184V5.928H8.78964V10.184H10.7896ZM9.78964 6.928H20.3456V4.928H9.78964V6.928ZM21.3456 5.928V2.4H19.3456V5.928H21.3456ZM20.3456 1.4H5.53364V3.4H20.3456V1.4ZM4.53364 2.4V22H6.53364V2.4H4.53364ZM29.03 22H28.03V23H29.03V22ZM33.286 22V23H34.286V22H33.286ZM33.286 14.02L32.4285 13.5055L32.286 13.743V14.02H33.286ZM40.258 2.4L41.1155 2.91449L42.0242 1.4H40.258V2.4ZM35.47 2.4V1.4H34.876L34.5919 1.92161L35.47 2.4ZM33.426 6.152L34.3007 6.63676L34.3042 6.63039L33.426 6.152ZM31.97 12.06V13.06H32.947L32.9697 12.0832L31.97 12.06ZM30.458 12.06L29.4581 12.0759L29.4738 13.06H30.458V12.06ZM29.982 8.196L29.0291 8.4992L29.0333 8.51235L29.0378 8.52537L29.982 8.196ZM29.058 6.208L28.1933 6.71029L28.1969 6.71642L28.2005 6.7225L29.058 6.208ZM26.846 2.4L27.7107 1.89771L27.4216 1.4H26.846V2.4ZM21.918 2.4V1.4H20.1335L21.0651 2.92203L21.918 2.4ZM29.03 14.02H30.03V13.7383L29.8829 13.498L29.03 14.02ZM29.03 23H33.286V21H29.03V23ZM34.286 22V14.02H32.286V22H34.286ZM34.1435 14.5345L41.1155 2.91449L39.4005 1.8855L32.4285 13.5055L34.1435 14.5345ZM40.258 1.4H35.47V3.4H40.258V1.4ZM34.5919 1.92161L32.5479 5.67361L34.3042 6.63039L36.3482 2.87839L34.5919 1.92161ZM32.5514 5.66725C31.8772 6.88376 31.4827 7.85071 31.2596 8.85839C31.0402 9.84988 30.9982 10.835 30.9703 12.0368L32.9697 12.0832C32.9978 10.877 33.0398 10.0701 33.2124 9.29061C33.3813 8.52729 33.6869 7.74424 34.3007 6.63675L32.5514 5.66725ZM31.97 11.06H30.458V13.06H31.97V11.06ZM31.4579 12.0441C31.43 10.2888 31.4058 9.2415 30.9262 7.86663L29.0378 8.52537C29.3982 9.5585 29.43 10.3032 29.4581 12.0759L31.4579 12.0441ZM30.9349 7.8928C30.7117 7.19124 30.3686 6.44861 29.9155 5.6935L28.2005 6.7225C28.5875 7.36739 28.8603 7.96876 29.0291 8.4992L30.9349 7.8928ZM29.9227 5.70571L27.7107 1.89771L25.9813 2.90229L28.1933 6.71029L29.9227 5.70571ZM26.846 1.4H21.918V3.4H26.846V1.4ZM21.0651 2.92203L28.1771 14.542L29.8829 13.498L22.7709 1.87797L21.0651 2.92203ZM28.03 14.02V22H30.03V14.02H28.03ZM42.9399 22H41.9399V23H42.9399V22ZM57.7519 22V23H58.7519V22H57.7519ZM57.7519 18.472H58.7519V17.472H57.7519V18.472ZM47.1959 18.472H46.1959V19.472H47.1959V18.472ZM47.1959 13.656V12.656H46.1959V13.656H47.1959ZM55.1759 13.656V14.656H56.1759V13.656H55.1759ZM55.1759 10.184H56.1759V9.184H55.1759V10.184ZM47.1959 10.184H46.1959V11.184H47.1959V10.184ZM47.1959 5.928V4.928H46.1959V5.928H47.1959ZM57.7519 5.928V6.928H58.7519V5.928H57.7519ZM57.7519 2.4H58.7519V1.4H57.7519V2.4ZM42.9399 2.4V1.4H41.9399V2.4H42.9399ZM42.9399 23H57.7519V21H42.9399V23ZM58.7519 22V18.472H56.7519V22H58.7519ZM57.7519 17.472H47.1959V19.472H57.7519V17.472ZM48.1959 18.472V13.656H46.1959V18.472H48.1959ZM47.1959 14.656H55.1759V12.656H47.1959V14.656ZM56.1759 13.656V10.184H54.1759V13.656H56.1759ZM55.1759 9.184H47.1959V11.184H55.1759V9.184ZM48.1959 10.184V5.928H46.1959V10.184H48.1959ZM47.1959 6.928H57.7519V4.928H47.1959V6.928ZM58.7519 5.928V2.4H56.7519V5.928H58.7519ZM57.7519 1.4H42.9399V3.4H57.7519V1.4ZM41.9399 2.4V22H43.9399V2.4H41.9399ZM59.8563 16.4L59.538 15.452L58.6773 15.7409L58.882 16.6254L59.8563 16.4ZM70.2163 10.184L70.3531 9.19341L70.3529 9.19338L70.2163 10.184ZM67.7803 9.848L67.6413 10.8383L67.6436 10.8386L67.7803 9.848ZM72.9603 8.56L72.0089 8.86818L72.3244 9.84203L73.2906 9.50386L72.9603 8.56ZM76.8803 7.188L77.2106 8.13186L78.1216 7.81301L77.8352 6.89131L76.8803 7.188ZM67.0243 13.796L66.8838 14.7861L66.8876 14.7866L67.0243 13.796ZM69.4603 14.132L69.6068 13.1427L69.5969 13.1414L69.4603 14.132ZM63.8603 15.056L64.8371 14.8419L64.5985 13.7534L63.542 14.108L63.8603 15.056ZM58.882 16.6254C59.3245 18.5378 60.383 20.2625 62.0762 21.5015C63.7663 22.7382 66.0282 23.448 68.8163 23.448V21.448C66.3684 21.448 64.5422 20.8278 63.2573 19.8875C61.9755 18.9495 61.172 17.6502 60.8305 16.1746L58.882 16.6254ZM68.8163 23.448C71.7563 23.448 74.0696 22.7243 75.6679 21.4203C77.2854 20.1007 78.0763 18.2609 78.0763 16.26H76.0763C76.0763 17.7031 75.5231 18.9573 74.4036 19.8707C73.2649 20.7997 71.4482 21.448 68.8163 21.448V23.448ZM78.0763 16.26C78.0763 14.2416 77.3048 12.5883 75.8921 11.3804C74.5126 10.2009 72.5907 9.50255 70.3531 9.19341L70.0794 11.1746C72.0978 11.4534 73.6059 12.0571 74.5924 12.9005C75.5457 13.7157 76.0763 14.8064 76.0763 16.26H78.0763ZM70.3529 9.19338L67.9169 8.85738L67.6436 10.8386L70.0796 11.1746L70.3529 9.19338ZM67.9193 8.85771C67.2258 8.76038 66.7945 8.5672 66.5564 8.37166C66.3519 8.20379 66.2603 8.01595 66.2603 7.748H64.2603C64.2603 8.62805 64.6306 9.37821 65.2872 9.91734C65.91 10.4288 66.7387 10.7116 67.6413 10.8383L67.9193 8.85771ZM66.2603 7.748C66.2603 7.34548 66.3997 7.04465 66.6795 6.82087C66.9857 6.57584 67.5682 6.34 68.5923 6.34V4.34C67.2923 4.34 66.2088 4.63616 65.4301 5.25913C64.6248 5.90335 64.2603 6.80652 64.2603 7.748H66.2603ZM68.5923 6.34C69.5862 6.34 70.2909 6.59676 70.8039 6.99468C71.3241 7.39815 71.7318 8.01263 72.0089 8.86818L73.9116 8.25182C73.5447 7.11937 72.9444 6.12385 72.0296 5.41432C71.1077 4.69924 69.9503 4.34 68.5923 4.34V6.34ZM73.2906 9.50386L77.2106 8.13186L76.5499 6.24414L72.6299 7.61614L73.2906 9.50386ZM77.8352 6.89131C77.3281 5.25884 76.3365 3.7566 74.7789 2.66867C73.2229 1.58186 71.165 0.952 68.5923 0.952V2.952C70.8355 2.952 72.4737 3.49813 73.6337 4.30833C74.792 5.1174 75.5365 6.23316 75.9253 7.48469L77.8352 6.89131ZM68.5923 0.952C65.936 0.952 63.7564 1.68074 62.2206 2.9436C60.6752 4.21434 59.8363 5.98636 59.8363 7.916H61.8363C61.8363 6.59764 62.3973 5.38766 63.4909 4.4884C64.5941 3.58126 66.2925 2.952 68.5923 2.952V0.952ZM59.8363 7.916C59.8363 9.90041 60.4824 11.5156 61.7753 12.6968C63.0351 13.8478 64.8053 14.4913 66.8838 14.7861L67.1647 12.8059C65.2952 12.5407 63.9714 11.9942 63.1243 11.2202C62.3101 10.4764 61.8363 9.43159 61.8363 7.916H59.8363ZM66.8876 14.7866L69.3236 15.1226L69.5969 13.1414L67.1609 12.8054L66.8876 14.7866ZM69.3137 15.1212C70.3782 15.2789 70.9755 15.5306 71.2906 15.7771C71.5485 15.9789 71.6523 16.199 71.6523 16.54H73.6523C73.6523 15.621 73.294 14.8051 72.5229 14.2019C71.809 13.6434 70.8104 13.3211 69.6068 13.1428L69.3137 15.1212ZM71.6523 16.54C71.6523 17.0035 71.488 17.3161 71.1425 17.5547C70.7438 17.83 70.0171 18.06 68.8163 18.06V20.06C70.2194 20.06 71.4107 19.8 72.279 19.2003C73.2005 18.5639 73.6523 17.6165 73.6523 16.54H71.6523ZM68.8163 18.06C67.5699 18.06 66.6878 17.6555 66.0696 17.0879C65.4366 16.5067 65.0258 15.7028 64.8371 14.8419L62.8835 15.2701C63.1428 16.4532 63.7259 17.6513 64.717 18.5611C65.7227 19.4845 67.0947 20.06 68.8163 20.06V18.06ZM63.542 14.108L59.538 15.452L60.1745 17.348L64.1785 16.004L63.542 14.108ZM98.8581 20.656L99.3232 19.7708L98.7512 19.4702L98.2422 19.8682L98.8581 20.656ZM103.422 22.392L103.203 23.3677L104.057 23.5594L104.36 22.7385L103.422 22.392ZM104.57 19.284L105.508 19.6305L105.881 18.6223L104.848 18.3234L104.57 19.284ZM101.182 17.968L100.33 17.445L99.7428 18.4015L100.76 18.8747L101.182 17.968ZM103.114 13.488L104.071 13.7767L104.341 12.8836L103.469 12.5529L103.114 13.488ZM99.6421 12.172L99.9965 11.2369L98.9165 10.8275L98.6659 11.9551L99.6421 12.172ZM98.0181 16.176L97.4634 17.008L98.3001 17.5659L98.8532 16.726L98.0181 16.176ZM96.1981 14.776L95.5603 15.5462L95.5612 15.547L96.1981 14.776ZM92.7821 12.592H91.7821V13.4939L92.6792 13.5867L92.7821 12.592ZM92.7821 11.248L92.8069 10.2483L91.7821 10.2228V11.248H92.7821ZM89.4781 11.276L89.994 12.1326L90.737 11.6851L90.399 10.8864L89.4781 11.276ZM92.4461 9.68L91.5004 10.0051L91.8661 11.0691L92.8799 10.581L92.4461 9.68ZM93.2021 9.316L92.7686 8.41483L92.7683 8.415L93.2021 9.316ZM96.3381 18.752L96.7248 19.6742L97.3381 19.417V18.752H96.3381ZM90.9341 13.992L91.7478 13.4108L91.1411 12.5613L90.3184 13.204L90.9341 13.992ZM92.3901 15.756L93.1349 15.0887L93.1316 15.0851L92.3901 15.756ZM96.3381 17.52H97.3381V16.5796L96.3995 16.5219L96.3381 17.52ZM84.8101 16.708C84.8101 18.7657 85.5714 20.5084 87.1044 21.7092C88.6024 22.8826 90.7206 23.448 93.2861 23.448V21.448C90.9796 21.448 89.3598 20.9354 88.3377 20.1348C87.3508 19.3616 86.8101 18.2343 86.8101 16.708H84.8101ZM93.2861 23.448C95.6326 23.448 97.734 22.8042 99.474 21.4438L98.2422 19.8682C96.9022 20.9158 95.2516 21.448 93.2861 21.448V23.448ZM98.393 21.5412C100.114 22.4453 101.736 23.0384 103.203 23.3677L103.641 21.4163C102.364 21.1296 100.907 20.6027 99.3232 19.7708L98.393 21.5412ZM104.36 22.7385L105.508 19.6305L103.632 18.9375L102.484 22.0455L104.36 22.7385ZM104.848 18.3234C103.85 18.0345 102.78 17.6086 101.604 17.0613L100.76 18.8747C101.992 19.4474 103.162 19.9175 104.292 20.2446L104.848 18.3234ZM102.034 18.491C102.845 17.1707 103.52 15.6041 104.071 13.7767L102.157 13.1993C101.644 14.8999 101.032 16.3013 100.33 17.445L102.034 18.491ZM103.469 12.5529L99.9965 11.2369L99.2877 13.1071L102.76 14.4231L103.469 12.5529ZM98.6659 11.9551C98.3509 13.3724 97.8598 14.5982 97.1829 15.626L98.8532 16.726C99.6884 15.4578 100.261 13.9956 100.618 12.3889L98.6659 11.9551ZM98.5728 15.3439C98.0328 14.984 97.481 14.5388 96.835 14.005L95.5612 15.547C96.2031 16.0772 96.8274 16.584 97.4634 17.008L98.5728 15.3439ZM96.8359 14.0058C95.9482 13.2707 95.2557 12.71 94.6747 12.3253C94.0855 11.935 93.5211 11.6631 92.885 11.5973L92.6792 13.5867C92.8551 13.6049 93.1027 13.683 93.5704 13.9927C94.0465 14.308 94.6559 14.7973 95.5603 15.5462L96.8359 14.0058ZM93.7821 12.592V11.248H91.7821V12.592H93.7821ZM92.7572 12.2477C95.1947 12.3082 97.1255 11.6734 98.4642 10.5417C99.8084 9.4052 100.474 7.83295 100.474 6.208H98.4741C98.4741 7.27105 98.0477 8.2748 97.173 9.01434C96.2926 9.7586 94.8775 10.2998 92.8069 10.2483L92.7572 12.2477ZM100.474 6.208C100.474 3.3414 97.8983 0.952 94.1541 0.952V2.952C97.0738 2.952 98.4741 4.7066 98.4741 6.208H100.474ZM94.1541 0.952C92.2885 0.952 90.6306 1.51844 89.4283 2.62239C88.2168 3.73468 87.5541 5.31482 87.5541 7.16H89.5541C89.5541 5.81318 90.0253 4.78932 90.7809 4.09561C91.5455 3.39356 92.6876 2.952 94.1541 2.952V0.952ZM87.5541 7.16C87.5541 8.60859 87.9005 10.1136 88.5571 11.6656L90.399 10.8864C89.8237 9.52637 89.5541 8.28741 89.5541 7.16H87.5541ZM88.9622 10.4194C87.6675 11.1991 86.62 12.0493 85.8993 13.0847C85.1637 14.1417 84.8101 15.3319 84.8101 16.708H86.8101C86.8101 15.7041 87.0585 14.9203 87.5408 14.2273C88.0382 13.5127 88.8246 12.8369 89.994 12.1326L88.9622 10.4194ZM93.3918 9.35492C93.1163 8.55346 92.9981 7.82322 92.9981 7.16H90.9981C90.9981 8.06478 91.1599 9.01454 91.5004 10.0051L93.3918 9.35492ZM92.9981 7.16C92.9981 6.37358 93.5237 5.892 94.1541 5.892V3.892C92.3204 3.892 90.9981 5.37042 90.9981 7.16H92.9981ZM94.1541 5.892C94.4818 5.892 94.6536 5.99295 94.7373 6.07369C94.8214 6.15486 94.8901 6.28537 94.8901 6.488H96.8901C96.8901 5.79463 96.6367 5.12714 96.1259 4.63431C95.6146 4.14105 94.9183 3.892 94.1541 3.892V5.892ZM94.8901 6.488C94.8901 6.79122 94.8338 6.98374 94.6259 7.21918C94.3658 7.51384 93.8413 7.89884 92.7686 8.41483L93.6356 10.2172C94.7748 9.66916 95.5944 9.14416 96.1252 8.54281C96.7084 7.88226 96.8901 7.19278 96.8901 6.488H94.8901ZM92.7683 8.415L92.0123 8.779L92.8799 10.581L93.6359 10.217L92.7683 8.415ZM95.9514 17.8298C95.2489 18.1244 94.4418 18.256 93.3141 18.256V20.256C94.5944 20.256 95.6912 20.1076 96.7248 19.6742L95.9514 17.8298ZM93.3141 18.256C92.3268 18.256 91.6804 17.9762 91.2936 17.6294C90.9132 17.2884 90.7021 16.8115 90.7021 16.232H88.7021C88.7021 17.3325 89.121 18.3676 89.9585 19.1186C90.7898 19.8638 91.9493 20.256 93.3141 20.256V18.256ZM90.7021 16.232C90.7021 15.7741 90.8574 15.3209 91.5497 14.78L90.3184 13.204C89.2188 14.0631 88.7021 15.0659 88.7021 16.232H90.7021ZM90.1203 14.5732C90.5739 15.2082 91.1081 15.8296 91.6485 16.4269L93.1316 15.0851C92.608 14.5064 92.1343 13.9518 91.7478 13.4108L90.1203 14.5732ZM91.6452 16.4232C92.3092 17.1644 92.9557 17.686 93.7417 18.0202C94.5105 18.3472 95.3341 18.4601 96.2767 18.5181L96.3995 16.5219C95.5221 16.4679 94.9736 16.3708 94.5244 16.1798C94.0924 15.996 93.675 15.6916 93.1349 15.0888L91.6452 16.4232ZM95.3381 17.52V18.752H97.3381V17.52H95.3381ZM112.475 22H111.475V23H112.475V22ZM127.287 22V23H128.287V22H127.287ZM127.287 18.472H128.287V17.472H127.287V18.472ZM116.731 18.472H115.731V19.472H116.731V18.472ZM116.731 13.656V12.656H115.731V13.656H116.731ZM124.711 13.656V14.656H125.711V13.656H124.711ZM124.711 10.184H125.711V9.184H124.711V10.184ZM116.731 10.184H115.731V11.184H116.731V10.184ZM116.731 5.928V4.928H115.731V5.928H116.731ZM127.287 5.928V6.928H128.287V5.928H127.287ZM127.287 2.4H128.287V1.4H127.287V2.4ZM112.475 2.4V1.4H111.475V2.4H112.475ZM112.475 23H127.287V21H112.475V23ZM128.287 22V18.472H126.287V22H128.287ZM127.287 17.472H116.731V19.472H127.287V17.472ZM117.731 18.472V13.656H115.731V18.472H117.731ZM116.731 14.656H124.711V12.656H116.731V14.656ZM125.711 13.656V10.184H123.711V13.656H125.711ZM124.711 9.184H116.731V11.184H124.711V9.184ZM117.731 10.184V5.928H115.731V10.184H117.731ZM116.731 6.928H127.287V4.928H116.731V6.928ZM128.287 5.928V2.4H126.287V5.928H128.287ZM127.287 1.4H112.475V3.4H127.287V1.4ZM111.475 2.4V22H113.475V2.4H111.475ZM144.455 22L143.509 22.3231L143.74 23H144.455V22ZM149.159 22V23H150.607L150.095 21.646L149.159 22ZM141.739 2.4L142.675 2.04595L142.43 1.4H141.739V2.4ZM136.223 2.4V1.4H135.535L135.289 2.04361L136.223 2.4ZM128.747 22L127.813 21.6436L127.296 23H128.747V22ZM133.311 22V23H134.018L134.254 22.3334L133.311 22ZM134.935 17.408V16.408H134.228L133.993 17.0746L134.935 17.408ZM142.887 17.408L143.834 17.0849L143.603 16.408H142.887V17.408ZM136.167 13.88L135.224 13.5488L134.757 14.88H136.167V13.88ZM137.651 9.652L138.595 9.98318L138.6 9.96926L138.604 9.9552L137.651 9.652ZM138.043 7.72L137.051 7.60085L137.048 7.61887L137.047 7.63695L138.043 7.72ZM138.183 4.78V3.78H137.205L137.184 4.75778L138.183 4.78ZM139.695 4.78L140.695 4.76851L140.684 3.78H139.695V4.78ZM140.227 9.624L141.174 9.30031L141.172 9.29463L140.227 9.624ZM141.683 13.88V14.88H143.082L142.63 13.5563L141.683 13.88ZM144.455 23H149.159V21H144.455V23ZM150.095 21.646L142.675 2.04595L140.804 2.75405L148.224 22.354L150.095 21.646ZM141.739 1.4H136.223V3.4H141.739V1.4ZM135.289 2.04361L127.813 21.6436L129.682 22.3564L137.158 2.75638L135.289 2.04361ZM128.747 23H133.311V21H128.747V23ZM134.254 22.3334L135.878 17.7414L133.993 17.0746L132.369 21.6666L134.254 22.3334ZM134.935 18.408H142.887V16.408H134.935V18.408ZM141.941 17.7311L143.509 22.3231L145.402 21.6769L143.834 17.0849L141.941 17.7311ZM137.111 14.2112L138.595 9.98318L136.708 9.32081L135.224 13.5488L137.111 14.2112ZM138.604 9.9552C138.82 9.27836 138.977 8.56023 139.04 7.80304L137.047 7.63695C136.998 8.22377 136.875 8.79364 136.699 9.3488L138.604 9.9552ZM139.036 7.83914C139.127 7.08054 139.156 6.04651 139.183 4.80222L137.184 4.75778C137.155 6.03348 137.128 6.95946 137.051 7.60085L139.036 7.83914ZM138.183 5.78H139.695V3.78H138.183V5.78ZM138.695 4.79149C138.723 7.21706 138.803 8.57553 139.283 9.95337L141.172 9.29463C140.812 8.26447 140.723 7.21494 140.695 4.76851L138.695 4.79149ZM139.281 9.94769L140.737 14.2037L142.63 13.5563L141.174 9.30031L139.281 9.94769ZM141.683 12.88H136.167V14.88H141.683V12.88ZM151.686 22H150.686V23H151.686V22ZM155.942 22V23H156.942V22H155.942ZM155.942 14.552V13.552H154.942V14.552H155.942ZM163.278 17.66L164.269 17.5257L164.267 17.5135L163.278 17.66ZM163.866 22L162.875 22.1343L162.992 23H163.866V22ZM168.402 22V23H169.589L169.387 21.8299L168.402 22ZM167.59 17.296L168.575 17.1259L168.573 17.1146L168.571 17.1034L167.59 17.296ZM162.018 13.6H161.018V14.5683L161.986 14.5995L162.018 13.6ZM162.018 12.144L161.967 11.1453L161.018 11.1934V12.144H162.018ZM167.114 10.464L166.392 9.77209L166.384 9.7801L166.377 9.78827L167.114 10.464ZM151.686 2.4V1.4H150.686V2.4H151.686ZM155.942 11.108H154.942V12.108H155.942V11.108ZM155.942 5.928V4.928H154.942V5.928H155.942ZM151.686 23H155.942V21H151.686V23ZM156.942 22V14.552H154.942V22H156.942ZM155.942 15.552H159.498V13.552H155.942V15.552ZM159.498 15.552C160.648 15.552 161.221 15.7546 161.548 16.0252C161.863 16.2872 162.135 16.7699 162.289 17.8065L164.267 17.5135C164.085 16.2821 163.699 15.2108 162.824 14.4858C161.961 13.7694 160.812 13.552 159.498 13.552V15.552ZM162.287 17.7943L162.875 22.1343L164.857 21.8657L164.269 17.5257L162.287 17.7943ZM163.866 23H168.402V21H163.866V23ZM169.387 21.8299L168.575 17.1259L166.605 17.4661L167.417 22.1701L169.387 21.8299ZM168.571 17.1034C168.248 15.4581 167.623 14.2486 166.403 13.5108C165.271 12.8264 163.782 12.6564 162.05 12.6005L161.986 14.5995C163.726 14.6556 164.729 14.8356 165.368 15.2222C165.919 15.5554 166.344 16.1379 166.609 17.4886L168.571 17.1034ZM163.018 13.6V12.144H161.018V13.6H163.018ZM162.069 13.1427C164.259 13.0318 166.314 12.8165 167.851 11.1397L166.377 9.78827C165.45 10.7995 164.201 11.0322 161.967 11.1453L162.069 13.1427ZM167.836 11.1559C168.721 10.2324 169.066 8.96232 169.066 7.552H167.066C167.066 8.66168 166.795 9.35162 166.392 9.77209L167.836 11.1559ZM169.066 7.552C169.066 5.70021 168.302 4.11756 166.9 3.02244C165.524 1.94716 163.611 1.4 161.374 1.4V3.4C163.309 3.4 164.742 3.87484 165.669 4.59856C166.57 5.30244 167.066 6.29579 167.066 7.552H169.066ZM161.374 1.4H151.686V3.4H161.374V1.4ZM150.686 2.4V22H152.686V2.4H150.686ZM156.942 11.108V5.928H154.942V11.108H156.942ZM155.942 6.928H160.562V4.928H155.942V6.928ZM160.562 6.928C161.356 6.928 161.875 7.119 162.176 7.36289C162.447 7.58261 162.642 7.92453 162.642 8.504H164.642C164.642 7.40346 164.235 6.45739 163.435 5.80911C162.665 5.185 161.644 4.928 160.562 4.928V6.928ZM162.642 8.504C162.642 9.10279 162.443 9.45125 162.173 9.67209C161.873 9.91697 161.356 10.108 160.562 10.108V12.108C161.644 12.108 162.667 11.851 163.438 11.2209C164.239 10.5668 164.642 9.61321 164.642 8.504H162.642ZM160.562 10.108H155.942V12.108H160.562V10.108ZM170.434 16.4L170.116 15.452L169.255 15.7409L169.46 16.6254L170.434 16.4ZM180.794 10.184L180.931 9.19341L180.931 9.19338L180.794 10.184ZM178.358 9.848L178.219 10.8383L178.222 10.8386L178.358 9.848ZM183.538 8.56L182.587 8.86818L182.903 9.84203L183.869 9.50386L183.538 8.56ZM187.458 7.188L187.789 8.13186L188.7 7.81301L188.413 6.89131L187.458 7.188ZM177.602 13.796L177.462 14.7861L177.466 14.7866L177.602 13.796ZM180.038 14.132L180.185 13.1427L180.175 13.1414L180.038 14.132ZM174.438 15.056L175.415 14.8419L175.177 13.7534L174.12 14.108L174.438 15.056ZM169.46 16.6254C169.903 18.5378 170.961 20.2625 172.654 21.5015C174.344 22.7382 176.606 23.448 179.394 23.448V21.448C176.947 21.448 175.12 20.8278 173.835 19.8875C172.554 18.9495 171.75 17.6502 171.409 16.1746L169.46 16.6254ZM179.394 23.448C182.334 23.448 184.648 22.7243 186.246 21.4203C187.864 20.1007 188.654 18.2609 188.654 16.26H186.654C186.654 17.7031 186.101 18.9573 184.982 19.8707C183.843 20.7997 182.026 21.448 179.394 21.448V23.448ZM188.654 16.26C188.654 14.2416 187.883 12.5883 186.47 11.3804C185.091 10.2009 183.169 9.50255 180.931 9.19341L180.658 11.1746C182.676 11.4534 184.184 12.0571 185.171 12.9005C186.124 13.7157 186.654 14.8064 186.654 16.26H188.654ZM180.931 9.19338L178.495 8.85738L178.222 10.8386L180.658 11.1746L180.931 9.19338ZM178.497 8.85771C177.804 8.76038 177.373 8.5672 177.134 8.37166C176.93 8.20379 176.838 8.01595 176.838 7.748H174.838C174.838 8.62805 175.209 9.37821 175.865 9.91734C176.488 10.4288 177.317 10.7116 178.219 10.8383L178.497 8.85771ZM176.838 7.748C176.838 7.34548 176.978 7.04465 177.258 6.82087C177.564 6.57584 178.146 6.34 179.17 6.34V4.34C177.87 4.34 176.787 4.63616 176.008 5.25913C175.203 5.90335 174.838 6.80652 174.838 7.748H176.838ZM179.17 6.34C180.164 6.34 180.869 6.59676 181.382 6.99468C181.902 7.39815 182.31 8.01263 182.587 8.86818L184.49 8.25182C184.123 7.11937 183.523 6.12385 182.608 5.41432C181.686 4.69924 180.528 4.34 179.17 4.34V6.34ZM183.869 9.50386L187.789 8.13186L187.128 6.24414L183.208 7.61614L183.869 9.50386ZM188.413 6.89131C187.906 5.25884 186.915 3.7566 185.357 2.66867C183.801 1.58186 181.743 0.952 179.17 0.952V2.952C181.414 2.952 183.052 3.49813 184.212 4.30833C185.37 5.1174 186.115 6.23316 186.503 7.48469L188.413 6.89131ZM179.17 0.952C176.514 0.952 174.335 1.68074 172.799 2.9436C171.253 4.21434 170.414 5.98636 170.414 7.916H172.414C172.414 6.59764 172.975 5.38766 174.069 4.4884C175.172 3.58126 176.871 2.952 179.17 2.952V0.952ZM170.414 7.916C170.414 9.90041 171.061 11.5156 172.353 12.6968C173.613 13.8478 175.383 14.4913 177.462 14.7861L177.743 12.8059C175.873 12.5407 174.55 11.9942 173.702 11.2202C172.888 10.4764 172.414 9.43159 172.414 7.916H170.414ZM177.466 14.7866L179.902 15.1226L180.175 13.1414L177.739 12.8054L177.466 14.7866ZM179.892 15.1212C180.956 15.2789 181.554 15.5306 181.869 15.7771C182.127 15.9789 182.23 16.199 182.23 16.54H184.23C184.23 15.621 183.872 14.8051 183.101 14.2019C182.387 13.6434 181.388 13.3211 180.185 13.1428L179.892 15.1212ZM182.23 16.54C182.23 17.0035 182.066 17.3161 181.721 17.5547C181.322 17.83 180.595 18.06 179.394 18.06V20.06C180.798 20.06 181.989 19.8 182.857 19.2003C183.779 18.5639 184.23 17.6165 184.23 16.54H182.23ZM179.394 18.06C178.148 18.06 177.266 17.6555 176.648 17.0879C176.015 16.5067 175.604 15.7028 175.415 14.8419L173.462 15.2701C173.721 16.4532 174.304 17.6513 175.295 18.5611C176.301 19.4845 177.673 20.06 179.394 20.06V18.06ZM174.12 14.108L170.116 15.452L170.753 17.348L174.757 16.004L174.12 14.108ZM93.5768 155.168L92.6885 155.627L92.9681 156.168H93.5768V155.168ZM89.7368 149.504L88.946 150.116L88.957 150.13L88.9685 150.144L89.7368 149.504ZM84.6488 143.84L83.9542 144.559L84.6488 143.84ZM78.6008 138.944L78.0126 139.753L78.0263 139.763L78.0404 139.772L78.6008 138.944ZM72.2647 135.2L71.4168 134.67L70.8118 135.638L71.8509 136.11L72.2647 135.2ZM75.1448 130.592L75.592 129.698L74.7787 129.291L74.2968 130.062L75.1448 130.592ZM80.1367 133.664L80.7268 132.857L80.1367 133.664ZM84.9368 137.6L84.261 138.337L84.9368 137.6ZM89.1608 142.016L88.3925 142.656L88.3993 142.664L88.4061 142.672L89.1608 142.016ZM92.4248 146.24L91.5927 146.795L93.4248 149.543V146.24H92.4248ZM92.4248 81.92V80.92H91.4248V81.92H92.4248ZM97.8968 81.92H98.8968V80.92H97.8968V81.92ZM97.8968 146.624H96.8968V149.927L98.7288 147.179L97.8968 146.624ZM101.065 142.304L100.297 141.664L100.288 141.673L100.281 141.683L101.065 142.304ZM105.289 137.888L105.964 138.625L105.973 138.618L105.981 138.61L105.289 137.888ZM110.089 133.76L109.494 132.956L109.486 132.962L109.479 132.967L110.089 133.76ZM115.273 130.592L116.113 130.049L115.634 129.308L114.839 129.691L115.273 130.592ZM118.249 135.2L118.663 136.11L119.717 135.631L119.089 134.657L118.249 135.2ZM111.817 138.944L112.389 139.764L112.393 139.761L111.817 138.944ZM105.865 143.84L105.17 143.121L105.865 143.84ZM100.681 149.504L99.9023 148.876L99.8999 148.879L100.681 149.504ZM96.9368 155.168V156.168H97.5454L97.825 155.627L96.9368 155.168ZM94.465 154.709C93.4659 152.777 92.1427 150.829 90.505 148.864L88.9685 150.144C90.5308 152.019 91.7676 153.847 92.6885 155.627L94.465 154.709ZM90.5275 148.892C88.9612 146.869 87.2329 144.945 85.3433 143.121L83.9542 144.559C85.7766 146.319 87.4403 148.171 88.946 150.116L90.5275 148.892ZM85.3433 143.121C83.4451 141.288 81.384 139.619 79.1611 138.116L78.0404 139.772C80.1695 141.213 82.1404 142.808 83.9542 144.559L85.3433 143.121ZM79.1889 138.135C77.0291 136.564 74.8591 135.281 72.6786 134.29L71.8509 136.11C73.8944 137.039 75.9484 138.252 78.0126 139.753L79.1889 138.135ZM73.1127 135.73L75.9928 131.122L74.2968 130.062L71.4168 134.67L73.1127 135.73ZM74.6975 131.486C76.3066 132.291 77.9231 133.285 79.5467 134.471L80.7268 132.857C79.0224 131.611 77.3109 130.557 75.592 129.698L74.6975 131.486ZM79.5467 134.471C81.1806 135.665 82.752 136.954 84.261 138.337L85.6125 136.863C84.0495 135.43 82.4209 134.095 80.7268 132.857L79.5467 134.471ZM84.261 138.337C85.7654 139.716 87.1423 141.156 88.3925 142.656L89.929 141.376C88.6192 139.804 87.1801 138.3 85.6125 136.863L84.261 138.337ZM88.4061 142.672C89.6637 144.118 90.7246 145.493 91.5927 146.795L93.2568 145.685C92.3329 144.299 91.2178 142.858 89.9154 141.36L88.4061 142.672ZM93.4248 146.24V81.92H91.4248V146.24H93.4248ZM92.4248 82.92H97.8968V80.92H92.4248V82.92ZM96.8968 81.92V146.624H98.8968V81.92H96.8968ZM98.7288 147.179C99.6069 145.861 100.646 144.444 101.849 142.925L100.281 141.683C99.0512 143.236 97.9786 144.699 97.0647 146.069L98.7288 147.179ZM101.833 142.944C103.083 141.444 104.46 140.004 105.964 138.625L104.613 137.151C103.045 138.588 101.606 140.092 100.297 141.664L101.833 142.944ZM105.981 138.61C107.491 137.163 109.063 135.81 110.698 134.553L109.479 132.967C107.786 134.27 106.159 135.669 104.597 137.166L105.981 138.61ZM110.684 134.564C112.367 133.317 114.042 132.295 115.707 131.493L114.839 129.691C113.048 130.553 111.266 131.643 109.494 132.956L110.684 134.564ZM114.433 131.135L117.409 135.743L119.089 134.657L116.113 130.049L114.433 131.135ZM117.835 134.29C115.658 135.279 113.46 136.56 111.24 138.127L112.393 139.761C114.526 138.256 116.615 137.041 118.663 136.11L117.835 134.29ZM111.245 138.124C109.089 139.626 107.064 141.292 105.17 143.121L106.559 144.559C108.377 142.804 110.32 141.206 112.389 139.764L111.245 138.124ZM105.17 143.121C103.285 144.941 101.529 146.86 99.9023 148.876L101.459 150.132C103.033 148.18 104.733 146.323 106.559 144.559L105.17 143.121ZM99.8999 148.879C98.3297 150.842 97.0435 152.785 96.0485 154.709L97.825 155.627C98.75 153.839 99.9598 152.006 101.462 150.129L99.8999 148.879ZM96.9368 154.168H93.5768V156.168H96.9368V154.168Z" fill="black"/>
</g>
<defs>
<filter id="filter0_d" x="0.53363" y="0.952026" width="192.166" height="163.216" filterUnits="userSpaceOnUse" color-interpolation-filters="sRGB">
<feFlood flood-opacity="0" result="BackgroundImageFix"/>
<feColorMatrix in="SourceAlpha" type="matrix" values="0 0 0 0 0 0 0 0 0 0 0 0 0 0 0 0 0 0 127 0"/>
<feOffset dy="4"/>
<feGaussianBlur stdDeviation="2"/>
<feColorMatrix type="matrix" values="0 0 0 0 0 0 0 0 0 0 0 0 0 0 0 0 0 0 0.25 0"/>
<feBlend mode="normal" in2="BackgroundImageFix" result="effect1_dropShadow"/>
<feBlend mode="normal" in="SourceGraphic" in2="effect1_dropShadow" result="shape"/>
</filter>
</defs>
</svg>
