<svg width="418" height="719" viewBox="0 0 418 719" fill="none" xmlns="http://www.w3.org/2000/svg">
<rect x="2.17803" y="2.17803" width="413.644" height="714.644" fill="#C18C5D" stroke="black" stroke-width="4.35607"/>
<mask id="mask0" mask-type="alpha" maskUnits="userSpaceOnUse" x="0" y="0" width="418" height="719">
<rect x="2.17803" y="2.17803" width="413.644" height="714.644" fill="#DB9A4E" stroke="black" stroke-width="4.35607"/>
</mask>
<g mask="url(#mask0)">
<path d="M80.4975 383.968L85.2666 385.529L90.089 370.798L99.9983 374.042C107.735 376.574 113.731 373.491 115.899 366.868C118.068 360.244 115.055 354.212 107.372 351.697L92.6402 346.874L80.4975 383.968ZM91.4767 366.558L95.9349 352.94L104.996 355.906C110.348 357.658 112.201 361.139 110.865 365.22C109.547 369.247 105.837 371.259 100.538 369.525L91.4767 366.558ZM114.548 395.115L119.317 396.676L124.4 381.149L132.242 383.717C137.436 385.417 139.301 387.963 138.57 393.063L137.228 402.539L142.474 404.256L143.637 394.252C144.225 388.871 143.118 386.338 138.013 384.55L138.707 382.43C143.633 383.691 148.741 382.781 150.615 377.059C152.488 371.336 149.53 365.498 142.058 363.052L126.691 358.021L114.548 395.115ZM125.857 376.698L129.985 364.086L139.948 367.348C144.452 368.822 146.726 371.913 145.355 376.099C143.985 380.286 140.323 381.434 135.819 379.959L125.857 376.698ZM154.089 387.524C150.165 398.795 155.884 409.643 166.163 412.832C176.338 416.339 187.206 410.92 190.759 399.528C194.63 388.24 189.07 377.444 178.791 374.255C168.616 370.748 157.589 376.115 154.089 387.524ZM185.672 397.863C182.879 406.394 175.745 410.982 167.584 408.311C159.424 405.639 156.384 397.721 159.176 389.19C161.969 380.658 169.103 376.07 177.264 378.742C185.371 381.396 188.465 389.331 185.672 397.863ZM192.896 420.762L205.348 424.838C216.476 428.481 225.566 423.654 229.365 412.049C232.956 401.08 228.407 391.318 217.862 387.866L205.038 383.668L192.896 420.762ZM199.139 417.819L208.333 389.734L215.54 392.093C224.389 394.99 227.107 401.922 224.331 410.401C221.243 419.833 215.142 423.058 205.975 420.057L199.139 417.819ZM235.757 418.952C232.444 429.073 235.971 435.684 244.873 438.598C254.147 441.634 260.668 437.843 263.842 428.146L271.301 405.36L266.532 403.799L259.299 425.896C257.009 432.891 252.565 436.071 246.365 434.041C240.165 432.012 238.445 426.872 240.752 419.825L247.986 397.727L243.216 396.166L235.757 418.952ZM273.026 426.048C269.328 436.806 273.215 448.052 284.554 451.588C293.456 454.502 300.703 451.184 304.411 445.592L300.178 442.212C296.818 446.92 292.652 449.252 286.028 447.084C278.345 444.569 275.269 436.58 278.183 427.678C281.063 418.881 288.024 415 295.708 417.515C298.993 418.591 301.206 420.254 302.417 422.469C303.628 424.684 304.24 426.938 304.235 429.283L309.718 429.2C309.88 423.328 306.297 415.995 297.182 413.011C286.742 409.417 276.353 415.345 273.026 426.048ZM308.399 458.572L334.258 467.038L335.733 462.533L314.642 455.629L318.736 443.124L334.315 448.224L335.772 443.772L320.193 438.672L323.836 427.544L344.926 434.448L346.401 429.944L320.541 421.479L308.399 458.572ZM342.346 469.685L347.115 471.246L352.198 455.72L360.04 458.287C365.233 459.987 367.098 462.534 366.368 467.634L365.026 477.11L370.272 478.827L371.435 468.823C372.023 463.442 370.916 460.909 365.81 459.12L366.504 457.001C371.431 458.261 376.539 457.352 378.412 451.629C380.286 445.906 377.327 440.068 369.856 437.622L354.488 432.592L342.346 469.685ZM353.655 451.269L357.783 438.657L367.745 441.918C372.25 443.393 374.523 446.484 373.153 450.67C371.782 454.856 368.121 456.005 363.617 454.53L353.655 451.269ZM378.021 471.038C377.897 477.51 381.773 483.413 389.456 485.928C397.882 488.687 404.231 485.778 406.382 479.207C408.134 473.855 405.357 468.898 399.626 465.438L394.831 462.519C390.886 460.054 389.57 457.98 390.594 454.854C391.704 451.463 395.276 450.05 399.78 451.525C402.429 452.392 404.235 453.687 405.179 455.463C406.193 457.203 406.679 458.946 406.724 460.78L412.01 460.046C412.11 455.796 409.291 449.71 401.82 447.264C394.348 444.819 387.768 447.534 385.791 453.575C383.865 459.457 386.32 463.429 391.786 466.802L396.386 469.599C400.702 472.185 402.303 474.821 401.263 478.001C400.048 481.71 396.318 483.247 391.231 481.581C385.773 479.795 383.494 475.646 383.43 470.286L378.021 471.038Z" fill="black"/>
<path d="M60.5192 650.317L75.2836 640.907C81.1611 637.161 84.0821 631.266 80.2763 625.295C77.0998 620.311 71.8869 620.327 67.5822 622.806L66.4135 620.972C70.2304 618.143 71.6132 614.088 68.8263 609.715C66.0094 605.295 60.4193 604.097 53.6484 608.413L39.5423 617.403L60.5192 650.317ZM52.6144 628.577L46.3213 618.702L55.8194 612.649C59.628 610.222 63.0108 610.446 64.9287 613.455C66.8766 616.512 65.8271 620.156 62.1125 622.523L52.6144 628.577ZM62.2039 643.623L55.1316 632.526L65.0529 626.203C69.2377 623.536 73.0483 624.017 75.2059 627.402C77.3636 630.788 76.2629 634.663 72.1251 637.3L62.2039 643.623ZM114.932 615.638L119.681 612.612L86.6668 587.369L80.6952 591.175L89.3529 631.941L93.9138 629.034L91.4474 618.109L106.118 608.759L114.932 615.638ZM90.3108 613.213L87.7628 601.746C87.3381 599.835 86.9052 598.325 86.4511 597.094C85.9969 595.863 85.4059 594.52 84.5838 593.127L86.4646 591.928C87.3337 593.292 88.2239 594.377 89.0883 595.215C89.9527 596.052 91.215 597.099 92.935 598.449L102.16 605.662L90.3108 613.213ZM111.249 594.381C117.221 604.063 128.381 608.191 138.307 601.667C146.206 596.632 148.236 588.925 146.265 582.511L140.967 583.64C142.476 589.224 141.637 593.924 135.76 597.67C128.942 602.015 120.815 599.327 115.78 591.427C110.806 583.622 112.22 575.778 119.038 571.433C121.953 569.575 124.643 568.919 127.123 569.387C129.604 569.856 131.734 570.813 133.544 572.304L136.958 568.012C132.521 564.162 124.578 562.282 116.491 567.436C107.091 573.228 105.085 585.02 111.249 594.381ZM180.6 573.786L186.243 570.19L158.187 561.028L162.774 538.864L157.037 542.52L151.975 569.021L149.772 568.573C150.151 565.951 149.637 563.899 147.359 560.326L142.085 552.05L137.853 554.747L158.83 587.661L163.062 584.964L155.63 573.303L157.19 565.895L180.6 573.786ZM174.81 556.782L187.787 548.511L185.09 544.279L172.113 552.55L174.81 556.782ZM205.437 557.957L228.383 543.334L225.835 539.337L207.121 551.264L200.049 540.167L213.873 531.357L211.356 527.407L197.532 536.217L191.239 526.343L209.953 514.416L207.406 510.419L184.46 525.043L205.437 557.957ZM235.559 538.76L239.791 536.063L227.774 517.208C225.047 512.929 223.156 510.895 220.191 509.148L221.13 507.094L258.27 524.286L263.583 520.899L242.606 487.985L238.374 490.682L250.091 509.067C252.669 513.111 254.124 514.564 257.435 516.024L256.478 518.155L221.024 501.74L214.582 505.846L235.559 538.76ZM273.258 514.734L284.308 507.691C294.182 501.398 296.215 491.309 289.652 481.011C283.449 471.278 273.017 468.604 263.66 474.567L252.281 481.819L273.258 514.734ZM274.942 508.04L259.06 483.119L265.455 479.044C273.307 474.039 280.39 476.335 285.185 483.858C290.519 492.228 289.143 498.99 281.008 504.174L274.942 508.04Z" fill="black"/>
<path d="M44.1401 704.416L49.3791 702.351L21.7845 671.276L15.1968 673.873L15.9217 715.541L20.9533 713.558L20.6155 702.363L36.7995 695.983L44.1401 704.416ZM20.4333 697.341L20.1189 685.598C20.0665 683.64 19.9293 682.076 19.7183 680.781C19.5073 679.486 19.1831 678.055 18.6419 676.53L20.7168 675.712C21.3098 677.217 21.9767 678.452 22.6655 679.439C23.3543 680.426 24.3938 681.695 25.8248 683.348L33.505 692.187L20.4333 697.341ZM55.7407 699.843L60.4092 698.002L54.4172 682.804L62.0942 679.777C67.1777 677.773 70.2387 678.544 72.9296 682.937L77.9419 691.09L83.0772 689.065L77.5901 680.62C74.6098 676.101 72.1414 674.857 67.0689 676.737L66.2509 674.662C70.8485 672.49 74.2022 668.531 71.9936 662.928C69.7849 657.326 63.7821 654.718 56.4682 657.602L41.4254 663.532L55.7407 699.843ZM52.6993 678.446L47.8321 666.101L57.584 662.256C61.9931 660.518 65.716 661.448 67.3316 665.545C68.9472 669.643 66.8604 672.863 62.4513 674.602L52.6993 678.446ZM97.9243 683.212L102.593 681.371L90.0157 649.47L103.451 644.173L101.712 639.764L70.6929 651.994L72.4311 656.403L85.3473 651.311L97.9243 683.212ZM131.472 669.986L143.662 665.18C154.555 660.885 158.474 651.369 153.996 640.009C149.762 629.271 140.032 624.657 129.709 628.726L117.156 633.675L131.472 669.986ZM134.402 663.736L123.563 636.244L130.618 633.463C139.28 630.047 145.796 633.652 149.068 641.951C152.708 651.185 150.067 657.56 141.093 661.098L134.402 663.736ZM169.362 655.047L174.031 653.207L159.716 616.896L155.047 618.737L169.362 655.047ZM184.711 648.996L189.38 647.155L183.388 631.957L191.065 628.93C196.148 626.926 199.209 627.697 201.9 632.09L206.912 640.243L212.048 638.219L206.561 629.773C203.58 625.255 201.112 624.01 196.039 625.89L195.221 623.815C199.819 621.643 203.173 617.684 200.964 612.082C198.755 606.479 192.753 603.871 185.439 606.755L170.396 612.686L184.711 648.996ZM181.67 627.6L176.803 615.254L186.555 611.41C190.964 609.671 194.687 610.601 196.302 614.699C197.918 618.797 195.831 622.017 191.422 623.755L181.67 627.6ZM220.12 635.036L245.433 625.056L243.695 620.647L223.05 628.786L218.224 616.545L233.474 610.532L231.756 606.175L216.506 612.187L212.211 601.294L232.856 593.155L231.118 588.746L205.805 598.726L220.12 635.036ZM241.277 605.298C245.293 615.942 255.461 622.122 266.448 617.61C275.163 614.175 278.626 606.996 277.913 600.324L272.498 600.421C272.914 606.191 271.194 610.645 264.71 613.201C257.189 616.166 249.723 611.977 246.288 603.263C242.893 594.652 245.777 587.222 253.299 584.257C256.515 582.989 259.28 582.857 261.626 583.791C263.971 584.724 265.88 586.069 267.372 587.878L271.542 584.316C267.92 579.691 260.482 576.33 251.56 579.847C241.228 583.741 237.01 594.934 241.277 605.298ZM296.648 604.865L301.317 603.024L288.74 571.123L302.175 565.826L300.436 561.417L269.417 573.647L271.155 578.056L284.071 572.963L296.648 604.865ZM307.779 579.499C311.948 590.682 323.273 595.387 333.223 591.284C343.295 587.493 348.207 576.387 343.675 565.348C339.454 554.186 328.285 549.419 318.335 553.522C308.262 557.313 303.195 568.481 307.779 579.499ZM338.695 567.311C341.987 575.662 339.421 583.746 331.433 586.896C323.444 590.045 316.051 585.887 312.759 577.536C309.466 569.185 312.033 561.101 320.021 557.951C327.958 554.822 335.402 558.959 338.695 567.311ZM358.867 580.335L363.536 578.494L357.544 563.296L365.221 560.269C370.304 558.265 373.365 559.036 376.056 563.429L381.068 571.582L386.204 569.558L380.717 561.112C377.736 556.594 375.268 555.349 370.195 557.229L369.377 555.154C373.975 552.982 377.329 549.023 375.12 543.421C372.911 537.818 366.909 535.21 359.595 538.094L344.552 544.025L358.867 580.335ZM355.826 558.939L350.959 546.593L360.71 542.748C365.12 541.01 368.842 541.94 370.458 546.038C372.074 550.136 369.987 553.356 365.578 555.094L355.826 558.939ZM387.201 558.616C391.235 563.678 397.986 565.752 405.507 562.786C413.755 559.535 416.789 553.244 414.253 546.812C412.187 541.573 406.886 539.527 400.265 540.52L394.711 541.331C390.1 541.95 387.764 541.193 386.557 538.132C385.248 534.812 387.098 531.446 391.507 529.708C394.101 528.685 396.317 528.531 398.177 529.296C400.068 529.989 401.554 531.021 402.759 532.404L406.361 528.467C403.727 525.13 397.674 522.242 390.36 525.126C383.046 528.009 379.712 534.298 382.043 540.212C384.313 545.969 388.737 547.462 395.099 546.572L400.425 545.791C405.399 545.028 408.313 546.037 409.54 549.149C410.972 552.78 409.08 556.343 404.1 558.306C398.758 560.413 394.355 558.672 390.886 554.586L387.201 558.616Z" fill="black"/>
<path d="M217.003 -31.2718C206.516 -26.8638 200.717 -16.4737 205.633 -5.6611C209.389 2.92008 216.691 6.11452 223.332 5.15541L223.034 -0.252923C217.284 0.37716 212.769 -1.17679 209.974 -7.56159C206.732 -14.968 210.642 -22.5833 219.223 -26.3395C227.702 -30.0511 235.234 -27.4441 238.476 -20.0378C239.862 -16.8709 240.096 -14.1125 239.25 -11.7338C238.405 -9.35506 237.131 -7.3977 235.379 -5.83933L239.093 -1.80452C243.581 -5.59511 246.663 -13.1528 242.818 -21.9383C238.544 -32.1189 227.203 -35.9191 217.003 -31.2718ZM216.306 16.7761L218.319 21.3732L233.284 14.8221L236.594 22.3817C238.785 27.3874 238.128 30.4748 233.837 33.3267L225.876 38.6377L228.089 43.6945L236.325 37.8981C240.731 34.7525 241.883 32.2396 239.816 27.2403L241.859 26.346C244.2 30.8599 248.281 34.0646 253.798 31.6498C259.314 29.2351 261.698 23.1398 258.545 15.9378L252.061 1.12501L216.306 16.7761ZM237.575 12.9439L249.732 7.62256L253.935 17.2253C255.836 21.567 255.045 25.3217 251.009 27.0881C246.974 28.8544 243.679 26.8884 241.779 22.5467L237.575 12.9439ZM231.569 51.6431L242.48 76.5694L246.821 74.6689L237.923 54.3397L249.977 49.063L256.551 64.0801L260.841 62.202L254.268 47.1849L264.994 42.4896L273.893 62.8188L278.235 60.9183L267.324 35.992L231.569 51.6431ZM256.133 107.759L258.391 112.918L288.422 84.1909L285.582 77.7039L243.969 79.9725L246.138 84.9271L257.312 84.1746L264.288 100.111L256.133 107.759ZM262.325 83.8065L274.048 83.0571C276.002 82.9322 277.56 82.7372 278.847 82.4783C280.133 82.2194 281.551 81.8424 283.054 81.2451L283.949 83.2882C282.467 83.9366 281.258 84.6488 280.297 85.3738C279.336 86.0987 278.107 87.1844 276.508 88.6757L267.959 96.6783L262.325 83.8065ZM261.564 120.167L263.576 124.764L294.989 111.014L300.78 124.243L305.122 122.342L291.752 91.7976L287.41 93.6981L292.977 106.417L261.564 120.167ZM271.897 143.774L273.91 148.371L309.665 132.72L307.652 128.123L271.897 143.774ZM281.912 166.652L284.93 173.547L325.738 169.44L323.525 164.383L295.704 167.431C292.668 167.726 290.462 168.387 287.688 169.419L286.816 167.427C289.762 165.954 291.563 164.923 293.81 162.965L314.917 144.718L312.681 139.61L281.912 166.652ZM292.968 191.909L303.879 216.836L308.221 214.935L299.322 194.606L311.376 189.329L317.95 204.346L322.24 202.468L315.667 187.451L326.393 182.756L335.292 203.085L339.634 201.184L328.723 176.258L292.968 191.909ZM313.078 237.85L318.332 249.853C323.027 260.58 332.683 264.144 343.869 259.248C354.442 254.619 358.693 244.724 354.243 234.56L348.833 222.199L313.078 237.85ZM319.432 240.546L346.503 228.696L349.544 235.643C353.278 244.173 349.917 250.818 341.745 254.395C332.653 258.375 326.184 255.972 322.316 247.136L319.432 240.546ZM329.41 275.161L331.422 279.758L367.177 264.107L365.165 259.51L329.41 275.161ZM336.026 290.275L338.038 294.872L353.004 288.321L356.313 295.881C358.504 300.886 357.847 303.974 353.557 306.826L345.595 312.137L347.809 317.193L356.045 311.397C360.45 308.251 361.602 305.739 359.536 300.739L361.579 299.845C363.92 304.359 368.001 307.564 373.517 305.149C379.034 302.734 381.417 296.639 378.265 289.437L371.781 274.624L336.026 290.275ZM357.295 286.443L369.451 281.122L373.655 290.724C375.555 295.066 374.764 298.821 370.729 300.587C366.694 302.353 363.399 300.387 361.498 296.046L357.295 286.443ZM351.288 325.142L362.199 350.068L366.541 348.168L357.642 327.839L369.697 322.562L376.27 337.579L380.561 335.701L373.987 320.684L384.714 315.989L393.613 336.318L397.954 334.417L387.043 309.491L351.288 325.142ZM381.79 345.182C371.303 349.59 365.503 359.98 370.419 370.793C374.175 379.374 381.478 382.568 388.118 381.609L387.82 376.201C382.07 376.831 377.556 375.277 374.761 368.892C371.519 361.486 375.428 353.871 384.009 350.114C392.489 346.403 400.021 349.01 403.263 356.416C404.649 359.583 404.882 362.341 404.037 364.72C403.191 367.099 401.918 369.056 400.165 370.615L403.879 374.649C408.367 370.859 411.45 363.301 407.604 354.516C403.33 344.335 391.989 340.535 381.79 345.182ZM384.275 400.5L386.287 405.097L417.701 391.346L423.491 404.576L427.833 402.675L414.463 372.13L410.121 374.031L415.688 386.749L384.275 400.5ZM410.036 410.683C399.015 415.264 394.733 426.755 399.201 436.546C403.363 446.471 414.644 450.967 425.508 446.029C436.506 441.398 440.855 430.06 436.387 420.269C432.225 410.344 420.877 405.694 410.036 410.683ZM423.361 441.126C415.138 444.726 406.964 442.46 403.521 434.594C400.078 426.728 403.958 419.186 412.182 415.587C420.406 411.987 428.579 414.252 432.023 422.118C435.443 429.933 431.585 437.526 423.361 441.126ZM411.094 461.767L413.106 466.364L428.072 459.813L431.381 467.373C433.572 472.378 432.915 475.466 428.625 478.318L420.663 483.629L422.877 488.685L431.113 482.889C435.518 479.743 436.67 477.23 434.603 472.231L436.647 471.337C438.988 475.851 443.069 479.055 448.585 476.641C454.101 474.226 456.485 468.131 453.333 460.929L446.849 446.116L411.094 461.767ZM432.363 457.935L444.519 452.613L448.723 462.216C450.623 466.558 449.832 470.313 445.797 472.079C441.762 473.845 438.466 471.879 436.566 467.538L432.363 457.935ZM433.848 489.277C428.938 493.495 427.117 500.318 430.359 507.725C433.914 515.846 440.312 518.645 446.646 515.872C451.805 513.614 453.653 508.24 452.416 501.661L451.399 496.141C450.61 491.556 451.28 489.193 454.294 487.874C457.563 486.443 460.995 488.167 462.895 492.508C464.013 495.062 464.25 497.271 463.554 499.158C462.932 501.074 461.956 502.597 460.618 503.852L464.686 507.306C467.923 504.55 470.585 498.394 467.432 491.192C464.279 483.99 457.871 480.891 452.048 483.44C446.378 485.922 445.051 490.398 446.176 496.723L447.154 502.016C448.1 506.958 447.201 509.908 444.136 511.25C440.56 512.815 436.93 511.056 434.783 506.153C432.481 500.892 434.057 496.428 438.012 492.81L433.848 489.277Z" fill="black"/>
</g>
<path d="M50.2544 385.769L59.1384 376.138C67.0773 367.531 66.4654 357.257 57.4897 348.978C49.0059 341.153 38.2369 341.232 30.7138 349.388L21.5651 359.306L50.2544 385.769ZM50.1731 378.867L28.4512 358.831L33.5926 353.257C39.9059 346.413 47.3407 346.823 53.8983 352.872C61.1936 359.601 61.59 366.49 55.0498 373.58L50.1731 378.867ZM77.8693 355.831L96.3179 335.831L92.8342 332.618L77.788 348.929L68.1157 340.008L79.2302 327.958L75.7875 324.783L64.6729 336.832L56.0662 328.893L71.1123 312.581L67.6286 309.368L49.1801 329.368L77.8693 355.831ZM92.3416 325.668C98.1763 328.471 105.157 327.4 110.638 321.457C116.649 314.941 116.644 307.957 111.561 303.269C107.422 299.451 101.759 299.916 96.229 303.69L91.5815 306.837C87.6997 309.401 85.2668 309.736 82.8487 307.506C80.2257 305.086 80.426 301.251 83.6393 297.767C85.5296 295.718 87.4579 294.614 89.4655 294.493C91.4698 294.294 93.2569 294.577 94.9433 295.298L96.4731 290.186C92.6495 288.328 85.9429 288.362 80.6125 294.14C75.2821 299.919 75.0167 307.033 79.689 311.342C84.2383 315.539 88.871 314.957 94.2116 311.387L98.6669 308.367C102.813 305.516 105.877 305.156 108.336 307.424C111.205 310.07 111.052 314.101 107.422 318.036C103.529 322.257 98.8076 322.606 93.9061 320.436L92.3416 325.668ZM125.346 304.361L128.749 300.672L100.06 274.209L96.6571 277.897L125.346 304.361ZM120.257 281.013C129.314 289.368 139.98 289.648 147.087 281.943C152.947 275.59 151.457 268.982 149.703 265.619L151.366 263.816C152.675 266.92 154.271 269.302 156.115 271.003L159.48 267.356L145.463 254.426L132.648 268.32L136.131 271.534L145.393 261.492C148.978 265.254 149.69 272.131 144.586 277.664C139.142 283.565 131.137 283.691 123.883 277C116.711 270.384 117.111 261.726 121.95 256.48C126.033 252.054 131.043 251.063 136.903 253.509L138.899 248.22C132.876 245.622 124.887 246.142 118.498 253.068C111.343 260.578 111.54 273.276 120.257 281.013ZM165.92 260.374L169.322 256.685L152.887 241.526C149.158 238.086 146.809 236.602 143.497 235.67L143.88 233.445L184.179 240.578L188.451 235.947L159.762 209.484L156.36 213.173L172.385 227.954C175.909 231.205 177.687 232.239 181.261 232.804L180.881 235.108L142.41 228.296L137.23 233.911L165.92 260.374ZM196.23 227.514L214.678 207.514L211.195 204.3L196.148 220.612L186.476 211.69L197.591 199.641L194.148 196.465L183.033 208.515L174.427 200.576L189.473 184.264L185.989 181.051L167.54 201.051L196.23 227.514ZM220.448 201.258L223.851 197.57L211.842 186.493L217.437 180.427C221.142 176.411 224.234 175.773 228.568 178.558L236.629 183.717L240.371 179.66L231.756 174.444C227.106 171.672 224.342 171.626 220.593 175.526L218.954 174.013C222.148 170.057 223.445 165.033 219.019 160.95C214.592 156.867 208.053 157.131 202.722 162.91L191.759 174.795L220.448 201.258ZM208.399 183.318L198.645 174.32L205.752 166.615C208.966 163.131 212.722 162.348 215.96 165.335C219.198 168.321 218.72 172.129 215.507 175.612L208.399 183.318ZM236.508 169.374C242.343 172.177 249.323 171.106 254.805 165.163C260.816 158.647 260.81 151.663 255.728 146.975C251.588 143.157 245.925 143.622 240.395 147.396L235.748 150.543C231.866 153.107 229.433 153.442 227.015 151.212C224.392 148.792 224.592 144.957 227.806 141.473C229.696 139.424 231.624 138.32 233.632 138.199C235.636 138 237.423 138.283 239.11 139.004L240.639 133.892C236.816 132.034 230.109 132.068 224.779 137.846C219.448 143.625 219.183 150.739 223.855 155.048C228.405 159.245 233.037 158.663 238.378 155.093L242.833 152.073C246.98 149.222 250.043 148.862 252.502 151.13C255.371 153.776 255.218 157.807 251.589 161.742C247.695 165.963 242.974 166.311 238.072 164.142L236.508 169.374Z" fill="black"/>
<circle cx="133.905" cy="473.905" r="62.7274" fill="#BB9CFE" stroke="black" stroke-width="4.35607"/>
<path d="M216.597 371.595L209.182 239.011L327.71 298.882L216.597 371.595Z" fill="#BB9CFE" stroke="black" stroke-width="4.35607"/>
<rect x="116.44" y="13.9779" width="122.205" height="122.205" transform="rotate(30.1948 116.44 13.9779)" fill="#BB9CFE" stroke="black" stroke-width="4.35607"/>
<rect x="2.17803" y="2.17803" width="413.644" height="714.644" fill="#C18C5D" stroke="black" stroke-width="4.35607"/>
<mask id="mask1" mask-type="alpha" maskUnits="userSpaceOnUse" x="0" y="0" width="418" height="719">
<rect x="2.17803" y="2.17803" width="413.644" height="714.644" fill="#DB9A4E" stroke="black" stroke-width="4.35607"/>
</mask>
<g mask="url(#mask1)">
<path d="M80.4975 383.968L85.2666 385.529L90.089 370.798L99.9983 374.042C107.735 376.574 113.731 373.491 115.899 366.868C118.068 360.244 115.055 354.212 107.372 351.697L92.6402 346.874L80.4975 383.968ZM91.4767 366.558L95.9349 352.94L104.996 355.906C110.348 357.658 112.201 361.139 110.865 365.22C109.547 369.247 105.837 371.259 100.538 369.525L91.4767 366.558ZM114.548 395.115L119.317 396.676L124.4 381.149L132.242 383.717C137.436 385.417 139.301 387.963 138.57 393.063L137.228 402.539L142.474 404.256L143.637 394.252C144.225 388.871 143.118 386.338 138.013 384.55L138.707 382.43C143.633 383.691 148.741 382.781 150.615 377.059C152.488 371.336 149.53 365.498 142.058 363.052L126.691 358.021L114.548 395.115ZM125.857 376.698L129.985 364.086L139.948 367.348C144.452 368.822 146.726 371.913 145.355 376.099C143.985 380.286 140.323 381.434 135.819 379.959L125.857 376.698ZM154.089 387.524C150.165 398.795 155.884 409.643 166.163 412.832C176.338 416.339 187.206 410.92 190.759 399.528C194.63 388.24 189.07 377.444 178.791 374.255C168.616 370.748 157.589 376.115 154.089 387.524ZM185.672 397.863C182.879 406.394 175.745 410.982 167.584 408.311C159.424 405.639 156.384 397.721 159.176 389.19C161.969 380.658 169.103 376.07 177.264 378.742C185.371 381.396 188.465 389.331 185.672 397.863ZM192.896 420.762L205.348 424.838C216.476 428.481 225.566 423.654 229.365 412.049C232.956 401.08 228.407 391.318 217.862 387.866L205.038 383.668L192.896 420.762ZM199.139 417.819L208.333 389.734L215.54 392.093C224.389 394.99 227.107 401.922 224.331 410.401C221.243 419.833 215.142 423.058 205.975 420.057L199.139 417.819ZM235.757 418.952C232.444 429.073 235.971 435.684 244.873 438.598C254.147 441.634 260.668 437.843 263.842 428.146L271.301 405.36L266.532 403.799L259.299 425.896C257.009 432.891 252.565 436.071 246.365 434.041C240.165 432.012 238.445 426.872 240.752 419.825L247.986 397.727L243.216 396.166L235.757 418.952ZM273.026 426.048C269.328 436.806 273.215 448.052 284.554 451.588C293.456 454.502 300.703 451.184 304.411 445.592L300.178 442.212C296.818 446.92 292.652 449.252 286.028 447.084C278.345 444.569 275.269 436.58 278.183 427.678C281.063 418.881 288.024 415 295.708 417.515C298.993 418.591 301.206 420.254 302.417 422.469C303.628 424.684 304.24 426.938 304.235 429.283L309.718 429.2C309.88 423.328 306.297 415.995 297.182 413.011C286.742 409.417 276.353 415.345 273.026 426.048ZM308.399 458.572L334.258 467.038L335.733 462.533L314.642 455.629L318.736 443.124L334.315 448.224L335.772 443.772L320.193 438.672L323.836 427.544L344.926 434.448L346.401 429.944L320.541 421.479L308.399 458.572ZM342.346 469.685L347.115 471.246L352.198 455.72L360.04 458.287C365.233 459.987 367.098 462.534 366.368 467.634L365.026 477.11L370.272 478.827L371.435 468.823C372.023 463.442 370.916 460.909 365.81 459.12L366.504 457.001C371.431 458.261 376.539 457.352 378.412 451.629C380.286 445.906 377.327 440.068 369.856 437.622L354.488 432.592L342.346 469.685ZM353.655 451.269L357.783 438.657L367.745 441.918C372.25 443.393 374.523 446.484 373.153 450.67C371.782 454.856 368.121 456.005 363.617 454.53L353.655 451.269ZM378.021 471.038C377.897 477.51 381.773 483.413 389.456 485.928C397.882 488.687 404.231 485.778 406.382 479.207C408.134 473.855 405.357 468.898 399.626 465.438L394.831 462.519C390.886 460.054 389.57 457.98 390.594 454.854C391.704 451.463 395.276 450.05 399.78 451.525C402.429 452.392 404.235 453.687 405.179 455.463C406.193 457.203 406.679 458.946 406.724 460.78L412.01 460.046C412.11 455.796 409.291 449.71 401.82 447.264C394.348 444.819 387.768 447.534 385.791 453.575C383.865 459.457 386.32 463.429 391.786 466.802L396.386 469.599C400.702 472.185 402.303 474.821 401.263 478.001C400.048 481.71 396.318 483.247 391.231 481.581C385.773 479.795 383.494 475.646 383.43 470.286L378.021 471.038Z" fill="black"/>
<path d="M16.3931 678.439L27.4429 671.397C37.3171 665.104 39.3501 655.015 32.7873 644.717C26.5841 634.984 16.1521 632.31 6.79508 638.273L-4.5838 645.525L16.3931 678.439ZM18.0778 671.746L2.19521 646.825L8.58996 642.75C16.4423 637.745 23.5256 640.041 28.3204 647.564C33.6545 655.934 32.2778 662.696 24.1434 667.88L18.0778 671.746ZM50.7399 656.549L73.6857 641.926L71.1385 637.929L52.4245 649.856L45.3523 638.759L59.1762 629.949L56.659 625.999L42.835 634.809L36.542 624.935L55.256 613.008L52.7088 609.011L29.763 623.635L50.7399 656.549ZM88.0092 632.797L94.357 628.751L84.0066 589.065L79.3516 592.031L86.6528 619.049C87.4117 622.004 88.4053 624.081 89.8525 626.663L88.0187 627.832C86.1096 625.148 84.8127 623.528 82.5321 621.609L61.2488 603.569L56.5468 606.565L88.0092 632.797ZM111.26 617.979L134.206 603.355L131.659 599.358L112.945 611.285L105.872 600.188L119.696 591.378L117.179 587.428L103.355 596.238L97.062 586.364L115.776 574.437L113.229 570.441L90.283 585.064L111.26 617.979ZM141.382 598.781L163.341 584.786L160.734 580.696L143.007 591.993L124.637 563.17L120.405 565.867L141.382 598.781ZM152.649 568.459C158.874 578.641 170.888 581.1 179.873 575.176C189.037 569.533 191.741 557.694 185.187 547.722C178.915 537.57 167.042 535.02 158.057 540.945C148.892 546.588 146.048 558.517 152.649 568.459ZM180.673 550.599C185.497 558.169 184.52 566.594 177.278 571.209C170.037 575.824 161.987 573.152 157.163 565.582C152.338 558.012 153.316 549.587 160.557 544.972C167.751 540.387 175.848 543.028 180.673 550.599ZM202.958 559.537L207.19 556.84L198.859 543.768L207.652 538.165C214.517 533.789 215.937 527.198 212.191 521.321C208.445 515.443 201.871 513.947 195.053 518.292L181.982 526.623L202.958 559.537ZM196.462 540.007L188.761 527.923L196.801 522.798C201.55 519.772 205.416 520.547 207.724 524.168C210.001 527.741 209.205 531.886 204.503 534.882L196.462 540.007ZM233.173 540.281L256.118 525.657L253.571 521.66L234.857 533.587L227.785 522.49L241.609 513.68L239.092 509.73L225.268 518.541L218.975 508.666L237.689 496.74L235.141 492.743L212.196 507.367L233.173 540.281ZM263.295 521.083L267.527 518.386L258.746 504.609L265.705 500.174C270.313 497.237 273.465 497.411 276.944 501.21L283.419 508.257L288.074 505.291L281.078 498.047C277.29 494.179 274.63 493.428 270.009 496.241L268.81 494.36C272.909 491.351 275.446 486.825 272.21 481.747C268.974 476.669 262.584 475.253 255.954 479.479L242.318 488.169L263.295 521.083ZM256.229 500.66L249.097 489.469L257.937 483.835C261.933 481.288 265.765 481.49 268.133 485.205C270.5 488.92 269.066 492.479 265.069 495.026L256.229 500.66ZM286.967 494.359C291.892 498.56 298.914 499.308 305.732 494.962C313.209 490.198 314.987 483.444 311.271 477.613C308.245 472.864 302.65 471.868 296.34 474.104L291.043 475.959C286.635 477.446 284.197 477.149 282.429 474.375C280.511 471.365 281.685 467.708 285.681 465.161C288.032 463.663 290.179 463.088 292.15 463.484C294.139 463.804 295.795 464.534 297.241 465.662L300.026 461.11C296.804 458.337 290.311 456.656 283.681 460.882C277.051 465.107 274.978 471.916 278.394 477.277C281.72 482.496 286.348 483.117 292.423 481.03L297.502 479.248C302.239 477.551 305.293 477.985 307.091 480.807C309.189 484.098 308.011 487.956 303.497 490.833C298.654 493.92 294.001 493.05 289.816 489.7L286.967 494.359Z" fill="black"/>
<path d="M3.18558 724.844C7.09163 734.751 14.0251 737.592 22.7396 734.156C31.8172 730.577 34.4201 723.498 30.6777 714.005L21.884 691.7L17.2155 693.541L25.7434 715.171C28.4428 722.018 27.0498 727.302 20.9808 729.695C14.9118 732.088 10.3081 729.228 7.58819 722.329L-0.939682 700.698L-5.60815 702.539L3.18558 724.844ZM39.2822 716.247C43.3158 721.309 50.0668 723.382 57.5882 720.417C65.8358 717.165 68.8697 710.875 66.3339 704.443C64.2684 699.204 58.9669 697.158 52.3457 698.15L46.7919 698.962C42.1813 699.581 39.845 698.824 38.6384 695.763C37.3296 692.443 39.179 689.077 43.5881 687.339C46.1817 686.316 48.3982 686.162 50.2582 686.927C52.1495 687.619 53.6354 688.652 54.8399 690.035L58.442 686.098C55.8079 682.761 49.7548 679.873 42.4408 682.757C35.1269 685.64 31.7927 691.929 34.1241 697.843C36.3941 703.6 40.8182 705.093 47.18 704.203L52.5059 703.421C57.4796 702.659 60.3945 703.668 61.6215 706.78C63.053 710.411 61.1613 713.974 56.1816 715.937C50.8388 718.043 46.4366 716.303 42.9675 712.216L39.2822 716.247ZM78.2703 711.424L103.584 701.444L101.845 697.035L81.2005 705.174L76.3741 692.933L91.6245 686.92L89.9066 682.563L74.6563 688.575L70.3617 677.682L91.0067 669.543L89.2684 665.134L63.9549 675.114L78.2703 711.424ZM111.501 698.323L116.169 696.482L110.177 681.284L117.854 678.257C122.938 676.253 125.999 677.024 128.69 681.417L133.702 689.57L138.837 687.545L133.35 679.1C130.37 674.582 127.901 673.337 122.829 675.217L122.011 673.142C126.609 670.97 129.962 667.011 127.754 661.409C125.545 655.806 119.542 653.198 112.228 656.082L97.1853 662.013L111.501 698.323ZM108.459 676.927L103.592 664.581L113.344 660.736C117.753 658.998 121.476 659.928 123.092 664.026C124.707 668.124 122.62 671.344 118.211 673.082L108.459 676.927ZM160.333 679.071L185.647 669.091L183.908 664.682L163.263 672.821L158.437 660.579L173.687 654.567L171.97 650.21L156.719 656.222L152.425 645.329L173.07 637.19L171.331 632.78L146.018 642.76L160.333 679.071ZM188.74 667.871L194.445 665.622L197.24 653.252C198.183 649.105 198.141 647.024 197.273 644.669L199.348 643.851C200.453 646.352 201.326 647.806 204.866 650.246L215.35 657.38L221.16 655.09L200.251 641.277L205.651 619.25L199.997 621.479L197.585 631.78C197.109 633.765 196.894 635.348 196.888 636.549C196.934 637.73 197.145 639.025 197.605 640.343L195.53 641.161C194.874 639.801 194.196 638.69 193.424 637.795C192.631 636.849 191.446 635.818 189.815 634.723L181.168 628.903L175.41 631.173L194.595 643.807L188.74 667.871ZM226.895 652.828L231.564 650.988L225.879 636.568L235.579 632.743C243.152 629.757 245.802 623.558 243.246 617.074C240.69 610.59 234.522 607.868 227 610.833L212.58 616.518L226.895 652.828ZM224.243 632.418L218.987 619.087L227.857 615.59C233.096 613.524 236.744 615.023 238.318 619.017C239.872 622.959 238.3 626.876 233.113 628.921L224.243 632.418ZM260.227 639.687L285.541 629.708L283.802 625.298L263.157 633.438L258.331 621.196L273.581 615.184L271.864 610.826L256.613 616.839L252.319 605.946L272.964 597.806L271.225 593.397L245.912 603.377L260.227 639.687ZM293.458 626.586L298.126 624.746L292.134 609.547L299.811 606.521C304.895 604.516 307.956 605.287 310.646 609.681L315.659 617.833L320.794 615.809L315.307 607.364C312.327 602.845 309.858 601.601 304.786 603.48L303.968 601.406C308.565 599.233 311.919 595.274 309.71 589.672C307.502 584.07 301.499 581.462 294.185 584.345L279.142 590.276L293.458 626.586ZM290.416 605.19L285.549 592.845L295.301 589C299.71 587.262 303.433 588.191 305.048 592.289C306.664 596.387 304.577 599.607 300.168 601.345L290.416 605.19ZM328.866 612.626L333.535 610.786L319.219 574.476L314.551 576.316L328.866 612.626ZM344.215 606.575L369.529 596.595L367.79 592.186L347.145 600.325L342.319 588.084L357.569 582.071L355.851 577.714L340.601 583.726L336.306 572.833L356.951 564.694L355.213 560.285L329.9 570.265L344.215 606.575ZM377.446 593.474L382.114 591.633L373.913 570.833C372.052 566.112 370.583 563.755 368.006 561.474L369.32 559.638L402.5 583.596L408.361 581.285L394.046 544.975L389.377 546.816L397.373 567.098C399.132 571.559 400.283 573.262 403.255 575.327L401.91 577.236L370.237 554.362L363.13 557.164L377.446 593.474ZM409.088 559.602C413.104 570.246 423.272 576.426 434.26 571.914C442.974 568.478 446.437 561.299 445.725 554.628L440.309 554.725C440.726 560.495 439.005 564.949 432.521 567.505C425 570.47 417.535 566.281 414.099 557.567C410.704 548.956 413.589 541.526 421.11 538.56C424.326 537.292 427.091 537.161 429.437 538.094C431.783 539.028 433.691 540.373 435.184 542.182L439.354 538.62C435.732 533.994 428.294 530.634 419.372 534.151C409.04 538.045 404.822 549.237 409.088 559.602ZM457.077 562.079L482.39 552.099L480.652 547.69L460.007 555.83L455.181 543.588L470.431 537.575L468.713 533.218L453.463 539.231L449.168 528.337L469.813 520.198L468.075 515.789L442.762 525.769L457.077 562.079Z" fill="black"/>
<path d="M217.003 -31.2718C206.516 -26.8638 200.717 -16.4737 205.633 -5.6611C209.389 2.92008 216.691 6.11452 223.332 5.15541L223.034 -0.252923C217.284 0.37716 212.769 -1.17679 209.974 -7.56159C206.732 -14.968 210.642 -22.5833 219.223 -26.3395C227.702 -30.0511 235.234 -27.4441 238.476 -20.0378C239.862 -16.8709 240.096 -14.1125 239.25 -11.7338C238.405 -9.35506 237.131 -7.3977 235.379 -5.83933L239.093 -1.80452C243.581 -5.59511 246.663 -13.1528 242.818 -21.9383C238.544 -32.1189 227.203 -35.9191 217.003 -31.2718ZM216.306 16.7761L218.319 21.3732L233.284 14.8221L236.594 22.3817C238.785 27.3874 238.128 30.4748 233.837 33.3267L225.876 38.6377L228.089 43.6945L236.325 37.8981C240.731 34.7525 241.883 32.2396 239.816 27.2403L241.859 26.346C244.2 30.8599 248.281 34.0646 253.798 31.6498C259.314 29.2351 261.698 23.1398 258.545 15.9378L252.061 1.12501L216.306 16.7761ZM237.575 12.9439L249.732 7.62256L253.935 17.2253C255.836 21.567 255.045 25.3217 251.009 27.0881C246.974 28.8544 243.679 26.8884 241.779 22.5467L237.575 12.9439ZM231.569 51.6431L242.48 76.5694L246.821 74.6689L237.923 54.3397L249.977 49.063L256.551 64.0801L260.841 62.202L254.268 47.1849L264.994 42.4896L273.893 62.8188L278.235 60.9183L267.324 35.992L231.569 51.6431ZM256.133 107.759L258.391 112.918L288.422 84.1909L285.582 77.7039L243.969 79.9725L246.138 84.9271L257.312 84.1746L264.288 100.111L256.133 107.759ZM262.325 83.8065L274.048 83.0571C276.002 82.9322 277.56 82.7372 278.847 82.4783C280.133 82.2194 281.551 81.8424 283.054 81.2451L283.949 83.2882C282.467 83.9366 281.258 84.6488 280.297 85.3738C279.336 86.0987 278.107 87.1844 276.508 88.6757L267.959 96.6783L262.325 83.8065ZM261.564 120.167L263.576 124.764L294.989 111.014L300.78 124.243L305.122 122.342L291.752 91.7976L287.41 93.6981L292.977 106.417L261.564 120.167ZM271.897 143.774L273.91 148.371L309.665 132.72L307.652 128.123L271.897 143.774ZM281.912 166.652L284.93 173.547L325.738 169.44L323.525 164.383L295.704 167.431C292.668 167.726 290.462 168.387 287.688 169.419L286.816 167.427C289.762 165.954 291.563 164.923 293.81 162.965L314.917 144.718L312.681 139.61L281.912 166.652ZM292.968 191.909L303.879 216.836L308.221 214.935L299.322 194.606L311.376 189.329L317.95 204.346L322.24 202.468L315.667 187.451L326.393 182.756L335.292 203.085L339.634 201.184L328.723 176.258L292.968 191.909ZM313.078 237.85L318.332 249.853C323.027 260.58 332.683 264.144 343.869 259.248C354.442 254.619 358.693 244.724 354.243 234.56L348.833 222.199L313.078 237.85ZM319.432 240.546L346.503 228.696L349.544 235.643C353.278 244.173 349.917 250.818 341.745 254.395C332.653 258.375 326.184 255.972 322.316 247.136L319.432 240.546ZM329.41 275.161L331.422 279.758L367.177 264.107L365.165 259.51L329.41 275.161ZM336.026 290.275L338.038 294.872L353.004 288.321L356.313 295.881C358.504 300.886 357.847 303.974 353.557 306.826L345.595 312.137L347.809 317.193L356.045 311.397C360.45 308.251 361.602 305.739 359.536 300.739L361.579 299.845C363.92 304.359 368.001 307.564 373.517 305.149C379.034 302.734 381.417 296.639 378.265 289.437L371.781 274.624L336.026 290.275ZM357.295 286.443L369.451 281.122L373.655 290.724C375.555 295.066 374.764 298.821 370.729 300.587C366.694 302.353 363.399 300.387 361.498 296.046L357.295 286.443ZM351.288 325.142L362.199 350.068L366.541 348.168L357.642 327.839L369.697 322.562L376.27 337.579L380.561 335.701L373.987 320.684L384.714 315.989L393.613 336.318L397.954 334.417L387.043 309.491L351.288 325.142ZM381.79 345.182C371.303 349.59 365.503 359.98 370.419 370.793C374.175 379.374 381.478 382.568 388.118 381.609L387.82 376.201C382.07 376.831 377.556 375.277 374.761 368.892C371.519 361.486 375.428 353.871 384.009 350.114C392.489 346.403 400.021 349.01 403.263 356.416C404.649 359.583 404.882 362.341 404.037 364.72C403.191 367.099 401.918 369.056 400.165 370.615L403.879 374.649C408.367 370.859 411.45 363.301 407.604 354.516C403.33 344.335 391.989 340.535 381.79 345.182ZM384.275 400.5L386.287 405.097L417.701 391.346L423.491 404.576L427.833 402.675L414.463 372.13L410.121 374.031L415.688 386.749L384.275 400.5ZM410.036 410.683C399.015 415.264 394.733 426.755 399.201 436.546C403.363 446.471 414.644 450.967 425.508 446.029C436.506 441.398 440.855 430.06 436.387 420.269C432.225 410.344 420.877 405.694 410.036 410.683ZM423.361 441.126C415.138 444.726 406.964 442.46 403.521 434.594C400.078 426.728 403.958 419.186 412.182 415.587C420.406 411.987 428.579 414.252 432.023 422.118C435.443 429.933 431.585 437.526 423.361 441.126ZM411.094 461.767L413.106 466.364L428.072 459.813L431.381 467.373C433.572 472.378 432.915 475.466 428.625 478.318L420.663 483.629L422.877 488.685L431.113 482.889C435.518 479.743 436.67 477.23 434.603 472.231L436.647 471.337C438.988 475.851 443.069 479.055 448.585 476.641C454.101 474.226 456.485 468.131 453.333 460.929L446.849 446.116L411.094 461.767ZM432.363 457.935L444.519 452.613L448.723 462.216C450.623 466.558 449.832 470.313 445.797 472.079C441.762 473.845 438.466 471.879 436.566 467.538L432.363 457.935ZM433.848 489.277C428.938 493.495 427.117 500.318 430.359 507.725C433.914 515.846 440.312 518.645 446.646 515.872C451.805 513.614 453.653 508.24 452.416 501.661L451.399 496.141C450.61 491.556 451.28 489.193 454.294 487.874C457.563 486.443 460.995 488.167 462.895 492.508C464.013 495.062 464.25 497.271 463.554 499.158C462.932 501.074 461.956 502.597 460.618 503.852L464.686 507.306C467.923 504.55 470.585 498.394 467.432 491.192C464.279 483.99 457.871 480.891 452.048 483.44C446.378 485.922 445.051 490.398 446.176 496.723L447.154 502.016C448.1 506.958 447.201 509.908 444.136 511.25C440.56 512.815 436.93 511.056 434.783 506.153C432.481 500.892 434.057 496.428 438.012 492.81L433.848 489.277Z" fill="black"/>
</g>
<path d="M50.2544 385.769L59.1384 376.138C67.0773 367.531 66.4654 357.257 57.4897 348.978C49.0059 341.153 38.2369 341.232 30.7138 349.388L21.5651 359.306L50.2544 385.769ZM50.1731 378.867L28.4512 358.831L33.5926 353.257C39.9059 346.413 47.3407 346.823 53.8983 352.872C61.1936 359.601 61.59 366.49 55.0498 373.58L50.1731 378.867ZM77.8693 355.831L96.3179 335.831L92.8342 332.618L77.788 348.929L68.1157 340.008L79.2302 327.958L75.7875 324.783L64.6729 336.832L56.0662 328.893L71.1123 312.581L67.6286 309.368L49.1801 329.368L77.8693 355.831ZM92.3416 325.668C98.1763 328.471 105.157 327.4 110.638 321.457C116.649 314.941 116.644 307.957 111.561 303.269C107.422 299.451 101.759 299.916 96.229 303.69L91.5815 306.837C87.6997 309.401 85.2668 309.736 82.8487 307.506C80.2257 305.086 80.426 301.251 83.6393 297.767C85.5296 295.718 87.4579 294.614 89.4655 294.493C91.4698 294.294 93.2569 294.577 94.9433 295.298L96.4731 290.186C92.6495 288.328 85.9429 288.362 80.6125 294.14C75.2821 299.919 75.0167 307.033 79.689 311.342C84.2383 315.539 88.871 314.957 94.2116 311.387L98.6669 308.367C102.813 305.516 105.877 305.156 108.336 307.424C111.205 310.07 111.052 314.101 107.422 318.036C103.529 322.257 98.8076 322.606 93.9061 320.436L92.3416 325.668ZM125.346 304.361L128.749 300.672L100.06 274.209L96.6571 277.897L125.346 304.361ZM120.257 281.013C129.314 289.368 139.98 289.648 147.087 281.943C152.947 275.59 151.457 268.982 149.703 265.619L151.366 263.816C152.675 266.92 154.271 269.302 156.115 271.003L159.48 267.356L145.463 254.426L132.648 268.32L136.131 271.534L145.393 261.492C148.978 265.254 149.69 272.131 144.586 277.664C139.142 283.565 131.137 283.691 123.883 277C116.711 270.384 117.111 261.726 121.95 256.48C126.033 252.054 131.043 251.063 136.903 253.509L138.899 248.22C132.876 245.622 124.887 246.142 118.498 253.068C111.343 260.578 111.54 273.276 120.257 281.013ZM165.92 260.374L169.322 256.685L152.887 241.526C149.158 238.086 146.809 236.602 143.497 235.67L143.88 233.445L184.179 240.578L188.451 235.947L159.762 209.484L156.36 213.173L172.385 227.954C175.909 231.205 177.687 232.239 181.261 232.804L180.881 235.108L142.41 228.296L137.23 233.911L165.92 260.374ZM196.23 227.514L214.678 207.514L211.195 204.3L196.148 220.612L186.476 211.69L197.591 199.641L194.148 196.465L183.033 208.515L174.427 200.576L189.473 184.264L185.989 181.051L167.54 201.051L196.23 227.514ZM220.448 201.258L223.851 197.57L211.842 186.493L217.437 180.427C221.142 176.411 224.234 175.773 228.568 178.558L236.629 183.717L240.371 179.66L231.756 174.444C227.106 171.672 224.342 171.626 220.593 175.526L218.954 174.013C222.148 170.057 223.445 165.033 219.019 160.95C214.592 156.867 208.053 157.131 202.722 162.91L191.759 174.795L220.448 201.258ZM208.399 183.318L198.645 174.32L205.752 166.615C208.966 163.131 212.722 162.348 215.96 165.335C219.198 168.321 218.72 172.129 215.507 175.612L208.399 183.318ZM236.508 169.374C242.343 172.177 249.323 171.106 254.805 165.163C260.816 158.647 260.81 151.663 255.728 146.975C251.588 143.157 245.925 143.622 240.395 147.396L235.748 150.543C231.866 153.107 229.433 153.442 227.015 151.212C224.392 148.792 224.592 144.957 227.806 141.473C229.696 139.424 231.624 138.32 233.632 138.199C235.636 138 237.423 138.283 239.11 139.004L240.639 133.892C236.816 132.034 230.109 132.068 224.779 137.846C219.448 143.625 219.183 150.739 223.855 155.048C228.405 159.245 233.037 158.663 238.378 155.093L242.833 152.073C246.98 149.222 250.043 148.862 252.502 151.13C255.371 153.776 255.218 157.807 251.589 161.742C247.695 165.963 242.974 166.311 238.072 164.142L236.508 169.374Z" fill="black"/>
<circle cx="133.905" cy="473.905" r="62.7274" fill="#BB9CFE" stroke="black" stroke-width="4.35607"/>
<path d="M216.597 371.595L209.182 239.011L327.71 298.882L216.597 371.595Z" fill="#BB9CFE" stroke="black" stroke-width="4.35607"/>
<rect x="116.44" y="13.9779" width="122.205" height="122.205" transform="rotate(30.1948 116.44 13.9779)" fill="#BB9CFE" stroke="black" stroke-width="4.35607"/>
</svg>
