<svg width="1207" height="485" viewBox="0 0 1207 485" fill="none" xmlns="http://www.w3.org/2000/svg">
<path d="M1034.35 182.687C1025.16 182.687 1021.82 188.535 1021.19 191.564H1020.04V186.446C1020.04 183.522 1018.26 182.687 1016.28 182.687C1015.76 182.687 1015.24 182.791 1014.71 182.896L997.69 186.238V188.222C997.69 188.222 1002.81 189.893 1002.81 195.95V235.426C1002.81 240.648 998.943 243.155 998.943 243.155V245.557H1024.84V243.05C1024.84 243.05 1020.98 240.857 1020.98 235.426V199.501C1020.98 195.95 1022.65 192.504 1026.62 192.504C1031.21 192.504 1033.41 197.099 1033.41 206.08C1033.41 214.539 1031.42 218.821 1026.93 219.97C1025.78 220.283 1024.74 220.283 1024.01 220.283C1023.49 220.283 1023.28 220.283 1023.28 220.283V222.059C1023.28 222.059 1025.78 228.116 1033.83 228.116C1045 228.116 1052.31 216.21 1052.31 203.887C1052.21 193.339 1046.67 182.687 1034.35 182.687ZM1018.47 174.645C1034.56 174.645 1039.88 162.322 1039.88 162.322L1038.42 160.756C1038.42 160.756 1032.68 164.828 1024.95 164.828C1017.12 164.828 1013.04 159.085 1013.04 148.954C1013.04 140.391 1015.03 136.527 1019.31 136.527C1022.44 136.527 1024.11 138.824 1024.11 141.957C1024.11 149.372 1015.24 149.477 1015.24 149.477V151.879C1015.24 151.879 1020.14 154.698 1027.46 154.698C1035.5 154.698 1039.99 151.879 1039.99 145.09C1039.99 136.422 1030.48 129.425 1019.1 129.425C1005.73 129.425 994.556 137.884 994.556 152.401C994.661 165.664 1003.64 174.645 1018.47 174.645ZM855.964 179.032C855.964 177.569 857.008 174.436 862.126 174.436C867.557 174.436 872.152 178.718 875.912 181.956C878.627 184.253 880.612 186.029 880.612 186.029L883.014 185.298L881.969 168.484C881.865 166.813 880.298 165.977 878.941 166.291L873.301 167.857C873.301 167.857 867.974 165.977 860.977 165.977C854.188 165.977 848.653 167.753 844.371 171.408C840.193 174.959 838 179.554 838 185.298C838 206.393 868.392 204.096 868.392 213.599C868.392 216.733 865.677 218.717 860.977 218.717C856.277 218.717 852.413 215.584 849.28 212.555C845.206 208.691 841.655 205.349 841.655 205.349L838.627 206.498L839.88 223.73C839.984 225.401 841.447 226.236 842.909 225.923L847.922 224.67C847.922 224.67 853.979 227.385 861.917 227.385C874.241 227.385 886.565 220.492 886.565 207.02C886.565 186.76 855.964 189.475 855.964 179.032ZM888.027 126.605C890.429 122.846 893.876 122.846 896.591 122.846H898.68L898.575 163.262C898.575 168.484 894.293 171.512 894.293 171.512V173.81H922.492V171.512C922.492 171.512 918.106 168.693 918.106 163.262V122.846H920.195C922.806 122.846 926.357 122.846 928.759 126.605C929.594 127.963 934.503 135.796 934.503 135.796L938.681 134.647L936.696 117.937C936.487 115.849 934.712 114.282 932.623 114.282H884.163C882.074 114.282 880.298 115.849 880.09 117.937L878.105 134.647L882.283 135.796C882.283 135.796 887.191 127.963 888.027 126.605ZM942.754 122.846V164.411C942.754 169.632 938.472 171.721 938.472 171.721V173.81H963.537V171.721C963.537 171.721 960.195 170.677 960.195 165.246V144.777C960.195 141.853 963.537 139.346 966.044 139.346C970.326 139.346 972.415 141.748 972.415 146.657V165.246C972.415 170.468 969.073 171.721 969.073 171.721V173.81H994.452V171.721C994.452 171.721 989.961 169.737 989.961 164.411V146.761C989.961 136.004 985.052 129.53 974.713 129.53C967.924 129.53 961.24 133.185 961.24 138.406H960.195V116.684V112.82C960.195 109.687 958.107 108.538 954.764 109.165L938.472 112.402L938.367 114.282C938.367 114.282 942.754 116.788 942.754 122.846ZM1058.06 176.107V217.046C1058.06 222.268 1053.77 224.356 1053.77 224.356L1053.67 227.072H1080.51V224.147C1080.51 224.147 1076.12 222.476 1076.12 217.046V169.841V165.977C1076.12 162.844 1073.93 161.695 1070.69 162.322L1053.67 165.664V167.648C1053.67 167.648 1058.06 170.155 1058.06 176.107ZM938.89 214.017V186.551C938.89 183.627 937.114 182.687 935.13 182.687C934.607 182.687 934.085 182.791 933.563 182.896L915.808 186.446V188.535C915.808 188.535 920.821 190.206 920.821 196.263V213.913C920.821 216.106 917.793 217.777 915.077 217.777C911.526 217.777 909.751 215.375 909.751 210.466V186.446C909.751 183.522 907.975 182.582 905.991 182.582C905.469 182.582 904.946 182.687 904.424 182.791L886.565 186.342V188.431C886.565 188.431 891.682 190.102 891.682 196.159V211.511C891.682 221.85 897.113 227.803 907.348 227.803C914.45 227.803 921.239 224.043 921.239 218.09H922.388V223.312C922.388 226.341 924.163 227.803 927.61 227.803C936.383 227.803 944.112 221.432 944.112 221.432V219.657C944.112 219.657 938.89 219.552 938.89 214.017ZM979.83 182.687C970.639 182.687 967.297 188.535 966.671 191.564H965.522V186.446C965.522 183.522 963.746 182.687 961.762 182.687C961.24 182.687 960.718 182.791 960.195 182.896L943.172 186.238V188.222C943.172 188.222 948.289 189.893 948.289 195.95V235.426C948.289 240.648 944.425 243.155 944.425 243.155V245.557H970.326V243.05C970.326 243.05 966.462 240.857 966.462 235.426V199.501C966.462 195.95 968.133 192.504 972.102 192.504C976.697 192.504 978.89 197.099 978.89 206.08C978.89 214.539 976.906 218.821 972.415 219.97C971.266 220.283 970.222 220.283 969.491 220.283C968.968 220.283 968.76 220.283 968.76 220.283V222.059C968.76 222.059 971.266 228.116 979.308 228.116C990.483 228.116 997.794 216.21 997.794 203.887C997.69 193.339 992.154 182.687 979.83 182.687ZM1115.08 183.418V185.298C1115.08 185.298 1117.9 187.804 1117.9 191.773C1117.9 193.13 1117.59 194.592 1116.96 196.368L1111.01 213.182L1104.53 194.592C1104.11 193.548 1104.01 192.504 1104.01 191.564C1104.01 187.595 1107.04 185.193 1107.04 185.193V183.313H1079.57V185.193C1079.57 185.193 1082.7 188.326 1085.21 193.861C1088.97 202.321 1090.95 212.973 1095.03 222.059C1096.7 225.818 1098.79 227.907 1104.64 227.907C1104.64 228.638 1097.01 246.183 1079.47 246.183C1064.53 246.183 1065.78 235.635 1055.86 235.635C1051.37 235.635 1048.13 239.604 1048.13 243.99C1048.13 252.971 1059.1 256 1070.69 256C1095.34 256 1107.14 242.632 1115.39 223.103C1119.78 212.868 1123.85 201.903 1127.72 192.19C1129.7 187.177 1132 185.193 1132 185.193V183.313H1115.08V183.418Z" fill="#162C29"/>
<rect x="2.5" y="2.5" width="1202" height="480" fill="#BB9CFE" stroke="black" stroke-width="5"/>
<mask id="mask0" mask-type="alpha" maskUnits="userSpaceOnUse" x="0" y="0" width="1207" height="485">
<rect x="2.5" y="2.5" width="1202" height="480" fill="#BB9CFE" stroke="black" stroke-width="5"/>
</mask>
<g mask="url(#mask0)">
<path d="M611 40.5C805.128 40.5 962.5 197.872 962.5 392C962.5 586.128 805.128 743.5 611 743.5C416.872 743.5 259.5 586.128 259.5 392C259.5 197.872 416.872 40.5001 611 40.5Z" stroke="black" stroke-width="5"/>
<path d="M611 -38.5C848.759 -38.5 1041.5 154.241 1041.5 392C1041.5 629.759 848.759 822.5 611 822.5C373.241 822.5 180.5 629.759 180.5 392C180.5 154.242 373.241 -38.4999 611 -38.5Z" stroke="black" stroke-width="5"/>
<path d="M611 -114.5C890.732 -114.5 1117.5 112.268 1117.5 392C1117.5 671.732 890.732 898.5 611 898.5C331.268 898.5 104.5 671.732 104.5 392C104.5 112.268 331.268 -114.5 611 -114.5Z" stroke="black" stroke-width="5"/>
<circle cx="611" cy="392" r="589.5" transform="rotate(-90 611 392)" stroke="black" stroke-width="5"/>
<circle cx="611" cy="392" r="662.5" transform="rotate(-90 611 392)" stroke="black" stroke-width="5"/>
<path d="M337.588 335H341.628L331.388 307H326.308L315.828 335H319.708L322.428 327.44H334.908L337.588 335ZM323.628 324.04L326.508 316.12C326.988 314.8 327.308 313.72 327.508 312.8C327.708 311.88 327.868 310.84 327.908 309.68H329.508C329.508 310.84 329.628 311.84 329.828 312.68C330.028 313.52 330.388 314.64 330.908 316.12L333.708 324.04H323.628ZM346.534 335H350.134V318.96C350.134 315.32 349.774 313.36 348.654 311.16L350.014 310.28L365.854 335H370.374V307H366.774V322.64C366.774 326.08 367.094 327.52 368.534 329.68L367.134 330.6L352.014 307H346.534V335ZM386.676 307.96C386.969 307.72 387.383 307.6 387.916 307.6H395.916C396.423 307.6 396.823 307.72 397.116 307.96C397.436 308.2 397.596 308.533 397.596 308.96C397.596 309.387 397.369 309.893 396.916 310.48L396.396 311.04C395.756 311.76 395.436 312.733 395.436 313.96V324.64C395.436 326.773 395.929 328.387 396.916 329.48C397.929 330.573 399.409 331.12 401.356 331.12C405.383 331.12 407.396 329 407.396 324.76V313.96C407.396 312.733 407.076 311.76 406.436 311.04L405.916 310.48C405.463 309.893 405.236 309.387 405.236 308.96C405.236 308.533 405.383 308.2 405.676 307.96C405.996 307.72 406.409 307.6 406.916 307.6H411.836C412.369 307.6 412.783 307.72 413.076 307.96C413.396 308.2 413.556 308.533 413.556 308.96C413.556 309.387 413.329 309.893 412.876 310.48L412.356 311.04C411.716 311.733 411.396 312.707 411.396 313.96V324.8C411.396 328.293 410.436 330.933 408.516 332.72C406.596 334.507 403.743 335.4 399.956 335.4C392.223 335.4 388.356 332 388.356 325.2V313.96C388.356 312.733 388.036 311.76 387.396 311.04L386.916 310.48C386.436 309.92 386.196 309.413 386.196 308.96C386.196 308.533 386.356 308.2 386.676 307.96ZM416.24 308.96C416.24 308.533 416.386 308.2 416.68 307.96C417 307.72 417.4 307.6 417.88 307.6H423.08C424.093 307.6 424.866 307.987 425.4 308.76L438 326.36V313.96C438 312.733 437.68 311.76 437.04 311.04L436.56 310.48C436.08 309.867 435.84 309.36 435.84 308.96C435.84 308.533 435.986 308.2 436.28 307.96C436.6 307.72 437.026 307.6 437.56 307.6H442.16C442.666 307.6 443.066 307.72 443.36 307.96C443.653 308.2 443.8 308.533 443.8 308.96C443.8 309.413 443.56 309.92 443.08 310.48L442.6 311.04C441.96 311.76 441.64 312.733 441.64 313.96V333.08C441.64 334.36 441 335 439.72 335H436.92C435.906 335 435.106 334.6 434.52 333.8L422.04 316.4V328.64C422.04 329.893 422.36 330.867 423 331.56L423.52 332.12C423.973 332.707 424.2 333.213 424.2 333.64C424.2 334.067 424.053 334.4 423.76 334.64C423.466 334.88 423.066 335 422.56 335H417.96C417.426 335 417 334.88 416.68 334.64C416.386 334.4 416.24 334.067 416.24 333.64C416.24 333.187 416.48 332.68 416.96 332.12L417.44 331.56C418.08 330.84 418.4 329.867 418.4 328.64V313.96C418.4 312.733 418.08 311.76 417.44 311.04L416.96 310.48C416.48 309.92 416.24 309.413 416.24 308.96ZM446.788 308.96C446.788 308.533 446.935 308.2 447.228 307.96C447.548 307.72 447.962 307.6 448.468 307.6H460.348C465.095 307.6 468.775 308.72 471.388 310.96C474.028 313.173 475.348 316.467 475.348 320.84C475.348 323.213 474.962 325.32 474.188 327.16C473.442 328.973 472.388 330.453 471.028 331.6C469.695 332.72 468.162 333.573 466.428 334.16C464.695 334.72 462.802 335 460.748 335H448.468C447.962 335 447.548 334.88 447.228 334.64C446.935 334.4 446.788 334.067 446.788 333.64C446.788 333.16 447.015 332.653 447.468 332.12L447.988 331.56C448.628 330.84 448.948 329.867 448.948 328.64V313.96C448.948 312.733 448.628 311.76 447.988 311.04L447.468 310.48C447.015 309.893 446.788 309.387 446.788 308.96ZM456.788 331.24C457.268 331.587 458.202 331.76 459.588 331.76C462.175 331.76 464.162 330.867 465.548 329.08C466.962 327.293 467.668 324.667 467.668 321.2C467.668 314.293 464.975 310.84 459.588 310.84C458.202 310.84 457.255 311.013 456.748 311.36C456.268 311.707 456.028 312.293 456.028 313.12V329.48C456.028 330.307 456.282 330.893 456.788 331.24ZM478.507 333.64C478.507 333.16 478.734 332.653 479.187 332.12L479.707 331.56C480.347 330.84 480.667 329.867 480.667 328.64V313.96C480.667 312.733 480.347 311.76 479.707 311.04L479.187 310.48C478.734 309.893 478.507 309.387 478.507 308.96C478.507 308.533 478.654 308.2 478.947 307.96C479.267 307.72 479.681 307.6 480.187 307.6H498.667C500.107 307.6 500.867 308.2 500.947 309.4L501.147 314.08C501.147 314.133 501.147 314.173 501.147 314.2C501.147 314.627 501.027 314.987 500.787 315.28C500.547 315.547 500.214 315.68 499.787 315.68C499.094 315.68 498.387 315.133 497.667 314.04C497.054 313.107 496.494 312.427 495.987 312C495.054 311.227 493.521 310.84 491.387 310.84C489.921 310.84 488.947 310.987 488.467 311.28C487.987 311.547 487.747 312.04 487.747 312.76V319.52H490.147C490.761 319.52 491.281 319.427 491.707 319.24C492.161 319.053 492.627 318.613 493.107 317.92C493.721 316.987 494.307 316.52 494.867 316.52C495.214 316.52 495.494 316.64 495.707 316.88C495.947 317.12 496.067 317.453 496.067 317.88V324.4C496.067 325.333 495.667 325.8 494.867 325.8C494.521 325.8 494.227 325.707 493.987 325.52C493.774 325.307 493.481 324.92 493.107 324.36C492.414 323.32 491.427 322.8 490.147 322.8H487.747V329.84C487.747 330.56 487.987 331.067 488.467 331.36C488.974 331.627 489.974 331.76 491.467 331.76C492.881 331.76 493.947 331.64 494.667 331.4C495.414 331.133 496.054 330.707 496.587 330.12C497.201 329.4 497.787 328.613 498.347 327.76C499.174 326.64 499.921 326.08 500.587 326.08C501.067 326.08 501.401 326.24 501.587 326.56C501.801 326.853 501.907 327.173 501.907 327.52C501.907 327.68 501.894 327.84 501.867 328L501.027 332.96C500.814 334.32 500.067 335 498.787 335H480.187C479.681 335 479.267 334.88 478.947 334.64C478.654 334.4 478.507 334.067 478.507 333.64ZM504.913 308.92C504.913 308.52 505.073 308.2 505.393 307.96C505.713 307.72 506.113 307.6 506.593 307.6H518.513C522.113 307.6 524.927 308.267 526.953 309.6C528.98 310.907 529.993 312.693 529.993 314.96C529.993 317.173 529.247 318.92 527.753 320.2C526.26 321.48 524.42 322.28 522.233 322.6C522.687 322.707 523.1 322.84 523.473 323C523.873 323.16 524.247 323.387 524.593 323.68C524.94 323.947 525.22 324.173 525.433 324.36C525.647 324.547 525.887 324.867 526.153 325.32C526.447 325.747 526.647 326.04 526.753 326.2C526.86 326.36 527.06 326.72 527.353 327.28C527.647 327.813 527.82 328.133 527.873 328.24C528.433 329.28 528.94 330.04 529.393 330.52C529.873 331 530.513 331.413 531.313 331.76C531.793 331.92 532.113 332.08 532.273 332.24C532.46 332.4 532.553 332.667 532.553 333.04C532.553 333.707 532.087 334.267 531.153 334.72C530.247 335.173 529.1 335.4 527.713 335.4C526.033 335.4 524.713 335.027 523.753 334.28C522.793 333.507 521.953 332.347 521.233 330.8C521.02 330.32 520.727 329.56 520.353 328.52C519.98 327.48 519.673 326.693 519.433 326.16C519.193 325.6 518.793 325.08 518.233 324.6C517.673 324.12 517.007 323.88 516.233 323.88H514.153V328.64C514.153 329.867 514.473 330.84 515.113 331.56L515.633 332.12C516.087 332.707 516.313 333.213 516.313 333.64C516.313 334.04 516.153 334.373 515.833 334.64C515.513 334.88 515.113 335 514.633 335H506.593C506.087 335 505.673 334.88 505.353 334.64C505.06 334.4 504.913 334.067 504.913 333.64C504.913 333.16 505.14 332.653 505.593 332.12L506.113 331.56C506.753 330.867 507.073 329.893 507.073 328.64V313.96C507.073 312.733 506.753 311.76 506.113 311.04L505.593 310.48C505.14 309.893 504.913 309.373 504.913 308.92ZM514.153 313.36V320.84H516.713C518.74 320.84 520.233 320.44 521.193 319.64C522.18 318.813 522.673 317.48 522.673 315.64C522.673 313.907 522.247 312.68 521.393 311.96C520.54 311.213 519.273 310.84 517.593 310.84C516.153 310.84 515.22 311.013 514.793 311.36C514.367 311.68 514.153 312.347 514.153 313.36ZM534.572 324.56V322.04C534.572 321.4 534.906 321.08 535.572 321.08H546.052C546.719 321.08 547.052 321.4 547.052 322.04V324.56C547.052 325.2 546.719 325.52 546.052 325.52H535.572C534.906 325.52 534.572 325.2 534.572 324.56ZM548.925 314.92L549.165 309.4C549.191 308.2 549.938 307.6 551.405 307.6H572.405C573.871 307.6 574.618 308.2 574.645 309.4L574.885 314.92C574.885 314.973 574.885 315.013 574.885 315.04C574.885 315.467 574.751 315.827 574.485 316.12C574.218 316.387 573.858 316.52 573.405 316.52C572.631 316.52 571.951 315.947 571.365 314.8C570.645 313.28 570.058 312.307 569.605 311.88C568.885 311.187 567.898 310.84 566.645 310.84H565.445V328.64C565.445 329.893 565.765 330.867 566.405 331.56L566.925 332.12C567.378 332.68 567.605 333.187 567.605 333.64C567.605 334.067 567.445 334.4 567.125 334.64C566.831 334.88 566.431 335 565.925 335H557.925C557.391 335 556.965 334.88 556.645 334.64C556.351 334.4 556.205 334.067 556.205 333.64C556.205 333.187 556.445 332.68 556.925 332.12L557.405 331.56C558.045 330.84 558.365 329.867 558.365 328.64V310.84H557.285C555.951 310.84 554.925 311.187 554.205 311.88C553.751 312.307 553.165 313.28 552.445 314.8C551.858 315.947 551.178 316.52 550.405 316.52C549.951 316.52 549.591 316.387 549.325 316.12C549.058 315.827 548.925 315.467 548.925 315.04C548.925 315.013 548.925 314.973 548.925 314.92ZM577.648 308.96C577.648 308.533 577.794 308.2 578.088 307.96C578.408 307.72 578.821 307.6 579.328 307.6H587.368C587.874 307.6 588.274 307.72 588.568 307.96C588.888 308.2 589.048 308.533 589.048 308.96C589.048 309.387 588.821 309.893 588.368 310.48L587.848 311.04C587.208 311.76 586.888 312.733 586.888 313.96V319.52H597.408V313.96C597.408 312.733 597.088 311.76 596.448 311.04L595.928 310.48C595.474 309.893 595.248 309.387 595.248 308.96C595.248 308.533 595.394 308.2 595.688 307.96C596.008 307.72 596.421 307.6 596.928 307.6H604.968C605.474 307.6 605.874 307.72 606.168 307.96C606.488 308.2 606.648 308.533 606.648 308.96C606.648 309.387 606.421 309.893 605.968 310.48L605.448 311.04C604.808 311.733 604.488 312.707 604.488 313.96V328.64C604.488 329.893 604.808 330.867 605.448 331.56L605.968 332.12C606.421 332.68 606.648 333.187 606.648 333.64C606.648 334.067 606.488 334.4 606.168 334.64C605.874 334.88 605.474 335 604.968 335H596.928C596.421 335 596.008 334.88 595.688 334.64C595.394 334.4 595.248 334.067 595.248 333.64C595.248 333.213 595.474 332.707 595.928 332.12L596.448 331.56C597.088 330.84 597.408 329.867 597.408 328.64V323.04H586.888V328.64C586.888 329.893 587.208 330.867 587.848 331.56L588.368 332.12C588.821 332.68 589.048 333.187 589.048 333.64C589.048 334.067 588.888 334.4 588.568 334.64C588.274 334.88 587.874 335 587.368 335H579.328C578.821 335 578.408 334.88 578.088 334.64C577.794 334.4 577.648 334.067 577.648 333.64C577.648 333.213 577.874 332.707 578.328 332.12L578.848 331.56C579.488 330.84 579.808 329.867 579.808 328.64V313.96C579.808 312.733 579.488 311.76 578.848 311.04L578.328 310.48C577.874 309.893 577.648 309.387 577.648 308.96ZM609.913 333.64C609.913 333.16 610.14 332.653 610.593 332.12L611.113 331.56C611.753 330.84 612.073 329.867 612.073 328.64V313.96C612.073 312.733 611.753 311.76 611.113 311.04L610.593 310.48C610.14 309.893 609.913 309.387 609.913 308.96C609.913 308.533 610.06 308.2 610.353 307.96C610.673 307.72 611.087 307.6 611.593 307.6H630.073C631.513 307.6 632.273 308.2 632.353 309.4L632.553 314.08C632.553 314.133 632.553 314.173 632.553 314.2C632.553 314.627 632.433 314.987 632.193 315.28C631.953 315.547 631.62 315.68 631.193 315.68C630.5 315.68 629.793 315.133 629.073 314.04C628.46 313.107 627.9 312.427 627.393 312C626.46 311.227 624.927 310.84 622.793 310.84C621.327 310.84 620.353 310.987 619.873 311.28C619.393 311.547 619.153 312.04 619.153 312.76V319.52H621.553C622.167 319.52 622.687 319.427 623.113 319.24C623.567 319.053 624.033 318.613 624.513 317.92C625.127 316.987 625.713 316.52 626.273 316.52C626.62 316.52 626.9 316.64 627.113 316.88C627.353 317.12 627.473 317.453 627.473 317.88V324.4C627.473 325.333 627.073 325.8 626.273 325.8C625.927 325.8 625.633 325.707 625.393 325.52C625.18 325.307 624.887 324.92 624.513 324.36C623.82 323.32 622.833 322.8 621.553 322.8H619.153V329.84C619.153 330.56 619.393 331.067 619.873 331.36C620.38 331.627 621.38 331.76 622.873 331.76C624.287 331.76 625.353 331.64 626.073 331.4C626.82 331.133 627.46 330.707 627.993 330.12C628.607 329.4 629.193 328.613 629.753 327.76C630.58 326.64 631.327 326.08 631.993 326.08C632.473 326.08 632.807 326.24 632.993 326.56C633.207 326.853 633.313 327.173 633.313 327.52C633.313 327.68 633.3 327.84 633.273 328L632.433 332.96C632.22 334.32 631.473 335 630.193 335H611.593C611.087 335 610.673 334.88 610.353 334.64C610.06 334.4 609.913 334.067 609.913 333.64ZM636.76 324.56V322.04C636.76 321.4 637.093 321.08 637.76 321.08H648.24C648.906 321.08 649.24 321.4 649.24 322.04V324.56C649.24 325.2 648.906 325.52 648.24 325.52H637.76C637.093 325.52 636.76 325.2 636.76 324.56ZM652.96 308.92C652.96 308.52 653.12 308.2 653.44 307.96C653.76 307.72 654.16 307.6 654.64 307.6H666.56C670.16 307.6 672.974 308.267 675 309.6C677.027 310.907 678.04 312.693 678.04 314.96C678.04 317.173 677.294 318.92 675.8 320.2C674.307 321.48 672.467 322.28 670.28 322.6C670.734 322.707 671.147 322.84 671.52 323C671.92 323.16 672.294 323.387 672.64 323.68C672.987 323.947 673.267 324.173 673.48 324.36C673.694 324.547 673.934 324.867 674.2 325.32C674.494 325.747 674.694 326.04 674.8 326.2C674.907 326.36 675.107 326.72 675.4 327.28C675.694 327.813 675.867 328.133 675.92 328.24C676.48 329.28 676.987 330.04 677.44 330.52C677.92 331 678.56 331.413 679.36 331.76C679.84 331.92 680.16 332.08 680.32 332.24C680.507 332.4 680.6 332.667 680.6 333.04C680.6 333.707 680.134 334.267 679.2 334.72C678.294 335.173 677.147 335.4 675.76 335.4C674.08 335.4 672.76 335.027 671.8 334.28C670.84 333.507 670 332.347 669.28 330.8C669.067 330.32 668.774 329.56 668.4 328.52C668.027 327.48 667.72 326.693 667.48 326.16C667.24 325.6 666.84 325.08 666.28 324.6C665.72 324.12 665.054 323.88 664.28 323.88H662.2V328.64C662.2 329.867 662.52 330.84 663.16 331.56L663.68 332.12C664.134 332.707 664.36 333.213 664.36 333.64C664.36 334.04 664.2 334.373 663.88 334.64C663.56 334.88 663.16 335 662.68 335H654.64C654.134 335 653.72 334.88 653.4 334.64C653.107 334.4 652.96 334.067 652.96 333.64C652.96 333.16 653.187 332.653 653.64 332.12L654.16 331.56C654.8 330.867 655.12 329.893 655.12 328.64V313.96C655.12 312.733 654.8 311.76 654.16 311.04L653.64 310.48C653.187 309.893 652.96 309.373 652.96 308.92ZM662.2 313.36V320.84H664.76C666.787 320.84 668.28 320.44 669.24 319.64C670.227 318.813 670.72 317.48 670.72 315.64C670.72 313.907 670.294 312.68 669.44 311.96C668.587 311.213 667.32 310.84 665.64 310.84C664.2 310.84 663.267 311.013 662.84 311.36C662.414 311.68 662.2 312.347 662.2 313.36ZM683.394 331.84C684.247 331.227 684.874 330.427 685.274 329.44L693.714 309.12C694.087 308.107 694.807 307.6 695.874 307.6H698.714C699.86 307.6 700.62 308.107 700.994 309.12L709.114 329.24C709.54 330.28 710.1 331.067 710.794 331.6C711.647 332.373 712.074 333.027 712.074 333.56C712.074 334.52 711.514 335 710.394 335H702.114C700.994 335 700.434 334.52 700.434 333.56C700.434 333.213 700.687 332.733 701.194 332.12C701.594 331.56 701.794 331.107 701.794 330.76C701.794 330.44 701.674 329.987 701.434 329.4L700.674 327.4H690.074L689.354 329.24C689.06 329.933 688.914 330.453 688.914 330.8C688.914 331.227 689.167 331.667 689.674 332.12C690.18 332.627 690.434 333.107 690.434 333.56C690.434 333.96 690.274 334.307 689.954 334.6C689.634 334.867 689.22 335 688.714 335H683.794C682.674 335 682.114 334.56 682.114 333.68C682.114 333.093 682.54 332.48 683.394 331.84ZM699.514 324.28L695.474 313.52L691.274 324.28H699.514ZM714.249 308.96C714.249 308.533 714.396 308.2 714.689 307.96C715.009 307.72 715.423 307.6 715.929 307.6H727.809C732.556 307.6 736.236 308.72 738.849 310.96C741.489 313.173 742.809 316.467 742.809 320.84C742.809 323.213 742.423 325.32 741.649 327.16C740.903 328.973 739.849 330.453 738.489 331.6C737.156 332.72 735.623 333.573 733.889 334.16C732.156 334.72 730.263 335 728.209 335H715.929C715.423 335 715.009 334.88 714.689 334.64C714.396 334.4 714.249 334.067 714.249 333.64C714.249 333.16 714.476 332.653 714.929 332.12L715.449 331.56C716.089 330.84 716.409 329.867 716.409 328.64V313.96C716.409 312.733 716.089 311.76 715.449 311.04L714.929 310.48C714.476 309.893 714.249 309.387 714.249 308.96ZM724.249 331.24C724.729 331.587 725.663 331.76 727.049 331.76C729.636 331.76 731.623 330.867 733.009 329.08C734.423 327.293 735.129 324.667 735.129 321.2C735.129 314.293 732.436 310.84 727.049 310.84C725.663 310.84 724.716 311.013 724.209 311.36C723.729 311.707 723.489 312.293 723.489 313.12V329.48C723.489 330.307 723.743 330.893 724.249 331.24ZM744.527 331.84C745.38 331.227 746.007 330.427 746.407 329.44L754.847 309.12C755.22 308.107 755.94 307.6 757.007 307.6H759.847C760.993 307.6 761.753 308.107 762.127 309.12L770.247 329.24C770.673 330.28 771.233 331.067 771.927 331.6C772.78 332.373 773.207 333.027 773.207 333.56C773.207 334.52 772.647 335 771.527 335H763.247C762.127 335 761.567 334.52 761.567 333.56C761.567 333.213 761.82 332.733 762.327 332.12C762.727 331.56 762.927 331.107 762.927 330.76C762.927 330.44 762.807 329.987 762.567 329.4L761.807 327.4H751.207L750.487 329.24C750.193 329.933 750.047 330.453 750.047 330.8C750.047 331.227 750.3 331.667 750.807 332.12C751.313 332.627 751.567 333.107 751.567 333.56C751.567 333.96 751.407 334.307 751.087 334.6C750.767 334.867 750.353 335 749.847 335H744.927C743.807 335 743.247 334.56 743.247 333.68C743.247 333.093 743.673 332.48 744.527 331.84ZM760.647 324.28L756.607 313.52L752.407 324.28H760.647ZM775.382 308.92C775.382 308.52 775.542 308.2 775.862 307.96C776.182 307.72 776.582 307.6 777.062 307.6H788.982C792.582 307.6 795.396 308.267 797.422 309.6C799.449 310.907 800.462 312.693 800.462 314.96C800.462 317.173 799.716 318.92 798.222 320.2C796.729 321.48 794.889 322.28 792.702 322.6C793.156 322.707 793.569 322.84 793.942 323C794.342 323.16 794.716 323.387 795.062 323.68C795.409 323.947 795.689 324.173 795.902 324.36C796.116 324.547 796.356 324.867 796.622 325.32C796.916 325.747 797.116 326.04 797.222 326.2C797.329 326.36 797.529 326.72 797.822 327.28C798.116 327.813 798.289 328.133 798.342 328.24C798.902 329.28 799.409 330.04 799.862 330.52C800.342 331 800.982 331.413 801.782 331.76C802.262 331.92 802.582 332.08 802.742 332.24C802.929 332.4 803.022 332.667 803.022 333.04C803.022 333.707 802.556 334.267 801.622 334.72C800.716 335.173 799.569 335.4 798.182 335.4C796.502 335.4 795.182 335.027 794.222 334.28C793.262 333.507 792.422 332.347 791.702 330.8C791.489 330.32 791.196 329.56 790.822 328.52C790.449 327.48 790.142 326.693 789.902 326.16C789.662 325.6 789.262 325.08 788.702 324.6C788.142 324.12 787.476 323.88 786.702 323.88H784.622V328.64C784.622 329.867 784.942 330.84 785.582 331.56L786.102 332.12C786.556 332.707 786.782 333.213 786.782 333.64C786.782 334.04 786.622 334.373 786.302 334.64C785.982 334.88 785.582 335 785.102 335H777.062C776.556 335 776.142 334.88 775.822 334.64C775.529 334.4 775.382 334.067 775.382 333.64C775.382 333.16 775.609 332.653 776.062 332.12L776.582 331.56C777.222 330.867 777.542 329.893 777.542 328.64V313.96C777.542 312.733 777.222 311.76 776.582 311.04L776.062 310.48C775.609 309.893 775.382 309.373 775.382 308.92ZM784.622 313.36V320.84H787.182C789.209 320.84 790.702 320.44 791.662 319.64C792.649 318.813 793.142 317.48 793.142 315.64C793.142 313.907 792.716 312.68 791.862 311.96C791.009 311.213 789.742 310.84 788.062 310.84C786.622 310.84 785.689 311.013 785.262 311.36C784.836 311.68 784.622 312.347 784.622 313.36ZM817.979 335H821.579V307H817.979V335ZM829.815 335H839.215C847.615 335 852.735 329.68 852.735 320.92C852.735 312.64 847.455 307 839.495 307H829.815V335ZM833.415 331.6V310.4H838.855C845.535 310.4 848.935 314.52 848.935 320.92C848.935 328.04 845.495 331.6 838.575 331.6H833.415ZM859.034 335H878.554V331.6H862.634V322.16H874.394V318.8H862.634V310.4H878.554V307H859.034V335ZM902.979 335H907.019L896.779 307H891.699L881.219 335H885.099L887.819 327.44H900.299L902.979 335ZM889.019 324.04L891.899 316.12C892.379 314.8 892.699 313.72 892.899 312.8C893.099 311.88 893.259 310.84 893.299 309.68H894.899C894.899 310.84 895.019 311.84 895.219 312.68C895.419 313.52 895.779 314.64 896.299 316.12L899.099 324.04H889.019ZM406.983 382H419.543C424.543 382 428.583 379.56 428.583 374.48C428.583 370.24 425.423 368.24 421.863 368.08V366.52C425.263 366.28 427.663 364.36 427.663 360.64C427.663 356.88 424.743 354 418.983 354H406.983V382ZM410.583 365.8V357.4H418.663C421.903 357.4 423.863 358.84 423.863 361.4C423.863 364 421.823 365.8 418.663 365.8H410.583ZM410.583 378.6V369.16H419.023C422.583 369.16 424.703 370.92 424.703 373.8C424.703 376.68 422.543 378.6 419.023 378.6H410.583ZM434.952 382H438.552V370.28H444.472C448.392 370.28 450.232 371.6 450.872 375.24L452.072 382H456.032L454.592 374.92C453.792 371.12 452.472 369.64 448.592 369.56V367.96C452.232 367.72 455.512 365.96 455.512 361.64C455.512 357.32 452.192 354 446.552 354H434.952V382ZM438.552 366.92V357.4H446.072C449.472 357.4 451.712 359 451.712 362.16C451.712 365.32 449.472 366.92 446.072 366.92H438.552ZM460.217 368C460.057 376.56 466.377 382.68 474.097 382.56C481.817 382.68 488.017 376.56 487.897 368C488.017 359.44 481.817 353.32 474.097 353.44C466.377 353.32 460.057 359.44 460.217 368ZM484.057 368C484.057 374.44 480.217 379.16 474.057 379.16C467.897 379.16 464.057 374.44 464.057 368C464.057 361.56 467.897 356.84 474.057 356.84C480.177 356.84 484.057 361.56 484.057 368ZM493.693 371.2C493.693 378.84 497.573 382.56 504.293 382.56C511.293 382.56 514.893 378.52 514.893 371.2V354H511.293V370.68C511.293 375.96 508.973 379.12 504.293 379.12C499.613 379.12 497.293 376 497.293 370.68V354H493.693V371.2ZM520.725 367.96C520.725 376.8 525.765 382.56 533.285 382.56C539.485 382.56 542.245 378.56 543.165 376H544.925C543.925 378.2 543.445 380.2 543.445 382H547.005V368.32H533.445V371.72H543.245C543.005 375.44 539.725 379.16 534.325 379.16C528.565 379.16 524.605 375 524.605 367.92C524.605 360.92 529.365 356.92 534.485 356.92C538.805 356.92 541.765 359.08 543.325 363.36L547.085 361.84C545.525 357.4 541.365 353.44 534.605 353.44C527.165 353.32 520.565 359.6 520.725 367.96ZM553.819 382H557.419V369.2H572.619V382H576.219V354H572.619V365.8H557.419V354H553.819V382ZM590.684 382H594.284V357.4H604.644V354H580.724V357.4H590.684V382ZM619.825 382H623.425V357.4H633.785V354H609.865V357.4H619.825V382ZM633.928 368C633.768 376.56 640.088 382.68 647.808 382.56C655.528 382.68 661.728 376.56 661.608 368C661.728 359.44 655.528 353.32 647.808 353.44C640.088 353.32 633.768 359.44 633.928 368ZM657.768 368C657.768 374.44 653.928 379.16 647.768 379.16C641.608 379.16 637.768 374.44 637.768 368C637.768 361.56 641.608 356.84 647.768 356.84C653.888 356.84 657.768 361.56 657.768 368ZM682.146 382H685.746V370.04L695.586 354H691.226L686.466 362.32C685.226 364.44 684.826 366.08 684.786 368.12H683.186C683.146 366.16 682.666 364.56 681.386 362.36L676.346 354H671.986L682.146 370.2V382ZM695.803 368C695.643 376.56 701.963 382.68 709.683 382.56C717.403 382.68 723.603 376.56 723.483 368C723.603 359.44 717.403 353.32 709.683 353.44C701.963 353.32 695.643 359.44 695.803 368ZM719.643 368C719.643 374.44 715.803 379.16 709.643 379.16C703.483 379.16 699.643 374.44 699.643 368C699.643 361.56 703.483 356.84 709.643 356.84C715.763 356.84 719.643 361.56 719.643 368ZM729.279 371.2C729.279 378.84 733.159 382.56 739.879 382.56C746.879 382.56 750.479 378.52 750.479 371.2V354H746.879V370.68C746.879 375.96 744.559 379.12 739.879 379.12C735.199 379.12 732.879 376 732.879 370.68V354H729.279V371.2ZM768.663 382H781.223C786.223 382 790.263 379.56 790.263 374.48C790.263 370.24 787.103 368.24 783.543 368.08V366.52C786.943 366.28 789.343 364.36 789.343 360.64C789.343 356.88 786.423 354 780.663 354H768.663V382ZM772.263 365.8V357.4H780.343C783.583 357.4 785.543 358.84 785.543 361.4C785.543 364 783.503 365.8 780.343 365.8H772.263ZM772.263 378.6V369.16H780.703C784.263 369.16 786.383 370.92 786.383 373.8C786.383 376.68 784.223 378.6 780.703 378.6H772.263ZM803.592 382H807.192V370.04L817.032 354H812.672L807.912 362.32C806.672 364.44 806.272 366.08 806.232 368.12H804.632C804.592 366.16 804.112 364.56 802.832 362.36L797.792 354H793.432L803.592 370.2V382ZM608.885 459.112C608.245 457.875 607.391 456.616 606.325 455.336C605.301 454.013 604.17 452.755 602.933 451.56C601.695 450.365 600.351 449.277 598.901 448.296C597.493 447.272 596.085 446.44 594.677 445.8L596.597 442.728C597.706 443.283 598.815 443.965 599.925 444.776C601.034 445.587 602.101 446.461 603.125 447.4C604.149 448.339 605.087 449.32 605.941 450.344C606.794 451.325 607.519 452.264 608.117 453.16V410.28H611.765V453.416C612.362 452.52 613.066 451.56 613.877 450.536C614.73 449.512 615.669 448.531 616.693 447.592C617.717 446.611 618.783 445.693 619.893 444.84C621.045 443.987 622.197 443.283 623.349 442.728L625.333 445.8C623.925 446.44 622.495 447.272 621.045 448.296C619.637 449.277 618.314 450.365 617.076 451.56C615.839 452.755 614.687 454.013 613.621 455.336C612.597 456.616 611.765 457.875 611.125 459.112H608.885Z" fill="black"/>
</g>
</svg>
