<svg width="19" height="19" viewBox="0 0 19 19" fill="none" xmlns="http://www.w3.org/2000/svg">
<path d="M19 9.025L12.92 8.455C12.635 8.455 12.445 8.075 12.635 7.79L16.53 3.135L15.865 2.47L11.21 6.365C10.925 6.555 10.64 6.365 10.545 6.08L9.975 0H9.025L8.455 5.985C8.455 6.27 8.075 6.46 7.79 6.27L3.135 2.47L2.47 3.135L6.27 7.79C6.46 8.075 6.27 8.36 5.985 8.455L0 9.025V9.975L6.08 10.545C6.365 10.545 6.555 10.925 6.365 11.21L2.565 15.865L3.23 16.53L7.885 12.635C8.17 12.445 8.455 12.635 8.55 12.92L9.025 19H9.975L10.545 12.92C10.545 12.635 10.925 12.445 11.21 12.635L15.865 16.53L16.53 15.865L12.635 11.21C12.445 10.925 12.635 10.64 12.92 10.545L19 9.975V9.025Z" fill="#162C29"/>
</svg>
