<svg width="496" height="489" viewBox="0 0 496 489" fill="none" xmlns="http://www.w3.org/2000/svg">
<rect x="74.4924" y="67.4924" width="365.015" height="364.015" fill="#BB9CFE" stroke="black" stroke-width="4.98487"/>
<path d="M161.192 95.39L229.82 140.19L231.794 141.479L233.199 139.606L282.195 74.2946L305.647 152.223L306.327 154.483L308.635 153.938L388.582 135.065L355.912 209.66L354.965 211.822L357.099 212.878L430.603 249.25L357.083 285.63L354.969 286.676L355.914 288.832L388.595 363.453L308.613 344.572L306.319 344.03L305.646 346.266L282.186 424.222L233.194 358.915L231.778 357.028L229.806 358.316L161.194 403.105L166.101 321.954L166.244 319.598L163.877 319.328L82.2329 310.017L138.73 250.968L140.361 249.263L138.723 247.551L82.2206 188.497L163.9 179.182L166.242 178.915L166.101 176.579L161.192 95.39Z" fill="#FEB29C" stroke="black" stroke-width="4.98487"/>
</svg>
