<svg width="434" height="381" viewBox="0 0 434 381" fill="none" xmlns="http://www.w3.org/2000/svg">
<path d="M-1.27419e-05 272.069C35.3517 236.557 53.0275 218.801 72.4109 209.91C103.563 195.621 139.355 195.621 170.507 209.91C189.89 218.801 207.566 236.557 242.918 272.069C207.566 307.581 189.89 325.337 170.507 334.227C139.355 348.516 103.563 348.516 72.4109 334.227C53.0275 325.337 35.3517 307.581 -1.27419e-05 272.069Z" fill="white"/>
<path d="M335.229 72.8754C299.877 108.387 282.201 126.143 262.818 135.034C231.666 149.323 195.873 149.323 164.722 135.034C145.338 126.143 127.662 108.387 92.3106 72.8753C127.662 37.3634 145.338 19.6074 164.722 10.7166C195.873 -3.5722 231.666 -3.5722 262.818 10.7166C282.201 19.6074 299.877 37.3634 335.229 72.8754Z" fill="white"/>
<ellipse cx="238.061" cy="72.8756" rx="48.5836" ry="48.5836" transform="rotate(-180 238.061 72.8756)" fill="#DB9A4E"/>
<ellipse cx="92.3097" cy="272.069" rx="48.5836" ry="48.5836" fill="#DB9A4E"/>
<path fill-rule="evenodd" clip-rule="evenodd" d="M297.259 178.011C312.065 163.286 334.052 153.863 362.855 153.863C392.16 153.863 412.149 166.035 423.344 182.471C434.33 198.601 436.613 218.567 431.155 233.767L428.971 239.85L416.804 235.481L418.989 229.398C422.958 218.345 421.47 202.684 412.66 189.748C404.059 177.12 388.226 166.79 362.855 166.79C336.984 166.79 318.436 175.181 306.375 187.177C294.257 199.229 288.249 215.349 288.249 231.582C288.249 251.798 297.768 267.533 310.718 282.466C315.763 288.283 321.167 293.803 326.663 299.417C328.274 301.062 329.892 302.715 331.512 304.386C338.546 311.644 345.533 319.175 351.185 327.263C355.472 333.399 358.948 339.2 361.998 344.291L362.16 344.562C365.306 349.813 367.903 354.118 370.604 357.658C373.263 361.143 375.78 363.551 378.557 365.128C381.266 366.665 384.605 367.631 389.25 367.631C395.288 367.631 399.46 366.134 402.417 364.074C405.407 361.991 407.595 359.022 409.127 355.402C412.281 347.95 412.292 338.534 411.164 332.079L410.05 325.712L422.784 323.486L423.897 329.852C425.282 337.773 425.483 349.922 421.032 360.44C418.762 365.805 415.2 370.923 409.807 374.68C404.383 378.46 397.541 380.558 389.25 380.558C382.661 380.558 377.069 379.148 372.175 376.369C367.35 373.63 363.592 369.779 360.326 365.498C357.104 361.275 354.129 356.309 351.076 351.213L350.976 351.047C347.892 345.9 344.614 340.428 340.589 334.668C335.573 327.49 329.214 320.59 322.229 313.383C320.713 311.818 319.162 310.235 317.594 308.633C312.052 302.973 306.279 297.078 300.952 290.935C287.186 275.061 275.322 256.371 275.322 231.582C275.322 212.188 282.511 192.68 297.259 178.011Z" fill="white"/>
<path fill-rule="evenodd" clip-rule="evenodd" d="M388.025 207.266C392.369 213.686 394.03 221.949 392.638 231.691L391.724 238.09L378.927 236.262L379.841 229.863C380.878 222.6 379.503 217.738 377.318 214.51C375.105 211.239 371.563 208.908 366.949 207.667C357.43 205.108 344.934 207.666 336.765 214.018C332.284 217.502 329.828 221.358 328.753 225.356C327.661 229.414 327.858 234.126 329.545 239.448C332.973 250.258 342.282 262.654 356.369 274.392C361.597 278.749 366.886 284.712 370.909 290.94C374.804 296.971 378.128 304.195 378.128 310.937V317.401H365.201V310.937C365.201 307.962 363.517 303.321 360.05 297.954C356.711 292.784 352.283 287.815 348.093 284.323C333.029 271.77 321.691 257.445 317.223 243.356C314.963 236.228 314.401 228.947 316.27 221.999C318.155 214.991 322.38 208.828 328.83 203.813L328.83 203.813C340.094 195.054 356.749 191.538 370.306 195.184C377.231 197.046 383.709 200.888 388.025 207.266Z" fill="white"/>
<path fill-rule="evenodd" clip-rule="evenodd" d="M419.555 261.096L413.554 263.496C408.016 265.712 402.475 269.707 400.639 274.003C399.861 275.824 399.671 277.838 400.686 280.364C401.783 283.095 404.454 286.792 410.236 291.239L415.359 295.18L407.477 305.426L402.354 301.485C395.504 296.216 390.949 290.803 388.691 285.184C386.35 279.359 386.676 273.783 388.752 268.923C392.625 259.858 402.145 254.137 408.753 251.494L414.754 249.094L419.555 261.096Z" fill="white"/>
</svg>
