<svg xmlns="http://www.w3.org/2000/svg" fill="none" viewBox="74 66 370 369"><rect x="76.4924" y="68.4924" width="365.015" height="364.015" fill="#BB9CFE" stroke="black" stroke-width="4.98487"></rect><path d="M163.192 96.39L231.82 141.19L233.794 142.479L235.199 140.606L284.195 75.2946L307.647 153.223L308.327 155.483L310.635 154.938L390.582 136.065L357.912 210.66L356.965 212.822L359.1 213.878L432.603 250.25L359.083 286.63L356.969 287.676L357.914 289.832L390.595 364.453L310.613 345.572L308.319 345.03L307.646 347.266L284.186 425.222L235.194 359.915L233.778 358.028L231.806 359.316L163.194 404.105L168.101 322.954L168.244 320.598L165.877 320.328L84.2329 311.017L140.73 251.968L142.361 250.263L140.723 248.551L84.2206 189.497L165.9 180.182L168.242 179.915L168.101 177.579L163.192 96.39Z" fill="#FEB29C" stroke="black" stroke-width="4.98487"></path><path d="M180.865 260.77C185.526 269.005 194.241 270.73 200.453 267.086C202.744 265.778 204.115 264.223 204.661 262.417C205.206 260.611 205.277 258.738 204.988 256.83L207.242 255.543C207.149 257.958 207.77 260.352 208.551 261.69L213.533 258.845L205.934 245.826L192.299 253.613L194.958 258.17L203.176 253.477C204.1 255.89 203.342 259.409 199.233 261.756C195.015 264.165 189.734 262.841 186.61 257.489C183.422 252.028 184.68 246.874 189.225 244.278C192.898 242.181 196.11 242.95 199.001 245.494L203.082 240.608C199.146 237.021 193.22 235.921 186.566 239.722C178.955 243.875 176.392 253.439 180.865 260.77ZM218.656 255.919L237.891 244.934L235.232 240.378L221.523 248.206L217.893 241.986L228.256 236.068L225.638 231.584L215.275 237.502L212.067 232.005L225.775 224.177L223.116 219.62L203.881 230.605L218.656 255.919ZM248.696 238.764L254.223 235.607L242.107 214.85L250.834 209.866L248.174 205.309L225.194 218.433L227.854 222.99L236.58 218.006L248.696 238.764ZM272.452 225.197L277.979 222.041L263.204 196.726L257.677 199.883L272.452 225.197ZM284.099 218.546L289.626 215.389L282.576 203.311C280.191 199.224 278.163 197.827 274.968 195.842L276.029 193.838L302.062 208.287L308.716 204.487L293.94 179.173L288.413 182.329L293.986 191.877C296.38 195.813 297.293 196.546 301.099 198.664L300.117 200.719L277.832 188.372L269.324 193.231L284.099 218.546ZM208.689 313.43L214.216 310.274L202.1 289.516L210.827 284.532L208.167 279.975L185.187 293.099L187.847 297.656L196.573 292.672L208.689 313.43ZM215.654 292.673C219.936 300.257 228.616 302.918 236.937 298.07C245.342 293.366 247.352 284.6 242.852 277.14C238.42 269.546 229.812 266.843 221.486 271.598C213.159 276.353 211.222 285.078 215.654 292.673ZM237.05 280.406C239.984 285.432 239.149 290.731 234.313 293.492C229.405 296.296 224.349 294.361 221.415 289.335C218.459 284.272 219.273 278.937 224.182 276.134C229.018 273.372 234.095 275.343 237.05 280.406ZM248.727 277.401C252.463 283.802 259.3 285.298 266.245 281.332C272.899 277.532 275.362 270.87 271.562 264.361L262.549 248.919L257.022 252.075L265.529 266.649C267.977 270.844 267.537 274.326 263.501 276.631C259.61 278.853 256.259 277.681 253.748 273.377L245.241 258.803L239.714 261.96L248.727 277.401ZM274.18 259.105C278.676 266.808 287.199 269.366 295.089 264.86C301.052 261.454 303.406 256.349 302.363 250.243L296.35 251.072C297.065 254.955 295.899 258.273 292.409 260.267C287.754 262.925 283.191 261.336 279.961 255.803C276.774 250.342 277.716 245.561 282.298 242.945C285.789 240.951 289.068 241.586 292.152 244.212L296.015 239.451C291.974 235.683 285.711 234.92 279.711 238.347C271.975 242.62 269.765 251.79 274.18 259.105ZM310.601 255.23L316.128 252.073L309.859 241.333L320.767 235.103L327.036 245.844L332.563 242.687L317.787 217.373L312.26 220.529L318.107 230.547L307.199 236.776L301.352 226.759L295.825 229.915L310.601 255.23Z" fill="black"></path></svg>