<svg width="418" height="719" viewBox="0 0 418 719" fill="none" xmlns="http://www.w3.org/2000/svg">
<rect x="2.17803" y="2.17803" width="413.644" height="714.644" fill="#C18C5D" stroke="black" stroke-width="4.35607"/>
<mask id="mask0" mask-type="alpha" maskUnits="userSpaceOnUse" x="0" y="0" width="418" height="719">
<rect x="2.17803" y="2.17803" width="413.644" height="714.644" fill="#DB9A4E" stroke="black" stroke-width="4.35607"/>
</mask>
<g mask="url(#mask0)">
<path d="M80.4975 383.968L85.2666 385.529L90.089 370.798L99.9983 374.042C107.735 376.574 113.731 373.491 115.899 366.868C118.068 360.244 115.055 354.212 107.372 351.697L92.6402 346.874L80.4975 383.968ZM91.4767 366.558L95.9349 352.94L104.996 355.906C110.348 357.658 112.201 361.139 110.865 365.22C109.547 369.247 105.837 371.259 100.538 369.525L91.4767 366.558ZM114.548 395.115L119.317 396.676L124.4 381.149L132.242 383.717C137.436 385.417 139.301 387.963 138.57 393.063L137.228 402.539L142.474 404.256L143.637 394.252C144.225 388.871 143.118 386.338 138.013 384.55L138.707 382.43C143.633 383.691 148.741 382.781 150.615 377.059C152.488 371.336 149.53 365.498 142.058 363.052L126.691 358.021L114.548 395.115ZM125.857 376.698L129.985 364.086L139.948 367.348C144.452 368.822 146.726 371.913 145.355 376.099C143.985 380.286 140.323 381.434 135.819 379.959L125.857 376.698ZM154.089 387.524C150.165 398.795 155.884 409.643 166.163 412.832C176.338 416.339 187.206 410.92 190.759 399.528C194.63 388.24 189.07 377.444 178.791 374.255C168.616 370.748 157.589 376.115 154.089 387.524ZM185.672 397.863C182.879 406.394 175.745 410.982 167.584 408.311C159.424 405.639 156.384 397.721 159.176 389.19C161.969 380.658 169.103 376.07 177.264 378.742C185.371 381.396 188.465 389.331 185.672 397.863ZM192.896 420.762L205.348 424.838C216.476 428.481 225.566 423.654 229.365 412.049C232.956 401.08 228.407 391.318 217.862 387.866L205.038 383.668L192.896 420.762ZM199.139 417.819L208.333 389.734L215.54 392.093C224.389 394.99 227.107 401.922 224.331 410.401C221.243 419.833 215.142 423.058 205.975 420.057L199.139 417.819ZM235.757 418.952C232.444 429.073 235.971 435.684 244.873 438.598C254.147 441.634 260.668 437.843 263.842 428.146L271.301 405.36L266.532 403.799L259.299 425.896C257.009 432.891 252.565 436.071 246.365 434.041C240.165 432.012 238.445 426.872 240.752 419.825L247.986 397.727L243.216 396.166L235.757 418.952ZM273.026 426.048C269.328 436.806 273.215 448.052 284.554 451.588C293.456 454.502 300.703 451.184 304.411 445.592L300.178 442.212C296.818 446.92 292.652 449.252 286.028 447.084C278.345 444.569 275.269 436.58 278.183 427.678C281.063 418.881 288.024 415 295.708 417.515C298.993 418.591 301.206 420.254 302.417 422.469C303.628 424.684 304.24 426.938 304.235 429.283L309.718 429.2C309.88 423.328 306.297 415.995 297.182 413.011C286.742 409.417 276.353 415.345 273.026 426.048ZM308.399 458.572L334.258 467.038L335.733 462.533L314.642 455.629L318.736 443.124L334.315 448.224L335.772 443.772L320.193 438.672L323.836 427.544L344.926 434.448L346.401 429.944L320.541 421.479L308.399 458.572ZM342.346 469.685L347.115 471.246L352.198 455.72L360.04 458.287C365.233 459.987 367.098 462.534 366.368 467.634L365.026 477.11L370.272 478.827L371.435 468.823C372.023 463.442 370.916 460.909 365.81 459.12L366.504 457.001C371.431 458.261 376.539 457.352 378.412 451.629C380.286 445.906 377.327 440.068 369.856 437.622L354.488 432.592L342.346 469.685ZM353.655 451.269L357.783 438.657L367.745 441.918C372.25 443.393 374.523 446.484 373.153 450.67C371.782 454.856 368.121 456.005 363.617 454.53L353.655 451.269ZM378.021 471.038C377.897 477.51 381.773 483.413 389.456 485.928C397.882 488.687 404.231 485.778 406.382 479.207C408.134 473.855 405.357 468.898 399.626 465.438L394.831 462.519C390.886 460.054 389.57 457.98 390.594 454.854C391.704 451.463 395.276 450.05 399.78 451.525C402.429 452.392 404.235 453.687 405.179 455.463C406.193 457.203 406.679 458.946 406.724 460.78L412.01 460.046C412.11 455.796 409.291 449.71 401.82 447.264C394.348 444.819 387.768 447.534 385.791 453.575C383.865 459.457 386.32 463.429 391.786 466.802L396.386 469.599C400.702 472.185 402.303 474.821 401.263 478.001C400.048 481.71 396.318 483.247 391.231 481.581C385.773 479.795 383.494 475.646 383.43 470.286L378.021 471.038Z" fill="black"/>
<path d="M60.5192 650.317L75.2836 640.907C81.1611 637.161 84.0821 631.266 80.2763 625.295C77.0998 620.311 71.8869 620.327 67.5822 622.806L66.4135 620.972C70.2304 618.143 71.6132 614.088 68.8263 609.715C66.0094 605.295 60.4193 604.097 53.6484 608.413L39.5423 617.403L60.5192 650.317ZM52.6144 628.577L46.3213 618.702L55.8194 612.649C59.628 610.222 63.0108 610.446 64.9287 613.455C66.8766 616.512 65.8271 620.156 62.1125 622.523L52.6144 628.577ZM62.2039 643.623L55.1316 632.526L65.0529 626.203C69.2377 623.536 73.0483 624.017 75.2059 627.402C77.3636 630.788 76.2629 634.663 72.1251 637.3L62.2039 643.623ZM114.932 615.638L119.681 612.612L86.6668 587.369L80.6952 591.175L89.3529 631.941L93.9138 629.034L91.4474 618.109L106.118 608.759L114.932 615.638ZM90.3108 613.213L87.7628 601.746C87.3381 599.835 86.9052 598.325 86.4511 597.094C85.9969 595.863 85.4059 594.52 84.5838 593.127L86.4646 591.928C87.3337 593.292 88.2239 594.377 89.0883 595.215C89.9527 596.052 91.215 597.099 92.935 598.449L102.16 605.662L90.3108 613.213ZM111.249 594.381C117.221 604.063 128.381 608.191 138.307 601.667C146.206 596.632 148.236 588.925 146.265 582.511L140.967 583.64C142.476 589.224 141.637 593.924 135.76 597.67C128.942 602.015 120.815 599.327 115.78 591.427C110.806 583.622 112.22 575.778 119.038 571.433C121.953 569.575 124.643 568.919 127.123 569.387C129.604 569.856 131.734 570.813 133.544 572.304L136.958 568.012C132.521 564.162 124.578 562.282 116.491 567.436C107.091 573.228 105.085 585.02 111.249 594.381ZM180.6 573.786L186.243 570.19L158.187 561.028L162.774 538.864L157.037 542.52L151.975 569.021L149.772 568.573C150.151 565.951 149.637 563.899 147.359 560.326L142.085 552.05L137.853 554.747L158.83 587.661L163.062 584.964L155.63 573.303L157.19 565.895L180.6 573.786ZM174.81 556.782L187.787 548.511L185.09 544.279L172.113 552.55L174.81 556.782ZM205.437 557.957L228.383 543.334L225.835 539.337L207.121 551.264L200.049 540.167L213.873 531.357L211.356 527.407L197.532 536.217L191.239 526.343L209.953 514.416L207.406 510.419L184.46 525.043L205.437 557.957ZM235.559 538.76L239.791 536.063L227.774 517.208C225.047 512.929 223.156 510.895 220.191 509.148L221.13 507.094L258.27 524.286L263.583 520.899L242.606 487.985L238.374 490.682L250.091 509.067C252.669 513.111 254.124 514.564 257.435 516.024L256.478 518.155L221.024 501.74L214.582 505.846L235.559 538.76ZM273.258 514.734L284.308 507.691C294.182 501.398 296.215 491.309 289.652 481.011C283.449 471.278 273.017 468.604 263.66 474.567L252.281 481.819L273.258 514.734ZM274.942 508.04L259.06 483.119L265.455 479.044C273.307 474.039 280.39 476.335 285.185 483.858C290.519 492.228 289.143 498.99 281.008 504.174L274.942 508.04Z" fill="black"/>
<path d="M44.1401 704.416L49.3791 702.351L21.7845 671.276L15.1968 673.873L15.9217 715.541L20.9533 713.558L20.6155 702.363L36.7995 695.983L44.1401 704.416ZM20.4333 697.341L20.1189 685.598C20.0665 683.64 19.9293 682.076 19.7183 680.781C19.5073 679.486 19.1831 678.055 18.6419 676.53L20.7168 675.712C21.3098 677.217 21.9767 678.452 22.6655 679.439C23.3543 680.426 24.3938 681.695 25.8248 683.348L33.505 692.187L20.4333 697.341ZM55.7407 699.843L60.4092 698.002L54.4172 682.804L62.0942 679.777C67.1777 677.773 70.2387 678.544 72.9296 682.937L77.9419 691.09L83.0772 689.065L77.5901 680.62C74.6098 676.101 72.1414 674.857 67.0689 676.737L66.2509 674.662C70.8485 672.49 74.2022 668.531 71.9936 662.928C69.7849 657.326 63.7821 654.718 56.4682 657.602L41.4254 663.532L55.7407 699.843ZM52.6993 678.446L47.8321 666.101L57.584 662.256C61.9931 660.518 65.716 661.448 67.3316 665.545C68.9472 669.643 66.8604 672.863 62.4513 674.602L52.6993 678.446ZM97.9243 683.212L102.593 681.371L90.0157 649.47L103.451 644.173L101.712 639.764L70.6929 651.994L72.4311 656.403L85.3473 651.311L97.9243 683.212ZM131.472 669.986L143.662 665.18C154.555 660.885 158.474 651.369 153.996 640.009C149.762 629.271 140.032 624.657 129.709 628.726L117.156 633.675L131.472 669.986ZM134.402 663.736L123.563 636.244L130.618 633.463C139.28 630.047 145.796 633.652 149.068 641.951C152.708 651.185 150.067 657.56 141.093 661.098L134.402 663.736ZM169.362 655.047L174.031 653.207L159.716 616.896L155.047 618.737L169.362 655.047ZM184.711 648.996L189.38 647.155L183.388 631.957L191.065 628.93C196.148 626.926 199.209 627.697 201.9 632.09L206.912 640.243L212.048 638.219L206.561 629.773C203.58 625.255 201.112 624.01 196.039 625.89L195.221 623.815C199.819 621.643 203.173 617.684 200.964 612.082C198.755 606.479 192.753 603.871 185.439 606.755L170.396 612.686L184.711 648.996ZM181.67 627.6L176.803 615.254L186.555 611.41C190.964 609.671 194.687 610.601 196.302 614.699C197.918 618.797 195.831 622.017 191.422 623.755L181.67 627.6ZM220.12 635.036L245.433 625.056L243.695 620.647L223.05 628.786L218.224 616.545L233.474 610.532L231.756 606.175L216.506 612.187L212.211 601.294L232.856 593.155L231.118 588.746L205.805 598.726L220.12 635.036ZM241.277 605.298C245.293 615.942 255.461 622.122 266.448 617.61C275.163 614.175 278.626 606.996 277.913 600.324L272.498 600.421C272.914 606.191 271.194 610.645 264.71 613.201C257.189 616.166 249.723 611.977 246.288 603.263C242.893 594.652 245.777 587.222 253.299 584.257C256.515 582.989 259.28 582.857 261.626 583.791C263.971 584.724 265.88 586.069 267.372 587.878L271.542 584.316C267.92 579.691 260.482 576.33 251.56 579.847C241.228 583.741 237.01 594.934 241.277 605.298ZM296.648 604.865L301.317 603.024L288.74 571.123L302.175 565.826L300.436 561.417L269.417 573.647L271.155 578.056L284.071 572.963L296.648 604.865ZM307.779 579.499C311.948 590.682 323.273 595.387 333.223 591.284C343.295 587.493 348.207 576.387 343.675 565.348C339.454 554.186 328.285 549.419 318.335 553.522C308.262 557.313 303.195 568.481 307.779 579.499ZM338.695 567.311C341.987 575.662 339.421 583.746 331.433 586.896C323.444 590.045 316.051 585.887 312.759 577.536C309.466 569.185 312.033 561.101 320.021 557.951C327.958 554.822 335.402 558.959 338.695 567.311ZM358.867 580.335L363.536 578.494L357.544 563.296L365.221 560.269C370.304 558.265 373.365 559.036 376.056 563.429L381.068 571.582L386.204 569.558L380.717 561.112C377.736 556.594 375.268 555.349 370.195 557.229L369.377 555.154C373.975 552.982 377.329 549.023 375.12 543.421C372.911 537.818 366.909 535.21 359.595 538.094L344.552 544.025L358.867 580.335ZM355.826 558.939L350.959 546.593L360.71 542.748C365.12 541.01 368.842 541.94 370.458 546.038C372.074 550.136 369.987 553.356 365.578 555.094L355.826 558.939ZM387.201 558.616C391.235 563.678 397.986 565.752 405.507 562.786C413.755 559.535 416.789 553.244 414.253 546.812C412.187 541.573 406.886 539.527 400.265 540.52L394.711 541.331C390.1 541.95 387.764 541.193 386.557 538.132C385.248 534.812 387.098 531.446 391.507 529.708C394.101 528.685 396.317 528.531 398.177 529.296C400.068 529.989 401.554 531.021 402.759 532.404L406.361 528.467C403.727 525.13 397.674 522.242 390.36 525.126C383.046 528.009 379.712 534.298 382.043 540.212C384.313 545.969 388.737 547.462 395.099 546.572L400.425 545.791C405.399 545.028 408.313 546.037 409.54 549.149C410.972 552.78 409.08 556.343 404.1 558.306C398.758 560.413 394.355 558.672 390.886 554.586L387.201 558.616Z" fill="black"/>
<path d="M217.003 -31.2718C206.516 -26.8638 200.717 -16.4737 205.633 -5.6611C209.389 2.92008 216.691 6.11452 223.332 5.15541L223.034 -0.252923C217.284 0.37716 212.769 -1.17679 209.974 -7.56159C206.732 -14.968 210.642 -22.5833 219.223 -26.3395C227.702 -30.0511 235.234 -27.4441 238.476 -20.0378C239.862 -16.8709 240.096 -14.1125 239.25 -11.7338C238.405 -9.35506 237.131 -7.3977 235.379 -5.83933L239.093 -1.80452C243.581 -5.59511 246.663 -13.1528 242.818 -21.9383C238.544 -32.1189 227.203 -35.9191 217.003 -31.2718ZM216.306 16.7761L218.319 21.3732L233.284 14.8221L236.594 22.3817C238.785 27.3874 238.128 30.4748 233.837 33.3267L225.876 38.6377L228.089 43.6945L236.325 37.8981C240.731 34.7525 241.883 32.2396 239.816 27.2403L241.859 26.346C244.2 30.8599 248.281 34.0646 253.798 31.6498C259.314 29.2351 261.698 23.1398 258.545 15.9378L252.061 1.12501L216.306 16.7761ZM237.575 12.9439L249.732 7.62256L253.935 17.2253C255.836 21.567 255.045 25.3217 251.009 27.0881C246.974 28.8544 243.679 26.8884 241.779 22.5467L237.575 12.9439ZM231.569 51.6431L242.48 76.5694L246.821 74.6689L237.923 54.3397L249.977 49.063L256.551 64.0801L260.841 62.202L254.268 47.1849L264.994 42.4896L273.893 62.8188L278.235 60.9183L267.324 35.992L231.569 51.6431ZM256.133 107.759L258.391 112.918L288.422 84.1909L285.582 77.7039L243.969 79.9725L246.138 84.9271L257.312 84.1746L264.288 100.111L256.133 107.759ZM262.325 83.8065L274.048 83.0571C276.002 82.9322 277.56 82.7372 278.847 82.4783C280.133 82.2194 281.551 81.8424 283.054 81.2451L283.949 83.2882C282.467 83.9366 281.258 84.6488 280.297 85.3738C279.336 86.0987 278.107 87.1844 276.508 88.6757L267.959 96.6783L262.325 83.8065ZM261.564 120.167L263.576 124.764L294.989 111.014L300.78 124.243L305.122 122.342L291.752 91.7976L287.41 93.6981L292.977 106.417L261.564 120.167ZM271.897 143.774L273.91 148.371L309.665 132.72L307.652 128.123L271.897 143.774ZM281.912 166.652L284.93 173.547L325.738 169.44L323.525 164.383L295.704 167.431C292.668 167.726 290.462 168.387 287.688 169.419L286.816 167.427C289.762 165.954 291.563 164.923 293.81 162.965L314.917 144.718L312.681 139.61L281.912 166.652ZM292.968 191.909L303.879 216.836L308.221 214.935L299.322 194.606L311.376 189.329L317.95 204.346L322.24 202.468L315.667 187.451L326.393 182.756L335.292 203.085L339.634 201.184L328.723 176.258L292.968 191.909ZM313.078 237.85L318.332 249.853C323.027 260.58 332.683 264.144 343.869 259.248C354.442 254.619 358.693 244.724 354.243 234.56L348.833 222.199L313.078 237.85ZM319.432 240.546L346.503 228.696L349.544 235.643C353.278 244.173 349.917 250.818 341.745 254.395C332.653 258.375 326.184 255.972 322.316 247.136L319.432 240.546ZM329.41 275.161L331.422 279.758L367.177 264.107L365.165 259.51L329.41 275.161ZM336.026 290.275L338.038 294.872L353.004 288.321L356.313 295.881C358.504 300.886 357.847 303.974 353.557 306.826L345.595 312.137L347.809 317.193L356.045 311.397C360.45 308.251 361.602 305.739 359.536 300.739L361.579 299.845C363.92 304.359 368.001 307.564 373.517 305.149C379.034 302.734 381.417 296.639 378.265 289.437L371.781 274.624L336.026 290.275ZM357.295 286.443L369.451 281.122L373.655 290.724C375.555 295.066 374.764 298.821 370.729 300.587C366.694 302.353 363.399 300.387 361.498 296.046L357.295 286.443ZM351.288 325.142L362.199 350.068L366.541 348.168L357.642 327.839L369.697 322.562L376.27 337.579L380.561 335.701L373.987 320.684L384.714 315.989L393.613 336.318L397.954 334.417L387.043 309.491L351.288 325.142ZM381.79 345.182C371.303 349.59 365.503 359.98 370.419 370.793C374.175 379.374 381.478 382.568 388.118 381.609L387.82 376.201C382.07 376.831 377.556 375.277 374.761 368.892C371.519 361.486 375.428 353.871 384.009 350.114C392.489 346.403 400.021 349.01 403.263 356.416C404.649 359.583 404.882 362.341 404.037 364.72C403.191 367.099 401.918 369.056 400.165 370.615L403.879 374.649C408.367 370.859 411.45 363.301 407.604 354.516C403.33 344.335 391.989 340.535 381.79 345.182ZM384.275 400.5L386.287 405.097L417.701 391.346L423.491 404.576L427.833 402.675L414.463 372.13L410.121 374.031L415.688 386.749L384.275 400.5ZM410.036 410.683C399.015 415.264 394.733 426.755 399.201 436.546C403.363 446.471 414.644 450.967 425.508 446.029C436.506 441.398 440.855 430.06 436.387 420.269C432.225 410.344 420.877 405.694 410.036 410.683ZM423.361 441.126C415.138 444.726 406.964 442.46 403.521 434.594C400.078 426.728 403.958 419.186 412.182 415.587C420.406 411.987 428.579 414.252 432.023 422.118C435.443 429.933 431.585 437.526 423.361 441.126ZM411.094 461.767L413.106 466.364L428.072 459.813L431.381 467.373C433.572 472.378 432.915 475.466 428.625 478.318L420.663 483.629L422.877 488.685L431.113 482.889C435.518 479.743 436.67 477.23 434.603 472.231L436.647 471.337C438.988 475.851 443.069 479.055 448.585 476.641C454.101 474.226 456.485 468.131 453.333 460.929L446.849 446.116L411.094 461.767ZM432.363 457.935L444.519 452.613L448.723 462.216C450.623 466.558 449.832 470.313 445.797 472.079C441.762 473.845 438.466 471.879 436.566 467.538L432.363 457.935ZM433.848 489.277C428.938 493.495 427.117 500.318 430.359 507.725C433.914 515.846 440.312 518.645 446.646 515.872C451.805 513.614 453.653 508.24 452.416 501.661L451.399 496.141C450.61 491.556 451.28 489.193 454.294 487.874C457.563 486.443 460.995 488.167 462.895 492.508C464.013 495.062 464.25 497.271 463.554 499.158C462.932 501.074 461.956 502.597 460.618 503.852L464.686 507.306C467.923 504.55 470.585 498.394 467.432 491.192C464.279 483.99 457.871 480.891 452.048 483.44C446.378 485.922 445.051 490.398 446.176 496.723L447.154 502.016C448.1 506.958 447.201 509.908 444.136 511.25C440.56 512.815 436.93 511.056 434.783 506.153C432.481 500.892 434.057 496.428 438.012 492.81L433.848 489.277Z" fill="black"/>
</g>
<circle cx="133.905" cy="473.905" r="62.7274" fill="#BB9CFE" stroke="black" stroke-width="4.35607"/>
<path d="M216.597 371.595L209.182 239.011L327.71 298.882L216.597 371.595Z" fill="#BB9CFE" stroke="black" stroke-width="4.35607"/>
<rect x="116.44" y="13.9779" width="122.205" height="122.205" transform="rotate(30.1948 116.44 13.9779)" fill="#BB9CFE" stroke="black" stroke-width="4.35607"/>
<rect x="2.17803" y="2.17803" width="413.644" height="714.644" fill="#C18C5D" stroke="black" stroke-width="4.35607"/>
<circle cx="133.905" cy="473.905" r="62.7274" fill="#BB9CFE" stroke="black" stroke-width="4.35607"/>
<path d="M216.597 371.595L209.182 239.011L327.71 298.882L216.597 371.595Z" fill="#BB9CFE" stroke="black" stroke-width="4.35607"/>
<rect x="116.44" y="13.9779" width="122.205" height="122.205" transform="rotate(30.1948 116.44 13.9779)" fill="#BB9CFE" stroke="black" stroke-width="4.35607"/>
</svg>
