<svg width="1202" height="622" viewBox="0 0 1202 622" fill="none" xmlns="http://www.w3.org/2000/svg">
<rect x="2.5" y="619.5" width="617" height="1197" transform="rotate(-90 2.5 619.5)" fill="#F7941D" stroke="black" stroke-width="5"/>
<path d="M27.7105 63.4199C27.7105 62.8733 27.9109 62.4361 28.3117 62.1082C28.7125 61.7438 29.2591 61.5616 29.9513 61.5616H41.1009C41.7932 61.5616 42.3579 61.7438 42.7952 62.1082C43.2324 62.4361 43.451 62.8733 43.451 63.4199C43.451 64.0393 43.0867 64.6951 42.3579 65.3874C41.7021 65.9704 41.3742 66.7174 41.3742 67.6283C41.3742 68.3206 41.5199 69.1586 41.8114 70.1424L46.5117 88.1784L54.218 63.8025C54.6552 62.3086 55.5843 61.5616 57.0054 61.5616H58.645C60.1025 61.5616 61.0498 62.3086 61.487 63.8025L69.1387 88.233L74.3855 70.1424C74.7499 68.7942 74.9321 67.9015 74.9321 67.4643C74.9321 66.6263 74.5677 65.8975 73.839 65.2781C73.1102 64.6587 72.7459 64.0211 72.7459 63.3652C72.7459 62.8187 72.9463 62.3814 73.3471 62.0535C73.7843 61.7256 74.3491 61.5616 75.0414 61.5616H81.436C82.8934 61.5616 83.6221 62.1264 83.6221 63.2559C83.6221 63.6203 83.5128 63.9482 83.2942 64.2397C83.112 64.5312 82.8023 64.8773 82.3651 65.2781C81.9643 65.6425 81.6728 65.934 81.4906 66.1526C80.689 67.0999 80.0332 68.4663 79.523 70.2517L71.5981 96.7045C71.1609 98.2348 70.086 99 68.3735 99H65.6408C63.8918 99 62.7987 98.2713 62.3615 96.8138L55.5297 75.9904L48.9165 96.7045C48.4064 98.2348 47.2951 99 45.5826 99H43.0138C41.192 99 40.0624 98.2713 39.6252 96.8138L32.0282 70.1424C31.5545 68.6485 30.6983 67.3003 29.4595 66.0979C28.7307 65.4421 28.2571 64.9684 28.0384 64.6769C27.8198 64.349 27.7105 63.93 27.7105 63.4199ZM86.1187 75.3346C89.0336 72.6383 92.823 71.2901 97.4869 71.2901C101.932 71.2901 105.558 72.5472 108.363 75.0613C111.169 77.539 112.572 80.8 112.572 84.8445C112.572 89.2533 111.096 92.8058 108.145 95.5021C105.23 98.1984 101.422 99.5465 96.7217 99.5465C92.3129 99.5465 88.7057 98.3077 85.9001 95.83C83.0945 93.3159 81.6917 90.0367 81.6917 85.9922C81.6917 81.5834 83.1674 78.0309 86.1187 75.3346ZM93.0052 92.0589C94.3169 94.2451 95.9201 95.3381 97.8148 95.3381C99.418 95.3381 100.712 94.6459 101.695 93.2613C102.716 91.8767 103.226 89.8727 103.226 87.2493C103.226 83.7149 102.57 80.8729 101.258 78.7232C99.9463 76.5734 98.3249 75.4985 96.3938 75.4985C94.7906 75.4985 93.4971 76.1908 92.5133 77.5754C91.5295 78.96 91.0376 80.9276 91.0376 83.4781C91.0376 87.0124 91.6935 89.8727 93.0052 92.0589ZM117.876 72.7658L123.614 71.5087C124.052 71.363 124.471 71.2901 124.871 71.2901C125.527 71.2901 126.056 71.5087 126.456 71.946C126.857 72.3468 127.058 72.8569 127.058 73.4763V77.2475H127.167C128.005 75.4621 129.098 74.0046 130.446 72.8751C131.794 71.782 133.142 71.2355 134.491 71.2355C135.839 71.2355 136.95 71.6909 137.825 72.6018C138.699 73.5128 139.136 74.6605 139.136 76.0451C139.136 77.2839 138.754 78.377 137.988 79.3244C137.26 80.2353 136.404 80.6907 135.42 80.6907C134.691 80.6907 133.926 80.2899 133.124 79.4883C132.359 78.6503 131.612 78.2313 130.883 78.2313C129.9 78.2313 129.08 78.7049 128.424 79.6523C127.805 80.5996 127.495 81.7109 127.495 82.9862V90.5285C127.495 92.4597 127.841 93.7896 128.533 94.5183L129.244 95.2288C129.863 95.8483 130.173 96.4495 130.173 97.0324C130.173 98.3441 129.408 99 127.877 99H118.094C116.6 99 115.853 98.3624 115.853 97.0871C115.853 96.4312 116.163 95.8118 116.783 95.2288L117.438 94.5183C118.131 93.7167 118.477 92.3868 118.477 90.5285V81.2373C118.477 79.4883 118.131 78.213 117.438 77.4114L116.728 76.6463C116.145 75.9904 115.853 75.3892 115.853 74.8427C115.853 73.786 116.527 73.0937 117.876 72.7658ZM145.196 75.3892C147.819 72.6565 151.317 71.2901 155.689 71.2901C157.839 71.2901 159.77 71.6909 161.483 72.4925V68.6121C161.483 66.7538 161.155 65.4239 160.499 64.6223L159.788 63.8571C159.205 63.1284 158.914 62.509 158.914 61.9989C158.914 60.9422 159.57 60.2681 160.881 59.9766L166.784 58.7742C167.513 58.6285 168.059 58.5556 168.424 58.5556C169.007 58.5556 169.499 58.7378 169.9 59.1022C170.337 59.4301 170.555 59.9402 170.555 60.6325V90.6925C170.555 91.4941 170.719 92.1317 171.047 92.6054C171.412 93.0427 171.794 93.3341 172.195 93.4799C172.596 93.5892 172.96 93.7896 173.288 94.0811C173.652 94.3726 173.835 94.7552 173.835 95.2288C173.835 96.0304 173.124 96.832 171.703 97.6336C169.225 98.8725 167.076 99.4919 165.254 99.4919C164.161 99.4919 163.396 99.2733 162.958 98.836C162.558 98.3624 162.339 97.6336 162.303 96.6499V95.0649H162.084C159.971 98.0527 156.892 99.5465 152.847 99.5465C149.277 99.5465 146.453 98.3441 144.376 95.9393C142.299 93.5345 141.261 90.3281 141.261 86.3201C141.261 81.7656 142.572 78.122 145.196 75.3892ZM152.191 92.0042C153.175 93.6803 154.596 94.5183 156.454 94.5183C157.875 94.5183 159.06 94.0082 160.007 92.988C160.991 91.9678 161.483 90.6743 161.483 89.1075V80.4174C161.483 78.8507 161.027 77.6118 160.116 76.7009C159.242 75.79 158.058 75.3346 156.564 75.3346C154.669 75.3346 153.212 76.1544 152.191 77.794C151.171 79.4337 150.661 81.7656 150.661 84.7898C150.661 87.9233 151.171 90.3281 152.191 92.0042ZM192.172 75.3346C195.087 72.6383 198.876 71.2901 203.54 71.2901C207.985 71.2901 211.611 72.5472 214.417 75.0613C217.222 77.539 218.625 80.8 218.625 84.8445C218.625 89.2533 217.149 92.8058 214.198 95.5021C211.283 98.1984 207.475 99.5465 202.775 99.5465C198.366 99.5465 194.759 98.3077 191.953 95.83C189.148 93.3159 187.745 90.0367 187.745 85.9922C187.745 81.5834 189.221 78.0309 192.172 75.3346ZM199.059 92.0589C200.37 94.2451 201.973 95.3381 203.868 95.3381C205.471 95.3381 206.765 94.6459 207.749 93.2613C208.769 91.8767 209.279 89.8727 209.279 87.2493C209.279 83.7149 208.623 80.8729 207.311 78.7232C206 76.5734 204.378 75.4985 202.447 75.4985C200.844 75.4985 199.55 76.1908 198.567 77.5754C197.583 78.96 197.091 80.9276 197.091 83.4781C197.091 87.0124 197.747 89.8727 199.059 92.0589ZM221.907 97.1417C221.907 96.4859 222.216 95.8483 222.836 95.2288L223.492 94.5183C224.184 93.7167 224.53 92.3868 224.53 90.5285V81.2373C224.53 79.4883 224.184 78.213 223.492 77.4114L222.781 76.6463C222.198 76.0269 221.907 75.4257 221.907 74.8427C221.907 73.7496 222.581 73.0573 223.929 72.7658L229.722 71.5087C230.16 71.363 230.579 71.2901 230.979 71.2901C231.635 71.2901 232.145 71.4905 232.51 71.8913C232.911 72.2557 233.111 72.7658 233.111 73.4217V76.1544H233.22C234.095 74.6969 235.352 73.531 236.991 72.6565C238.631 71.7456 240.471 71.2901 242.512 71.2901C245.718 71.2901 248.141 72.201 249.781 74.0229C251.457 75.8082 252.295 78.4863 252.295 82.0571V90.5285C252.295 92.4961 252.641 93.826 253.333 94.5183L254.044 95.2288C254.627 95.8118 254.918 96.413 254.918 97.0324C254.918 98.3441 254.171 99 252.677 99H243.167C241.637 99 240.872 98.3259 240.872 96.9778C240.872 96.3219 241.127 95.7389 241.637 95.2288L242.184 94.6276C242.876 93.8989 243.222 92.5872 243.222 90.6925V82.3304C243.222 78.3588 241.783 76.373 238.904 76.373C237.447 76.373 236.19 76.8649 235.133 77.8487C234.076 78.796 233.548 79.8162 233.548 80.9093V90.6925C233.548 92.5143 233.894 93.826 234.587 94.6276L235.133 95.2288C235.643 95.7389 235.898 96.3401 235.898 97.0324C235.898 98.3441 235.151 99 233.657 99H224.148C223.455 99 222.909 98.836 222.508 98.5081C222.107 98.1802 221.907 97.7247 221.907 97.1417ZM267.665 74.7334C267.665 73.7496 268.303 73.0026 269.578 72.4925C271.291 71.7638 272.584 70.9076 273.459 69.9238C273.86 69.4865 274.224 68.9764 274.552 68.3934C274.88 67.8105 275.19 67.1546 275.481 66.4259C275.809 65.6971 276.064 65.1506 276.246 64.7862C276.829 63.7296 277.667 63.2013 278.76 63.2013C279.38 63.2013 279.89 63.3834 280.291 63.7478C280.728 64.0757 280.946 64.5494 280.946 65.1688V71.8367H287.232C287.851 71.8367 288.343 72.0553 288.707 72.4925C289.108 72.8933 289.309 73.4581 289.309 74.1868C289.309 74.9156 289.108 75.4985 288.707 75.9358C288.343 76.3366 287.851 76.537 287.232 76.537H280.946V87.5772C280.946 88.8889 281.001 89.9273 281.11 90.6925C281.256 91.4577 281.584 92.15 282.094 92.7694C282.641 93.3888 283.424 93.6985 284.444 93.6985C285.392 93.6985 286.521 93.3341 287.833 92.6054C288.343 92.2775 288.78 92.1135 289.145 92.1135C290.128 92.1135 290.62 92.6419 290.62 93.6985C290.62 94.3908 290.22 95.1924 289.418 96.1033C288.543 97.1235 287.323 97.9616 285.756 98.6174C284.226 99.2368 282.604 99.5465 280.892 99.5465C274.88 99.5465 271.874 96.3948 271.874 90.0913C271.874 90.0549 271.874 90.0184 271.874 89.982V76.537H269.742C269.123 76.537 268.613 76.373 268.212 76.0451C267.848 75.6807 267.665 75.2435 267.665 74.7334ZM292.516 97.0871C292.516 96.5041 292.826 95.8847 293.445 95.2288L294.101 94.5183C294.793 93.7896 295.14 92.4597 295.14 90.5285V68.5574C295.14 66.6991 294.812 65.3692 294.156 64.5676L293.445 63.8025C292.862 63.1102 292.571 62.4907 292.571 61.9442C292.571 60.8875 293.227 60.2317 294.538 59.9766L300.441 58.7742C301.17 58.6285 301.716 58.5556 302.081 58.5556C303.465 58.5556 304.158 59.2661 304.158 60.6871V75.6078C306.307 72.7294 309.35 71.2901 313.285 71.2901C316.382 71.2901 318.75 72.201 320.39 74.0229C322.066 75.8447 322.904 78.5045 322.904 82.0024V90.5285C322.904 92.4961 323.25 93.826 323.943 94.5183L324.653 95.2288C325.272 95.8118 325.582 96.413 325.582 97.0324C325.582 98.3441 324.817 99 323.287 99H313.777C312.246 99 311.481 98.3441 311.481 97.0324C311.481 96.3766 311.755 95.7754 312.301 95.2288L312.848 94.6276C313.54 93.8989 313.886 92.5872 313.886 90.6925V82.3304C313.886 78.3588 312.41 76.373 309.459 76.373C308.038 76.373 306.799 76.8649 305.743 77.8487C304.686 78.796 304.158 79.8162 304.158 80.9093V90.6925C304.158 92.5143 304.522 93.826 305.251 94.6276L305.797 95.2288C306.307 95.7754 306.562 96.3766 306.562 97.0324C306.562 97.6519 306.344 98.1437 305.907 98.5081C305.506 98.836 304.959 99 304.267 99H294.757C293.263 99 292.516 98.3624 292.516 97.0871ZM328.438 85.7189C328.438 81.4194 329.822 77.9398 332.592 75.2799C335.361 72.6201 338.895 71.2901 343.195 71.2901C346.911 71.2901 349.899 72.2557 352.158 74.1868C354.417 76.0815 355.547 78.541 355.547 81.5652C355.547 84.3344 354.326 85.7189 351.885 85.7189H337.729C338.021 88.2695 338.84 90.2735 340.189 91.7309C341.537 93.1884 343.45 93.9171 345.927 93.9171C348.114 93.9171 350.136 93.2066 351.994 91.7856C352.832 91.1662 353.506 90.8565 354.016 90.8565C354.964 90.8565 355.437 91.3848 355.437 92.4415C355.437 93.4617 354.763 94.573 353.415 95.7754C350.719 98.2895 347.166 99.5465 342.757 99.5465C338.349 99.5465 334.851 98.2713 332.264 95.7207C329.713 93.1337 328.438 89.7998 328.438 85.7189ZM337.675 82.0024H344.561C346.456 82.0024 347.403 81.1644 347.403 79.4883C347.403 78.213 347.02 77.1564 346.255 76.3184C345.527 75.4439 344.47 75.0066 343.085 75.0066C341.591 75.0066 340.353 75.6261 339.369 76.8649C338.421 78.0673 337.857 79.7798 337.675 82.0024ZM370.888 91.7856C371.507 91.2026 372.272 90.9111 373.183 90.9111C373.912 90.9111 374.586 91.1662 375.206 91.6763C375.861 92.15 376.408 92.6783 376.845 93.2613C377.319 93.8443 378.048 94.3908 379.031 94.9009C380.015 95.3746 381.163 95.6114 382.475 95.6114C384.005 95.6114 385.153 95.3564 385.918 94.8463C386.719 94.2997 387.12 93.6256 387.12 92.824C387.12 92.2046 386.829 91.6581 386.246 91.1844C385.699 90.7107 385.098 90.3646 384.442 90.146C383.786 89.8909 382.839 89.5994 381.6 89.2715C380.507 88.98 379.797 88.7978 379.469 88.7249C379.141 88.6521 378.467 88.4517 377.446 88.1237C376.426 87.7958 375.716 87.5043 375.315 87.2493C374.914 86.9942 374.349 86.6298 373.621 86.1562C372.892 85.6825 372.364 85.2088 372.036 84.7352C371.744 84.225 371.453 83.6056 371.161 82.8769C370.906 82.1117 370.779 81.2919 370.779 80.4174C370.779 77.7212 371.89 75.535 374.112 73.8589C376.372 72.1464 379.469 71.2901 383.404 71.2901C386.428 71.2901 388.979 71.7456 391.055 72.6565C393.132 73.5674 394.171 74.8245 394.171 76.4277C394.171 77.3021 393.861 77.9944 393.242 78.5045C392.659 78.9782 391.948 79.215 391.11 79.215C390.418 79.215 389.762 79.0146 389.142 78.6138C388.559 78.1766 388.049 77.7212 387.612 77.2475C387.211 76.7374 386.592 76.2819 385.754 75.8811C384.916 75.4439 383.932 75.2253 382.803 75.2253C381.564 75.2253 380.58 75.4803 379.851 75.9904C379.122 76.5005 378.758 77.1564 378.758 77.958C378.758 78.6503 379.086 79.2515 379.742 79.7616C380.398 80.2353 381.072 80.5814 381.764 80.8C382.456 81.0186 383.531 81.3101 384.989 81.6745L385.645 81.8385C386.993 82.1664 388.122 82.4943 389.033 82.8222C389.944 83.1502 390.91 83.6238 391.93 84.2433C392.95 84.8627 393.715 85.6643 394.225 86.6481C394.772 87.5954 395.045 88.7249 395.045 90.0367C395.045 92.8787 393.843 95.1742 391.438 96.9231C389.07 98.6721 385.754 99.5465 381.491 99.5465C378.394 99.5465 375.697 99.0364 373.402 98.0162C371.106 96.996 369.959 95.6661 369.959 94.0264C369.959 93.152 370.268 92.405 370.888 91.7856ZM396.776 74.7334C396.776 73.7496 397.414 73.0026 398.689 72.4925C400.402 71.7638 401.695 70.9076 402.57 69.9238C402.97 69.4865 403.335 68.9764 403.663 68.3934C403.991 67.8105 404.3 67.1546 404.592 66.4259C404.92 65.6971 405.175 65.1506 405.357 64.7862C405.94 63.7296 406.778 63.2013 407.871 63.2013C408.49 63.2013 409.001 63.3834 409.401 63.7478C409.839 64.0757 410.057 64.5494 410.057 65.1688V71.8367H416.343C416.962 71.8367 417.454 72.0553 417.818 72.4925C418.219 72.8933 418.419 73.4581 418.419 74.1868C418.419 74.9156 418.219 75.4985 417.818 75.9358C417.454 76.3366 416.962 76.537 416.343 76.537H410.057V87.5772C410.057 88.8889 410.112 89.9273 410.221 90.6925C410.367 91.4577 410.695 92.15 411.205 92.7694C411.752 93.3888 412.535 93.6985 413.555 93.6985C414.502 93.6985 415.632 93.3341 416.944 92.6054C417.454 92.2775 417.891 92.1135 418.255 92.1135C419.239 92.1135 419.731 92.6419 419.731 93.6985C419.731 94.3908 419.33 95.1924 418.529 96.1033C417.654 97.1235 416.434 97.9616 414.867 98.6174C413.337 99.2368 411.715 99.5465 410.003 99.5465C403.991 99.5465 400.985 96.3948 400.985 90.0913C400.985 90.0549 400.985 90.0184 400.985 89.982V76.537H398.853C398.234 76.537 397.724 76.373 397.323 76.0451C396.958 75.6807 396.776 75.2435 396.776 74.7334ZM423.813 72.7658L429.552 71.5087C429.989 71.363 430.408 71.2901 430.809 71.2901C431.465 71.2901 431.993 71.5087 432.394 71.946C432.795 72.3468 432.995 72.8569 432.995 73.4763V77.2475H433.104C433.942 75.4621 435.036 74.0046 436.384 72.8751C437.732 71.782 439.08 71.2355 440.428 71.2355C441.776 71.2355 442.888 71.6909 443.762 72.6018C444.636 73.5128 445.074 74.6605 445.074 76.0451C445.074 77.2839 444.691 78.377 443.926 79.3244C443.197 80.2353 442.341 80.6907 441.357 80.6907C440.628 80.6907 439.863 80.2899 439.062 79.4883C438.297 78.6503 437.55 78.2313 436.821 78.2313C435.837 78.2313 435.017 78.7049 434.361 79.6523C433.742 80.5996 433.432 81.7109 433.432 82.9862V90.5285C433.432 92.4597 433.778 93.7896 434.471 94.5183L435.181 95.2288C435.801 95.8483 436.11 96.4495 436.11 97.0324C436.11 98.3441 435.345 99 433.815 99H424.032C422.538 99 421.791 98.3624 421.791 97.0871C421.791 96.4312 422.101 95.8118 422.72 95.2288L423.376 94.5183C424.068 93.7167 424.414 92.3868 424.414 90.5285V81.2373C424.414 79.4883 424.068 78.213 423.376 77.4114L422.665 76.6463C422.082 75.9904 421.791 75.3892 421.791 74.8427C421.791 73.786 422.465 73.0937 423.813 72.7658ZM446.767 85.7189C446.767 81.4194 448.152 77.9398 450.921 75.2799C453.69 72.6201 457.224 71.2901 461.524 71.2901C465.24 71.2901 468.228 72.2557 470.487 74.1868C472.746 76.0815 473.876 78.541 473.876 81.5652C473.876 84.3344 472.655 85.7189 470.214 85.7189H456.058C456.35 88.2695 457.17 90.2735 458.518 91.7309C459.866 93.1884 461.779 93.9171 464.257 93.9171C466.443 93.9171 468.465 93.2066 470.323 91.7856C471.161 91.1662 471.835 90.8565 472.346 90.8565C473.293 90.8565 473.767 91.3848 473.767 92.4415C473.767 93.4617 473.092 94.573 471.744 95.7754C469.048 98.2895 465.495 99.5465 461.087 99.5465C456.678 99.5465 453.18 98.2713 450.593 95.7207C448.042 93.1337 446.767 89.7998 446.767 85.7189ZM456.004 82.0024H462.89C464.785 82.0024 465.732 81.1644 465.732 79.4883C465.732 78.213 465.35 77.1564 464.585 76.3184C463.856 75.4439 462.799 75.0066 461.415 75.0066C459.921 75.0066 458.682 75.6261 457.698 76.8649C456.751 78.0673 456.186 79.7798 456.004 82.0024ZM477.19 85.7189C477.19 81.4194 478.575 77.9398 481.344 75.2799C484.113 72.6201 487.647 71.2901 491.947 71.2901C495.663 71.2901 498.651 72.2557 500.91 74.1868C503.169 76.0815 504.299 78.541 504.299 81.5652C504.299 84.3344 503.078 85.7189 500.637 85.7189H486.481C486.773 88.2695 487.593 90.2735 488.941 91.7309C490.289 93.1884 492.202 93.9171 494.68 93.9171C496.866 93.9171 498.888 93.2066 500.746 91.7856C501.584 91.1662 502.258 90.8565 502.768 90.8565C503.716 90.8565 504.189 91.3848 504.189 92.4415C504.189 93.4617 503.515 94.573 502.167 95.7754C499.471 98.2895 495.918 99.5465 491.51 99.5465C487.101 99.5465 483.603 98.2713 481.016 95.7207C478.465 93.1337 477.19 89.7998 477.19 85.7189ZM486.427 82.0024H493.313C495.208 82.0024 496.155 81.1644 496.155 79.4883C496.155 78.213 495.773 77.1564 495.008 76.3184C494.279 75.4439 493.222 75.0066 491.838 75.0066C490.344 75.0066 489.105 75.6261 488.121 76.8649C487.174 78.0673 486.609 79.7798 486.427 82.0024ZM506.192 74.7334C506.192 73.7496 506.83 73.0026 508.105 72.4925C509.817 71.7638 511.111 70.9076 511.985 69.9238C512.386 69.4865 512.751 68.9764 513.079 68.3934C513.406 67.8105 513.716 67.1546 514.008 66.4259C514.336 65.6971 514.591 65.1506 514.773 64.7862C515.356 63.7296 516.194 63.2013 517.287 63.2013C517.906 63.2013 518.416 63.3834 518.817 63.7478C519.255 64.0757 519.473 64.5494 519.473 65.1688V71.8367H525.758C526.378 71.8367 526.87 72.0553 527.234 72.4925C527.635 72.8933 527.835 73.4581 527.835 74.1868C527.835 74.9156 527.635 75.4985 527.234 75.9358C526.87 76.3366 526.378 76.537 525.758 76.537H519.473V87.5772C519.473 88.8889 519.528 89.9273 519.637 90.6925C519.783 91.4577 520.111 92.15 520.621 92.7694C521.167 93.3888 521.951 93.6985 522.971 93.6985C523.918 93.6985 525.048 93.3341 526.36 92.6054C526.87 92.2775 527.307 92.1135 527.671 92.1135C528.655 92.1135 529.147 92.6419 529.147 93.6985C529.147 94.3908 528.746 95.1924 527.945 96.1033C527.07 97.1235 525.849 97.9616 524.283 98.6174C522.752 99.2368 521.131 99.5465 519.418 99.5465C513.406 99.5465 510.4 96.3948 510.4 90.0913C510.4 90.0549 510.4 90.0184 510.4 89.982V76.537H508.269C507.65 76.537 507.139 76.373 506.739 76.0451C506.374 75.6807 506.192 75.2435 506.192 74.7334Z" fill="black"/>
<circle cx="601" cy="311" r="150" transform="rotate(-90 601 311)" fill="#FEB29C" stroke="black" stroke-width="10"/>
<path d="M0 430L1200 430" stroke="black" stroke-width="5"/>
<path d="M0 371L1200 371" stroke="black" stroke-width="5"/>
<path d="M0 253L1200 253" stroke="black" stroke-width="5"/>
<path d="M0 194L1200 194" stroke="black" stroke-width="5"/>
<path d="M1200 285C1146.7 285 1143.21 338 1092.48 338C1029.08 338 1037.35 285 980.371 285C923.396 285 926.152 338 869.178 338C812.203 338 814.04 285 758.903 285C703.766 285 701.01 338 647.71 338C594.411 338 594.411 285 538.355 285C482.299 285 483.218 338 429 338" stroke="black" stroke-width="5"/>
<path d="M537 285C483.701 285 480.209 338 429.483 338C366.075 338 374.346 285 317.371 285C260.396 285 263.152 338 206.178 338C149.203 338 151.04 285 95.9033 285C47.8637 285 39.5872 325.234 3 335.592" stroke="black" stroke-width="5"/>
<circle cx="372.5" cy="311.5" r="23.5" transform="rotate(-90 372.5 311.5)" fill="#FD93CA" fill-opacity="0.9"/>
<rect x="2.5" y="619.5" width="617" height="1197" transform="rotate(-90 2.5 619.5)" fill="#F7941D" stroke="black" stroke-width="5"/>
<path d="M326.977 94.6823C328.143 93.8443 328.999 92.7512 329.546 91.403L341.078 63.6385C341.588 62.2539 342.572 61.5616 344.029 61.5616H347.91C349.477 61.5616 350.515 62.2539 351.025 63.6385L362.12 91.1297C362.703 92.5508 363.468 93.6256 364.416 94.3544C365.581 95.411 366.164 96.3037 366.164 97.0324C366.164 98.3441 365.399 99 363.869 99H352.555C351.025 99 350.26 98.3441 350.26 97.0324C350.26 96.5588 350.606 95.9029 351.298 95.0649C351.845 94.2997 352.118 93.6803 352.118 93.2066C352.118 92.7694 351.954 92.15 351.626 91.3484L350.588 88.6156H336.104L335.121 91.1297C334.72 92.0771 334.519 92.7876 334.519 93.2613C334.519 93.8443 334.866 94.4455 335.558 95.0649C336.25 95.7572 336.596 96.413 336.596 97.0324C336.596 97.579 336.378 98.0527 335.94 98.4535C335.503 98.8178 334.938 99 334.246 99H327.524C325.993 99 325.228 98.3988 325.228 97.1964C325.228 96.3948 325.811 95.5568 326.977 94.6823ZM349.003 84.3526L343.483 69.6505L337.744 84.3526H349.003ZM411.989 94.409L412.591 95.1195C413.21 95.7754 413.52 96.3948 413.52 96.9778C413.52 98.2895 412.754 98.9453 411.224 98.9453H401.55C400.858 98.9453 400.293 98.7814 399.856 98.4535C399.455 98.0891 399.255 97.6154 399.255 97.0324C399.255 96.4859 399.565 95.8483 400.184 95.1195L400.894 94.409C401.55 93.7167 401.878 92.405 401.878 90.4739V76.537H392.314V90.5285C392.314 92.4961 392.66 93.826 393.352 94.5183L394.063 95.2288C394.682 95.8483 394.992 96.4495 394.992 97.0324C394.992 97.6519 394.773 98.1437 394.336 98.5081C393.935 98.836 393.389 99 392.696 99H382.913C381.419 99 380.672 98.3624 380.672 97.0871C380.672 96.5041 380.982 95.8847 381.601 95.2288L382.257 94.5183C382.913 93.7532 383.241 92.4232 383.241 90.5285V76.537H380.399C379.78 76.537 379.269 76.3184 378.869 75.8811C378.468 75.4439 378.267 74.8791 378.267 74.1868C378.267 73.4581 378.45 72.8933 378.814 72.4925C379.215 72.0553 379.743 71.8367 380.399 71.8367H383.241V70.8529C383.241 67.355 384.753 64.3854 387.777 61.9442C390.802 59.503 394.463 58.2823 398.763 58.2823C402.152 58.2823 404.811 58.8107 406.742 59.8673C408.674 60.924 409.639 62.2357 409.639 63.8025C409.639 64.8955 409.257 65.77 408.491 66.4259C407.726 67.0817 406.779 67.4097 405.649 67.4097C404.884 67.4097 404.137 67.1546 403.409 66.6445C402.716 66.1344 402.133 65.5878 401.66 65.0049C401.186 64.3854 400.567 63.8207 399.801 63.3106C399.036 62.8005 398.216 62.5454 397.342 62.5454C395.739 62.5454 394.5 63.0919 393.625 64.185C392.751 65.2417 392.314 66.7174 392.314 68.6121V71.8367H403.354C404.52 71.8367 405.668 71.7456 406.797 71.5634C407.927 71.3812 408.619 71.2901 408.874 71.2901C410.259 71.2901 410.951 71.9824 410.951 73.367V90.4739C410.951 92.2957 411.297 93.6074 411.989 94.409ZM416.627 97.1417C416.627 96.4859 416.937 95.8483 417.556 95.2288L418.212 94.5183C418.904 93.7167 419.25 92.3868 419.25 90.5285V81.2373C419.25 79.4883 418.904 78.213 418.212 77.4114L417.501 76.6463C416.918 76.0269 416.627 75.4257 416.627 74.8427C416.627 73.7496 417.301 73.0573 418.649 72.7658L424.442 71.5087C424.88 71.363 425.299 71.2901 425.7 71.2901C426.355 71.2901 426.865 71.4905 427.23 71.8913C427.631 72.2557 427.831 72.7658 427.831 73.4217V76.1544H427.94C428.815 74.6969 430.072 73.531 431.712 72.6565C433.351 71.7456 435.191 71.2901 437.232 71.2901C440.438 71.2901 442.861 72.201 444.501 74.0229C446.177 75.8082 447.015 78.4863 447.015 82.0571V90.5285C447.015 92.4961 447.361 93.826 448.053 94.5183L448.764 95.2288C449.347 95.8118 449.638 96.413 449.638 97.0324C449.638 98.3441 448.891 99 447.397 99H437.887C436.357 99 435.592 98.3259 435.592 96.9778C435.592 96.3219 435.847 95.7389 436.357 95.2288L436.904 94.6276C437.596 93.8989 437.942 92.5872 437.942 90.6925V82.3304C437.942 78.3588 436.503 76.373 433.624 76.373C432.167 76.373 430.91 76.8649 429.853 77.8487C428.797 78.796 428.268 79.8162 428.268 80.9093V90.6925C428.268 92.5143 428.614 93.826 429.307 94.6276L429.853 95.2288C430.363 95.7389 430.618 96.3401 430.618 97.0324C430.618 98.3441 429.871 99 428.378 99H418.868C418.175 99 417.629 98.836 417.228 98.5081C416.827 98.1802 416.627 97.7247 416.627 97.1417ZM452.053 102.662C452.745 101.97 453.601 101.623 454.622 101.623C455.205 101.623 455.696 101.751 456.097 102.006C456.535 102.297 457.008 102.717 457.518 103.263C458.065 103.81 458.52 104.21 458.885 104.465C460.597 105.631 463.02 106.214 466.154 106.214C468.376 106.214 470.18 105.832 471.565 105.067C472.949 104.338 473.641 103.336 473.641 102.061C473.641 100.312 472.148 99.4372 469.16 99.4372C468.358 99.4372 466.974 99.5283 465.006 99.7105C463.038 99.8927 461.636 99.9838 460.798 99.9838C458.429 99.9838 456.589 99.5465 455.277 98.6721C453.966 97.7612 453.31 96.5405 453.31 95.0102C453.31 93.7349 453.784 92.4961 454.731 91.2937C455.678 90.0913 456.899 89.1075 458.393 88.3424C456.607 87.5772 455.205 86.5388 454.184 85.227C453.201 83.8789 452.709 82.3668 452.709 80.6907C452.709 77.9216 453.929 75.6625 456.371 73.9136C458.848 72.1646 461.982 71.2901 465.771 71.2901C468.978 71.2901 471.656 71.9095 473.805 73.1484C475.409 73.0391 476.921 72.5107 478.342 71.5634C479.799 70.5796 480.728 70.0877 481.129 70.0877C481.639 70.0877 482.095 70.3428 482.495 70.8529C482.896 71.3266 483.097 71.9278 483.097 72.6565C483.097 73.6038 482.732 74.369 482.004 74.952C481.275 75.4985 480.327 75.7718 479.162 75.7718C478.542 75.7718 477.722 75.6989 476.702 75.5532C477.759 76.9013 478.287 78.4134 478.287 80.0895C478.287 82.8951 477.085 85.1906 474.68 86.976C472.275 88.7614 469.16 89.6541 465.334 89.6541C464.022 89.6541 462.82 89.5448 461.727 89.3261C460.852 90.0184 460.415 90.7836 460.415 91.6216C460.415 92.7876 461.253 93.3706 462.929 93.3706C463.621 93.3706 465.134 93.2066 467.465 92.8787C469.797 92.5143 471.637 92.3321 472.986 92.3321C475.864 92.3321 478.105 92.9516 479.708 94.1904C481.348 95.3928 482.168 97.0871 482.168 99.2733C482.168 102.625 480.419 105.322 476.921 107.362C473.423 109.403 468.814 110.423 463.093 110.423C459.377 110.423 456.425 109.967 454.239 109.056C452.053 108.146 450.96 106.852 450.96 105.176C450.96 104.156 451.324 103.318 452.053 102.662ZM460.907 80.0349C460.907 81.8931 461.344 83.387 462.219 84.5165C463.129 85.6096 464.314 86.1562 465.771 86.1562C467.083 86.1562 468.14 85.7189 468.941 84.8445C469.743 83.9336 470.144 82.7129 470.144 81.1826C470.144 79.3244 469.67 77.8305 468.722 76.7009C467.812 75.5714 466.646 75.0066 465.225 75.0066C463.949 75.0066 462.911 75.4621 462.109 76.373C461.308 77.2839 460.907 78.5045 460.907 80.0349ZM483.928 85.7189C483.928 81.4194 485.313 77.9398 488.082 75.2799C490.851 72.6201 494.386 71.2901 498.685 71.2901C502.402 71.2901 505.389 72.2557 507.648 74.1868C509.908 76.0815 511.037 78.541 511.037 81.5652C511.037 84.3344 509.816 85.7189 507.375 85.7189H493.22C493.511 88.2695 494.331 90.2735 495.679 91.7309C497.027 93.1884 498.94 93.9171 501.418 93.9171C503.604 93.9171 505.626 93.2066 507.485 91.7856C508.323 91.1662 508.997 90.8565 509.507 90.8565C510.454 90.8565 510.928 91.3848 510.928 92.4415C510.928 93.4617 510.254 94.573 508.906 95.7754C506.209 98.2895 502.657 99.5465 498.248 99.5465C493.839 99.5465 490.341 98.2713 487.754 95.7207C485.204 93.1337 483.928 89.7998 483.928 85.7189ZM493.165 82.0024H500.051C501.946 82.0024 502.894 81.1644 502.894 79.4883C502.894 78.213 502.511 77.1564 501.746 76.3184C501.017 75.4439 499.96 75.0066 498.576 75.0066C497.082 75.0066 495.843 75.6261 494.859 76.8649C493.912 78.0673 493.347 79.7798 493.165 82.0024ZM516.483 72.7658L522.222 71.5087C522.659 71.363 523.078 71.2901 523.479 71.2901C524.135 71.2901 524.663 71.5087 525.064 71.946C525.464 72.3468 525.665 72.8569 525.665 73.4763V77.2475H525.774C526.612 75.4621 527.705 74.0046 529.053 72.8751C530.402 71.782 531.75 71.2355 533.098 71.2355C534.446 71.2355 535.557 71.6909 536.432 72.6018C537.306 73.5128 537.743 74.6605 537.743 76.0451C537.743 77.2839 537.361 78.377 536.596 79.3244C535.867 80.2353 535.011 80.6907 534.027 80.6907C533.298 80.6907 532.533 80.2899 531.731 79.4883C530.966 78.6503 530.219 78.2313 529.491 78.2313C528.507 78.2313 527.687 78.7049 527.031 79.6523C526.412 80.5996 526.102 81.7109 526.102 82.9862V90.5285C526.102 92.4597 526.448 93.7896 527.141 94.5183L527.851 95.2288C528.47 95.8483 528.78 96.4495 528.78 97.0324C528.78 98.3441 528.015 99 526.485 99H516.701C515.208 99 514.461 98.3624 514.461 97.0871C514.461 96.4312 514.77 95.8118 515.39 95.2288L516.046 94.5183C516.738 93.7167 517.084 92.3868 517.084 90.5285V81.2373C517.084 79.4883 516.738 78.213 516.046 77.4114L515.335 76.6463C514.752 75.9904 514.461 75.3892 514.461 74.8427C514.461 73.786 515.135 73.0937 516.483 72.7658ZM555.606 75.3346C558.521 72.6383 562.31 71.2901 566.974 71.2901C571.42 71.2901 575.045 72.5472 577.851 75.0613C580.656 77.539 582.059 80.8 582.059 84.8445C582.059 89.2533 580.583 92.8058 577.632 95.5021C574.717 98.1984 570.909 99.5465 566.209 99.5465C561.8 99.5465 558.193 98.3077 555.388 95.83C552.582 93.3159 551.179 90.0367 551.179 85.9922C551.179 81.5834 552.655 78.0309 555.606 75.3346ZM562.493 92.0589C563.804 94.2451 565.408 95.3381 567.302 95.3381C568.905 95.3381 570.199 94.6459 571.183 93.2613C572.203 91.8767 572.713 89.8727 572.713 87.2493C572.713 83.7149 572.057 80.8729 570.745 78.7232C569.434 76.5734 567.812 75.4985 565.881 75.4985C564.278 75.4985 562.985 76.1908 562.001 77.5754C561.017 78.96 560.525 80.9276 560.525 83.4781C560.525 87.0124 561.181 89.8727 562.493 92.0589ZM585.341 97.1417C585.341 96.4859 585.65 95.8483 586.27 95.2288L586.926 94.5183C587.618 93.7167 587.964 92.3868 587.964 90.5285V81.2373C587.964 79.4883 587.618 78.213 586.926 77.4114L586.215 76.6463C585.632 76.0269 585.341 75.4257 585.341 74.8427C585.341 73.7496 586.015 73.0573 587.363 72.7658L593.156 71.5087C593.594 71.363 594.013 71.2901 594.413 71.2901C595.069 71.2901 595.579 71.4905 595.944 71.8913C596.345 72.2557 596.545 72.7658 596.545 73.4217V76.1544H596.654C597.529 74.6969 598.786 73.531 600.425 72.6565C602.065 71.7456 603.905 71.2901 605.946 71.2901C609.152 71.2901 611.575 72.201 613.215 74.0229C614.891 75.8082 615.729 78.4863 615.729 82.0571V90.5285C615.729 92.4961 616.075 93.826 616.767 94.5183L617.478 95.2288C618.061 95.8118 618.352 96.413 618.352 97.0324C618.352 98.3441 617.605 99 616.111 99H606.601C605.071 99 604.306 98.3259 604.306 96.9778C604.306 96.3219 604.561 95.7389 605.071 95.2288L605.618 94.6276C606.31 93.8989 606.656 92.5872 606.656 90.6925V82.3304C606.656 78.3588 605.217 76.373 602.338 76.373C600.881 76.373 599.624 76.8649 598.567 77.8487C597.511 78.796 596.982 79.8162 596.982 80.9093V90.6925C596.982 92.5143 597.328 93.826 598.021 94.6276L598.567 95.2288C599.077 95.7389 599.332 96.3401 599.332 97.0324C599.332 98.3441 598.585 99 597.092 99H587.582C586.889 99 586.343 98.836 585.942 98.5081C585.541 98.1802 585.341 97.7247 585.341 97.1417ZM631.1 74.7334C631.1 73.7496 631.737 73.0026 633.012 72.4925C634.725 71.7638 636.018 70.9076 636.893 69.9238C637.294 69.4865 637.658 68.9764 637.986 68.3934C638.314 67.8105 638.624 67.1546 638.915 66.4259C639.243 65.6971 639.498 65.1506 639.68 64.7862C640.263 63.7296 641.101 63.2013 642.194 63.2013C642.814 63.2013 643.324 63.3834 643.725 63.7478C644.162 64.0757 644.381 64.5494 644.381 65.1688V71.8367H650.666C651.285 71.8367 651.777 72.0553 652.142 72.4925C652.542 72.8933 652.743 73.4581 652.743 74.1868C652.743 74.9156 652.542 75.4985 652.142 75.9358C651.777 76.3366 651.285 76.537 650.666 76.537H644.381V87.5772C644.381 88.8889 644.435 89.9273 644.545 90.6925C644.69 91.4577 645.018 92.15 645.528 92.7694C646.075 93.3888 646.858 93.6985 647.878 93.6985C648.826 93.6985 649.955 93.3341 651.267 92.6054C651.777 92.2775 652.214 92.1135 652.579 92.1135C653.563 92.1135 654.054 92.6419 654.054 93.6985C654.054 94.3908 653.654 95.1924 652.852 96.1033C651.978 97.1235 650.757 97.9616 649.19 98.6174C647.66 99.2368 646.038 99.5465 644.326 99.5465C638.314 99.5465 635.308 96.3948 635.308 90.0913C635.308 90.0549 635.308 90.0184 635.308 89.982V76.537H633.176C632.557 76.537 632.047 76.373 631.646 76.0451C631.282 75.6807 631.1 75.2435 631.1 74.7334ZM655.95 97.0871C655.95 96.5041 656.26 95.8847 656.879 95.2288L657.535 94.5183C658.228 93.7896 658.574 92.4597 658.574 90.5285V68.5574C658.574 66.6991 658.246 65.3692 657.59 64.5676L656.879 63.8025C656.296 63.1102 656.005 62.4907 656.005 61.9442C656.005 60.8875 656.661 60.2317 657.972 59.9766L663.875 58.7742C664.604 58.6285 665.15 58.5556 665.515 58.5556C666.899 58.5556 667.592 59.2661 667.592 60.6871V75.6078C669.741 72.7294 672.784 71.2901 676.719 71.2901C679.816 71.2901 682.184 72.201 683.824 74.0229C685.5 75.8447 686.338 78.5045 686.338 82.0024V90.5285C686.338 92.4961 686.684 93.826 687.377 94.5183L688.087 95.2288C688.707 95.8118 689.016 96.413 689.016 97.0324C689.016 98.3441 688.251 99 686.721 99H677.211C675.681 99 674.915 98.3441 674.915 97.0324C674.915 96.3766 675.189 95.7754 675.735 95.2288L676.282 94.6276C676.974 93.8989 677.32 92.5872 677.32 90.6925V82.3304C677.32 78.3588 675.845 76.373 672.893 76.373C671.472 76.373 670.233 76.8649 669.177 77.8487C668.12 78.796 667.592 79.8162 667.592 80.9093V90.6925C667.592 92.5143 667.956 93.826 668.685 94.6276L669.231 95.2288C669.741 95.7754 669.996 96.3766 669.996 97.0324C669.996 97.6519 669.778 98.1437 669.341 98.5081C668.94 98.836 668.393 99 667.701 99H658.191C656.697 99 655.95 98.3624 655.95 97.0871ZM691.872 85.7189C691.872 81.4194 693.257 77.9398 696.026 75.2799C698.795 72.6201 702.329 71.2901 706.629 71.2901C710.345 71.2901 713.333 72.2557 715.592 74.1868C717.851 76.0815 718.981 78.541 718.981 81.5652C718.981 84.3344 717.76 85.7189 715.319 85.7189H701.163C701.455 88.2695 702.275 90.2735 703.623 91.7309C704.971 93.1884 706.884 93.9171 709.361 93.9171C711.548 93.9171 713.57 93.2066 715.428 91.7856C716.266 91.1662 716.94 90.8565 717.45 90.8565C718.398 90.8565 718.871 91.3848 718.871 92.4415C718.871 93.4617 718.197 94.573 716.849 95.7754C714.153 98.2895 710.6 99.5465 706.191 99.5465C701.783 99.5465 698.285 98.2713 695.698 95.7207C693.147 93.1337 691.872 89.7998 691.872 85.7189ZM701.109 82.0024H707.995C709.89 82.0024 710.837 81.1644 710.837 79.4883C710.837 78.213 710.455 77.1564 709.689 76.3184C708.961 75.4439 707.904 75.0066 706.519 75.0066C705.026 75.0066 703.787 75.6261 702.803 76.8649C701.856 78.0673 701.291 79.7798 701.109 82.0024ZM733.338 108.073C733.338 107.49 733.63 106.852 734.213 106.16L734.868 105.449C735.561 104.721 735.907 103.409 735.907 101.514V81.2373C735.907 79.4154 735.561 78.1402 734.868 77.4114L734.158 76.6463C733.611 75.9904 733.338 75.371 733.338 74.788C733.338 73.7314 733.994 73.0573 735.306 72.7658L741.154 71.4541C741.7 71.3448 742.083 71.2901 742.302 71.2901C743.795 71.2901 744.542 72.0006 744.542 73.4217V76.1544H744.706C746.601 72.9115 749.643 71.2901 753.834 71.2901C757.295 71.2901 760.046 72.5107 762.086 74.952C764.163 77.3568 765.202 80.5814 765.202 84.6258C765.202 89.1075 763.872 92.7147 761.212 95.4475C758.589 98.1802 755.091 99.5465 750.718 99.5465C748.605 99.5465 746.692 99.1457 744.98 98.3441V101.514C744.98 103.445 745.326 104.757 746.018 105.449L746.729 106.16C747.348 106.852 747.658 107.471 747.658 108.018C747.658 108.637 747.439 109.111 747.002 109.439C746.601 109.803 746.054 109.986 745.362 109.986H735.579C734.085 109.986 733.338 109.348 733.338 108.073ZM744.98 81.8931V90.4192C744.98 91.986 745.417 93.2248 746.291 94.1357C747.202 95.0467 748.405 95.5021 749.899 95.5021C751.793 95.5021 753.251 94.6823 754.271 93.0427C755.291 91.403 755.801 89.0346 755.801 85.9376C755.801 82.7676 755.291 80.381 754.271 78.7778C753.251 77.1382 751.848 76.3184 750.062 76.3184C748.605 76.3184 747.384 76.8467 746.401 77.9033C745.453 78.96 744.98 80.2899 744.98 81.8931ZM770.046 72.7111L776.167 71.4541C776.932 71.3448 777.369 71.2901 777.479 71.2901C778.098 71.2901 778.626 71.4723 779.064 71.8367C779.501 72.1646 779.719 72.6747 779.719 73.367V88.3424C779.719 92.3139 781.213 94.2997 784.201 94.2997C785.586 94.2997 786.788 93.8989 787.808 93.0973C788.865 92.2957 789.393 91.4212 789.393 90.4739V81.1826C789.393 79.1057 789.065 77.794 788.409 77.2475L787.644 76.537C787.061 76.0269 786.77 75.4257 786.77 74.7334C786.77 73.6767 787.444 73.0026 788.792 72.7111L794.968 71.4541C795.624 71.3448 796.025 71.2901 796.17 71.2901C797.701 71.2901 798.466 71.9824 798.466 73.367V90.6925C798.466 91.4941 798.63 92.1317 798.958 92.6054C799.322 93.0427 799.705 93.3341 800.106 93.4799C800.506 93.5892 800.871 93.7896 801.199 94.0811C801.563 94.3726 801.745 94.7552 801.745 95.2288C801.745 96.0669 801.035 96.8685 799.614 97.6336C797.136 98.8725 794.932 99.4919 793 99.4919C791.106 99.4919 790.158 98.5445 790.158 96.6499V95.0102H789.994C787.772 98.0344 784.565 99.5465 780.375 99.5465C777.351 99.5465 774.983 98.6903 773.27 96.9778C771.558 95.2653 770.701 92.6783 770.701 89.2168V81.1826C770.701 79.1422 770.373 77.8305 769.718 77.2475L768.952 76.537C768.333 75.9904 768.023 75.3892 768.023 74.7334C768.023 73.6767 768.697 73.0026 770.046 72.7111ZM804.169 97.0871C804.169 96.4677 804.478 95.8483 805.098 95.2288L805.754 94.5183C806.446 93.7896 806.792 92.4597 806.792 90.5285V68.5574C806.792 66.6991 806.464 65.3692 805.808 64.5676L805.098 63.8025C804.515 63.183 804.223 62.5636 804.223 61.9442C804.223 60.8875 804.879 60.2317 806.191 59.9766L812.094 58.7742C812.75 58.6285 813.296 58.5556 813.733 58.5556C815.118 58.5556 815.81 59.2661 815.81 60.6871V90.5285C815.81 92.4597 816.175 93.7896 816.903 94.5183L817.559 95.2288C818.179 95.8483 818.488 96.4495 818.488 97.0324C818.488 98.3441 817.723 99 816.193 99H806.41C804.916 99 804.169 98.3624 804.169 97.0871ZM822.335 91.7856C822.954 91.2026 823.72 90.9111 824.631 90.9111C825.359 90.9111 826.033 91.1662 826.653 91.6763C827.309 92.15 827.855 92.6783 828.292 93.2613C828.766 93.8443 829.495 94.3908 830.479 94.9009C831.462 95.3746 832.61 95.6114 833.922 95.6114C835.452 95.6114 836.6 95.3564 837.365 94.8463C838.167 94.2997 838.567 93.6256 838.567 92.824C838.567 92.2046 838.276 91.6581 837.693 91.1844C837.146 90.7107 836.545 90.3646 835.889 90.146C835.233 89.8909 834.286 89.5994 833.047 89.2715C831.954 88.98 831.244 88.7978 830.916 88.7249C830.588 88.6521 829.914 88.4517 828.894 88.1237C827.873 87.7958 827.163 87.5043 826.762 87.2493C826.361 86.9942 825.796 86.6298 825.068 86.1562C824.339 85.6825 823.811 85.2088 823.483 84.7352C823.191 84.225 822.9 83.6056 822.608 82.8769C822.353 82.1117 822.226 81.2919 822.226 80.4174C822.226 77.7212 823.337 75.535 825.56 73.8589C827.819 72.1464 830.916 71.2901 834.851 71.2901C837.875 71.2901 840.426 71.7456 842.503 72.6565C844.579 73.5674 845.618 74.8245 845.618 76.4277C845.618 77.3021 845.308 77.9944 844.689 78.5045C844.106 78.9782 843.395 79.215 842.557 79.215C841.865 79.215 841.209 79.0146 840.59 78.6138C840.007 78.1766 839.497 77.7212 839.059 77.2475C838.659 76.7374 838.039 76.2819 837.201 75.8811C836.363 75.4439 835.379 75.2253 834.25 75.2253C833.011 75.2253 832.027 75.4803 831.298 75.9904C830.57 76.5005 830.205 77.1564 830.205 77.958C830.205 78.6503 830.533 79.2515 831.189 79.7616C831.845 80.2353 832.519 80.5814 833.211 80.8C833.904 81.0186 834.978 81.3101 836.436 81.6745L837.092 81.8385C838.44 82.1664 839.569 82.4943 840.48 82.8222C841.391 83.1502 842.357 83.6238 843.377 84.2433C844.397 84.8627 845.162 85.6643 845.673 86.6481C846.219 87.5954 846.492 88.7249 846.492 90.0367C846.492 92.8787 845.29 95.1742 842.885 96.9231C840.517 98.6721 837.201 99.5465 832.938 99.5465C829.841 99.5465 827.145 99.0364 824.849 98.0162C822.554 96.996 821.406 95.6661 821.406 94.0264C821.406 93.152 821.716 92.405 822.335 91.7856ZM849.644 85.7189C849.644 81.4194 851.029 77.9398 853.798 75.2799C856.567 72.6201 860.102 71.2901 864.401 71.2901C868.118 71.2901 871.105 72.2557 873.364 74.1868C875.623 76.0815 876.753 78.541 876.753 81.5652C876.753 84.3344 875.532 85.7189 873.091 85.7189H858.936C859.227 88.2695 860.047 90.2735 861.395 91.7309C862.743 93.1884 864.656 93.9171 867.134 93.9171C869.32 93.9171 871.342 93.2066 873.2 91.7856C874.038 91.1662 874.713 90.8565 875.223 90.8565C876.17 90.8565 876.644 91.3848 876.644 92.4415C876.644 93.4617 875.97 94.573 874.621 95.7754C871.925 98.2895 868.373 99.5465 863.964 99.5465C859.555 99.5465 856.057 98.2713 853.47 95.7207C850.92 93.1337 849.644 89.7998 849.644 85.7189ZM858.881 82.0024H865.767C867.662 82.0024 868.609 81.1644 868.609 79.4883C868.609 78.213 868.227 77.1564 867.462 76.3184C866.733 75.4439 865.676 75.0066 864.292 75.0066C862.798 75.0066 861.559 75.6261 860.575 76.8649C859.628 78.0673 859.063 79.7798 858.881 82.0024Z" fill="black"/>
<circle cx="601" cy="311" r="150" transform="rotate(-90 601 311)" fill="#FEB29C" stroke="black" stroke-width="10"/>
<path d="M0 430L1200 430" stroke="black" stroke-width="5"/>
<path d="M0 371L1200 371" stroke="black" stroke-width="5"/>
<path d="M0 253L1200 253" stroke="black" stroke-width="5"/>
<path d="M0 194L1200 194" stroke="black" stroke-width="5"/>
<path d="M1200 285C1146.7 285 1143.21 338 1092.48 338C1029.08 338 1037.35 285 980.371 285C923.396 285 926.152 338 869.178 338C812.203 338 814.04 285 758.903 285C703.766 285 701.01 338 647.71 338C594.411 338 594.411 285 538.355 285C482.299 285 483.218 338 429 338" stroke="black" stroke-width="5"/>
<path d="M537 285C483.701 285 480.209 338 429.483 338C366.075 338 374.346 285 317.371 285C260.396 285 263.152 338 206.178 338C149.203 338 151.04 285 95.9033 285C47.8637 285 39.5872 325.234 3 335.592" stroke="black" stroke-width="5"/>
<circle cx="372.5" cy="311.5" r="23.5" transform="rotate(-90 372.5 311.5)" fill="#FD93CA" fill-opacity="0.9"/>
</svg>
