<svg width="318" height="369" viewBox="0 0 318 369" fill="none" xmlns="http://www.w3.org/2000/svg">
<rect x="6.45794" y="2.45794" width="309.084" height="364.084" fill="#FEB29C" stroke="black" stroke-width="4.91589"/>
<path d="M37.7424 49.264H41.8224L48.1584 78.16H48.2064L56.6064 49.264H61.6944L69.9984 78.16H70.0464L76.3344 49.264H80.4144L72.8784 82H67.7904L59.1504 53.152H59.1024L50.4144 82H45.3264L37.7424 49.264ZM85.2763 46.048L89.1163 45.616V60.88C90.0763 60.24 91.0203 59.68 91.9483 59.2C92.9083 58.72 93.8843 58.304 94.8763 57.952C95.8683 57.568 96.8283 57.376 97.7563 57.376C99.0683 57.376 100.156 57.536 101.02 57.856C101.916 58.144 102.636 58.64 103.18 59.344C103.724 60.048 104.108 60.976 104.332 62.128C104.588 63.28 104.716 64.72 104.716 66.448V82H100.876V66.88C100.876 65.92 100.86 65.072 100.828 64.336C100.796 63.568 100.652 62.928 100.396 62.416C100.172 61.872 99.8043 61.456 99.2923 61.168C98.8123 60.88 98.1243 60.736 97.2283 60.736C96.3963 60.736 95.5003 60.928 94.5403 61.312C93.5803 61.664 92.6683 62.08 91.8043 62.56C90.9403 63.04 90.0443 63.6 89.1163 64.24V82H85.2763V46.048ZM114.215 70.048C114.215 73.152 114.903 75.472 116.279 77.008C117.687 78.512 119.575 79.264 121.943 79.264C124.279 79.264 126.103 78.512 127.415 77.008C128.727 75.504 129.383 73.248 129.383 70.24C129.383 67.04 128.679 64.656 127.271 63.088C125.895 61.52 124.007 60.736 121.607 60.736C119.207 60.736 117.367 61.52 116.087 63.088C114.839 64.624 114.215 66.944 114.215 70.048ZM110.135 70C110.135 67.568 110.519 65.552 111.287 63.952C112.055 62.32 113.031 61.024 114.215 60.064C115.399 59.072 116.663 58.384 118.007 58C119.383 57.584 120.679 57.376 121.895 57.376C123.047 57.376 124.295 57.568 125.639 57.952C127.015 58.304 128.279 58.96 129.431 59.92C130.583 60.848 131.543 62.112 132.311 63.712C133.079 65.28 133.463 67.28 133.463 69.712C133.463 72.24 133.063 74.336 132.263 76C131.495 77.664 130.519 78.992 129.335 79.984C128.151 80.944 126.871 81.616 125.495 82C124.119 82.416 122.839 82.624 121.655 82.624C120.439 82.624 119.159 82.432 117.815 82.048C116.471 81.664 115.223 81.008 114.071 80.08C112.951 79.12 112.007 77.824 111.239 76.192C110.503 74.56 110.135 72.496 110.135 70ZM147.419 57.856H151.451L154.283 68.752C154.539 69.68 154.763 70.672 154.955 71.728C155.179 72.752 155.387 73.712 155.579 74.608C155.771 75.664 155.979 76.704 156.203 77.728H156.251C156.475 76.704 156.731 75.664 157.019 74.608C157.275 73.712 157.547 72.752 157.835 71.728C158.123 70.672 158.411 69.68 158.699 68.752L162.107 57.856H167.243L169.979 68.752C170.203 69.68 170.427 70.672 170.651 71.728C170.907 72.752 171.115 73.712 171.275 74.608C171.467 75.664 171.659 76.704 171.851 77.728H171.899C172.187 76.672 172.491 75.616 172.811 74.56C173.067 73.664 173.355 72.704 173.675 71.68C173.995 70.624 174.299 69.648 174.587 68.752L177.947 57.856H181.931L174.011 82H169.739L166.283 68.752C165.963 67.536 165.691 66.448 165.467 65.488C165.275 64.496 165.099 63.664 164.939 62.992C164.779 62.192 164.635 61.488 164.507 60.88H164.411C164.283 61.488 164.123 62.192 163.931 62.992C163.771 63.664 163.547 64.496 163.259 65.488C162.971 66.448 162.651 67.536 162.299 68.752L158.219 82H153.947L147.419 57.856ZM203.867 81.424C203.131 81.648 202.363 81.84 201.563 82C200.795 82.16 199.931 82.304 198.971 82.432C198.043 82.56 197.067 82.624 196.043 82.624C194.443 82.624 192.955 82.4 191.579 81.952C190.203 81.504 189.003 80.784 187.979 79.792C186.955 78.8 186.139 77.52 185.531 75.952C184.955 74.352 184.667 72.4 184.667 70.096C184.667 68.016 184.955 66.192 185.531 64.624C186.107 63.024 186.891 61.696 187.883 60.64C188.907 59.552 190.091 58.736 191.435 58.192C192.811 57.648 194.299 57.376 195.899 57.376C197.467 57.376 198.827 57.68 199.979 58.288C201.131 58.896 202.075 59.728 202.811 60.784C203.579 61.808 204.139 63.024 204.491 64.432C204.875 65.808 205.067 67.264 205.067 68.8L204.347 70.912H188.843C188.843 71.904 188.971 72.896 189.227 73.888C189.483 74.88 189.915 75.776 190.523 76.576C191.163 77.376 191.979 78.032 192.971 78.544C193.995 79.024 195.259 79.264 196.763 79.264C197.723 79.264 198.603 79.216 199.403 79.12C200.203 78.992 200.891 78.864 201.467 78.736C202.075 78.576 202.635 78.4 203.147 78.208L203.867 81.424ZM201.083 67.84C201.083 67.616 201.035 67.12 200.939 66.352C200.843 65.584 200.619 64.784 200.267 63.952C199.915 63.12 199.371 62.384 198.635 61.744C197.899 61.072 196.923 60.736 195.707 60.736C194.363 60.736 193.259 61.024 192.395 61.6C191.531 62.144 190.843 62.8 190.331 63.568C189.819 64.336 189.467 65.12 189.275 65.92C189.083 66.72 188.987 67.36 188.987 67.84H201.083ZM234.701 70.912C234.061 70.944 233.453 70.976 232.877 71.008C232.301 71.04 231.725 71.088 231.149 71.152C230.605 71.184 230.109 71.232 229.661 71.296C227.357 71.584 225.725 72.096 224.765 72.832C223.805 73.536 223.325 74.56 223.325 75.904C223.325 77.024 223.661 77.872 224.333 78.448C225.037 78.992 225.949 79.264 227.069 79.264C228.605 79.264 229.965 79.008 231.149 78.496C232.365 77.952 233.549 77.248 234.701 76.384V70.912ZM234.653 79.744C233.149 80.608 231.741 81.312 230.429 81.856C229.149 82.368 227.757 82.624 226.253 82.624C224.109 82.624 222.397 82.112 221.117 81.088C219.869 80.032 219.245 78.304 219.245 75.904C219.245 74.656 219.565 73.568 220.205 72.64C220.845 71.712 221.677 70.944 222.701 70.336C223.757 69.696 224.941 69.2 226.253 68.848C227.565 68.496 228.909 68.272 230.285 68.176C230.861 68.112 231.613 68.064 232.541 68.032C233.469 67.968 234.189 67.92 234.701 67.888C234.701 66.768 234.669 65.776 234.605 64.912C234.541 64.016 234.349 63.264 234.029 62.656C233.709 62.016 233.229 61.536 232.589 61.216C231.981 60.896 231.101 60.736 229.949 60.736C229.021 60.736 228.125 60.8 227.261 60.928C226.397 61.024 225.629 61.136 224.957 61.264C224.157 61.424 223.421 61.6 222.749 61.792L221.981 58.48C222.781 58.288 223.645 58.112 224.573 57.952C225.373 57.792 226.301 57.664 227.357 57.568C228.413 57.44 229.549 57.376 230.765 57.376C232.397 57.376 233.709 57.616 234.701 58.096C235.725 58.576 236.509 59.232 237.053 60.064C237.629 60.864 238.013 61.792 238.205 62.848C238.429 63.872 238.541 64.96 238.541 66.112V77.632C238.541 78.08 238.541 78.56 238.541 79.072C238.573 79.552 238.605 80.032 238.637 80.512C238.701 80.992 238.765 81.488 238.829 82L235.133 82.384L234.653 79.744ZM245.356 61.744C245.356 61.008 245.276 59.856 245.116 58.288L248.668 57.808L249.052 61.312H249.1C249.676 60.576 250.236 59.936 250.78 59.392C251.324 58.848 251.884 58.384 252.46 58C253.068 57.584 253.644 57.376 254.188 57.376C254.924 57.344 255.948 57.424 257.26 57.616L256.396 61.312C255.34 61.12 254.604 61.04 254.188 61.072C253.644 61.072 253.068 61.328 252.46 61.84C251.852 62.352 251.324 62.896 250.876 63.472C250.3 64.176 249.74 64.976 249.196 65.872V82H245.356V61.744ZM278.632 81.424C277.896 81.648 277.128 81.84 276.328 82C275.56 82.16 274.696 82.304 273.736 82.432C272.808 82.56 271.832 82.624 270.808 82.624C269.208 82.624 267.72 82.4 266.344 81.952C264.968 81.504 263.768 80.784 262.744 79.792C261.72 78.8 260.904 77.52 260.296 75.952C259.72 74.352 259.432 72.4 259.432 70.096C259.432 68.016 259.72 66.192 260.296 64.624C260.872 63.024 261.656 61.696 262.648 60.64C263.672 59.552 264.856 58.736 266.2 58.192C267.576 57.648 269.064 57.376 270.664 57.376C272.232 57.376 273.592 57.68 274.744 58.288C275.896 58.896 276.84 59.728 277.576 60.784C278.344 61.808 278.904 63.024 279.256 64.432C279.64 65.808 279.832 67.264 279.832 68.8L279.112 70.912H263.608C263.608 71.904 263.736 72.896 263.992 73.888C264.248 74.88 264.68 75.776 265.288 76.576C265.928 77.376 266.744 78.032 267.736 78.544C268.76 79.024 270.024 79.264 271.528 79.264C272.488 79.264 273.368 79.216 274.168 79.12C274.968 78.992 275.656 78.864 276.232 78.736C276.84 78.576 277.4 78.4 277.912 78.208L278.632 81.424ZM275.848 67.84C275.848 67.616 275.8 67.12 275.704 66.352C275.608 65.584 275.384 64.784 275.032 63.952C274.68 63.12 274.136 62.384 273.4 61.744C272.664 61.072 271.688 60.736 270.472 60.736C269.128 60.736 268.024 61.024 267.16 61.6C266.296 62.144 265.608 62.8 265.096 63.568C264.584 64.336 264.232 65.12 264.04 65.92C263.848 66.72 263.752 67.36 263.752 67.84H275.848Z" fill="#040404"/>
<path d="M76.4761 137.524C74.5563 135.604 71.4437 135.604 69.5239 137.524L38.2394 168.808C36.3197 170.728 36.3197 173.841 38.2394 175.761C40.1592 177.68 43.2718 177.68 45.1915 175.761L73 147.952L100.808 175.761C102.728 177.68 105.841 177.68 107.761 175.761C109.68 173.841 109.68 170.728 107.761 168.808L76.4761 137.524ZM77.9159 369L77.9159 141L68.0841 141L68.0841 369L77.9159 369Z" fill="black"/>
<path d="M162.476 137.524C160.556 135.604 157.444 135.604 155.524 137.524L124.239 168.808C122.32 170.728 122.32 173.841 124.239 175.761C126.159 177.68 129.272 177.68 131.192 175.761L159 147.952L186.808 175.761C188.728 177.68 191.841 177.68 193.761 175.761C195.68 173.841 195.68 170.728 193.761 168.808L162.476 137.524ZM163.916 369L163.916 141L154.084 141L154.084 369L163.916 369Z" fill="black"/>
<path d="M250.476 137.524C248.556 135.604 245.444 135.604 243.524 137.524L212.239 168.808C210.32 170.728 210.32 173.841 212.239 175.761C214.159 177.68 217.272 177.68 219.192 175.761L247 147.952L274.808 175.761C276.728 177.68 279.841 177.68 281.761 175.761C283.68 173.841 283.68 170.728 281.761 168.808L250.476 137.524ZM251.916 369L251.916 141L242.084 141L242.084 369L251.916 369Z" fill="black"/>
<rect x="6.45794" y="2.45794" width="309.084" height="364.084" fill="#FEB29C" stroke="black" stroke-width="4.91589"/>
<path d="M39.1346 80H44.9906L50.9906 59.072C51.6146 56.72 51.8546 54.128 51.9026 50.24H53.8706C53.9186 54.032 54.1106 56.384 54.8306 59.072L60.4466 80H66.2066L74.7986 46.4H70.2866L65.4866 66.176C64.8626 68.816 64.6226 72.224 64.4786 75.92H62.5586C62.4146 73.424 62.0786 70.592 61.5506 68.72L55.5986 46.4H50.4626L44.7026 66.56C43.8386 69.536 43.3586 72.656 43.2146 75.92H41.2946C41.1506 71.648 40.8146 68.48 40.3346 66.416L35.8226 46.4H31.3106L39.1346 80ZM80.3914 80H84.4714V69.92C84.4714 66.32 84.7594 63.344 86.6794 60.992C87.6874 59.792 89.1754 59.168 91.1434 59.168C94.4554 59.168 96.3754 61.088 96.3754 65.456V80H100.455V64.496C100.455 58.928 97.7674 55.568 92.1514 55.568C87.7834 55.568 85.1914 59.168 84.4234 61.76H82.0714C83.6074 59.456 84.3754 58.016 84.4714 53.168V46.4H80.3914V80ZM106.316 68.144C106.172 75.152 111.212 80.816 117.356 80.672C123.548 80.672 128.396 75.248 128.396 68.144C128.396 61.04 123.74 55.568 117.356 55.568C110.972 55.568 106.316 61.04 106.316 68.144ZM124.172 68.192C124.172 74.096 121.436 77.072 117.356 77.072C113.228 77.072 110.54 74.096 110.54 68.192C110.54 62.24 113.228 59.168 117.356 59.168C121.388 59.168 124.172 62.24 124.172 68.192ZM150.399 80H155.007L158.751 68.288C159.759 65.072 160.095 62.672 160.143 59.84H162.159C162.207 62.672 162.495 65.072 163.503 68.288L167.151 80H171.903L179.967 56.24H175.647L171.903 68.096C171.087 70.928 170.655 73.28 170.607 76.16H168.687C168.543 73.328 168.159 71.072 167.631 69.392L163.551 56.24H158.847L155.151 68.096C154.191 71.168 153.807 73.472 153.663 76.16H151.791C151.647 73.136 151.455 70.928 150.543 68.096L146.847 56.24H142.575L150.399 80ZM183.287 68.24C183.287 76.16 187.511 80.672 194.039 80.672C198.791 80.672 202.535 78.464 204.263 73.808L200.519 72.512C199.559 74.816 197.687 77.12 194.183 77.12C190.391 77.12 187.559 74.768 187.319 69.2H204.071C204.119 68.576 204.167 67.904 204.167 67.136C204.167 60.416 200.087 55.568 193.799 55.568C187.751 55.568 183.287 60.56 183.287 68.24ZM187.415 65.792C187.703 61.616 190.679 58.928 193.799 58.928C197.159 58.928 199.895 61.424 199.895 65.792H187.415ZM221.496 73.856C221.496 78.08 224.328 80.672 229.08 80.672C232.968 80.672 235.656 78.32 236.472 75.008H238.2C238.2 78.896 239.16 80 242.616 80H244.44V76.4H241.944C240.84 76.4 240.552 76.112 240.552 75.008V63.728C240.552 58.688 237.432 55.568 231.288 55.568C225.288 55.568 221.928 58.784 220.968 62.096L224.856 63.536C225.672 61.088 227.352 59.168 231.24 59.168C234.84 59.168 236.472 60.848 236.472 63.776V64.448C232.008 64.784 228.408 65.696 225.624 67.184C222.888 68.624 221.496 70.832 221.496 73.856ZM236.472 70.16C236.472 74.912 233.352 77.216 230.136 77.216C227.256 77.216 225.72 75.824 225.72 73.52C225.72 69.92 229.896 68.24 236.472 67.52V70.16ZM248.813 80H252.893V69.104C252.893 63.392 255.293 60.128 260.477 60.128C261.293 60.128 262.157 60.224 263.021 60.368V56.192C262.253 56 261.437 55.904 260.573 55.904C256.157 55.904 253.949 58.592 252.749 62.96H250.205C251.597 60.848 252.845 58.112 252.845 56.24H248.813V80ZM265.319 68.24C265.319 76.16 269.543 80.672 276.071 80.672C280.823 80.672 284.567 78.464 286.295 73.808L282.551 72.512C281.591 74.816 279.719 77.12 276.215 77.12C272.423 77.12 269.591 74.768 269.351 69.2H286.103C286.151 68.576 286.199 67.904 286.199 67.136C286.199 60.416 282.119 55.568 275.831 55.568C269.783 55.568 265.319 60.56 265.319 68.24ZM269.447 65.792C269.735 61.616 272.711 58.928 275.831 58.928C279.191 58.928 281.927 61.424 281.927 65.792H269.447Z" fill="#040404"/>
<path d="M76.4761 137.524C74.5563 135.604 71.4437 135.604 69.5239 137.524L38.2394 168.808C36.3197 170.728 36.3197 173.841 38.2394 175.761C40.1592 177.68 43.2718 177.68 45.1915 175.761L73 147.952L100.808 175.761C102.728 177.68 105.841 177.68 107.761 175.761C109.68 173.841 109.68 170.728 107.761 168.808L76.4761 137.524ZM77.9159 369L77.9159 141L68.0841 141L68.0841 369L77.9159 369Z" fill="black"/>
<path d="M162.476 137.524C160.556 135.604 157.444 135.604 155.524 137.524L124.239 168.808C122.32 170.728 122.32 173.841 124.239 175.761C126.159 177.68 129.272 177.68 131.192 175.761L159 147.952L186.808 175.761C188.728 177.68 191.841 177.68 193.761 175.761C195.68 173.841 195.68 170.728 193.761 168.808L162.476 137.524ZM163.916 369L163.916 141L154.084 141L154.084 369L163.916 369Z" fill="black"/>
<path d="M250.476 137.524C248.556 135.604 245.444 135.604 243.524 137.524L212.239 168.808C210.32 170.728 210.32 173.841 212.239 175.761C214.159 177.68 217.272 177.68 219.192 175.761L247 147.952L274.808 175.761C276.728 177.68 279.841 177.68 281.761 175.761C283.68 173.841 283.68 170.728 281.761 168.808L250.476 137.524ZM251.916 369L251.916 141L242.084 141L242.084 369L251.916 369Z" fill="black"/>
</svg>
